ISO-10303-21;
HEADER;
FILE_DESCRIPTION(('Open CASCADE Model'),'2;1');
FILE_NAME('Open CASCADE Shape Model','2026-10-07T15:24:24',('Author'),(
    'Open CASCADE'),'Open CASCADE STEP processor 7.9','Open CASCADE 7.9'
  ,'Unknown');
FILE_SCHEMA(('AUTOMOTIVE_DESIGN { 1 0 10303 214 1 1 1 1 }'));
ENDSEC;
DATA;
#1 = APPLICATION_PROTOCOL_DEFINITION('international standard',
  'automotive_design',2000,#2);
#2 = APPLICATION_CONTEXT(
  'core data for automotive mechanical design processes');
#3 = SHAPE_DEFINITION_REPRESENTATION(#4,#10);
#4 = PRODUCT_DEFINITION_SHAPE('','',#5);
#5 = PRODUCT_DEFINITION('design','',#6,#9);
#6 = PRODUCT_DEFINITION_FORMATION('','',#7);
#7 = PRODUCT('Open CASCADE STEP translator 7.9 8',
  'Open CASCADE STEP translator 7.9 8','',(#8));
#8 = PRODUCT_CONTEXT('',#2,'mechanical');
#9 = PRODUCT_DEFINITION_CONTEXT('part definition',#2,'design');
#10 = ADVANCED_BREP_SHAPE_REPRESENTATION('',(#11,#15),#1744);
#11 = AXIS2_PLACEMENT_3D('',#12,#13,#14);
#12 = CARTESIAN_POINT('',(0.,0.,0.));
#13 = DIRECTION('',(0.,0.,1.));
#14 = DIRECTION('',(1.,0.,-0.));
#15 = MANIFOLD_SOLID_BREP('',#16);
#16 = CLOSED_SHELL('',(#17,#163,#245,#321,#490,#564,#634,#688,#761,#1025
    ,#1030,#1212,#1289,#1372,#1450,#1477,#1549,#1577,#1604,#1631,#1663,
    #1690,#1697,#1730,#1737));
#17 = ADVANCED_FACE('',(#18),#33,.T.);
#18 = FACE_BOUND('',#19,.T.);
#19 = EDGE_LOOP('',(#20,#78,#107,#136));
#20 = ORIENTED_EDGE('',*,*,#21,.F.);
#21 = EDGE_CURVE('',#22,#24,#26,.T.);
#22 = VERTEX_POINT('',#23);
#23 = CARTESIAN_POINT('',(-21.69518000599,-287.8792927996,
    298.94812124607));
#24 = VERTEX_POINT('',#25);
#25 = CARTESIAN_POINT('',(-17.6951800061,-291.8782104751,298.85507595823
    ));
#26 = SURFACE_CURVE('',#27,(#32,#66),.PCURVE_S1.);
#27 = CIRCLE('',#28,4.);
#28 = AXIS2_PLACEMENT_3D('',#29,#30,#31);
#29 = CARTESIAN_POINT('',(-17.69518000599,-287.8792927997,
    298.94812124607));
#30 = DIRECTION('',(-6.117577806758E-13,-2.326132195949E-02,
    0.999729418843));
#31 = DIRECTION('',(-1.,2.628627191481E-11,-3.044289234982E-16));
#32 = PCURVE('',#33,#38);
#33 = TOROIDAL_SURFACE('',#34,3.5,0.5);
#34 = AXIS2_PLACEMENT_3D('',#35,#36,#37);
#35 = CARTESIAN_POINT('',(-17.69518000599,-287.8792927997,
    298.94812124607));
#36 = DIRECTION('',(6.117577806758E-13,2.326132195949E-02,
    -0.999729418843));
#37 = DIRECTION('',(-1.,2.628627191481E-11,-3.044289234982E-16));
#38 = DEFINITIONAL_REPRESENTATION('',(#39),#65);
#39 = B_SPLINE_CURVE_WITH_KNOTS('',3,(#40,#41,#42,#43,#44,#45,#46,#47,
    #48,#49,#50,#51,#52,#53,#54,#55,#56,#57,#58,#59,#60,#61,#62,#63,#64)
  ,.UNSPECIFIED.,.F.,.F.,(4,1,1,1,1,1,1,1,1,1,1,1,1,1,1,1,1,1,1,1,1,1,4)
  ,(0.,7.139983303613E-02,0.142799666072,0.214199499108,0.285599332145,
    0.356999165181,0.428398998217,0.499798831253,0.571198664289,
    0.642598497325,0.713998330361,0.785398163397,0.856797996434,
    0.92819782947,0.999597662506,1.070997495542,1.142397328578,
    1.213797161614,1.28519699465,1.356596827687,1.427996660723,
    1.499396493759,1.570796326795),.UNSPECIFIED.);
#40 = CARTESIAN_POINT('',(6.28318530718,0.));
#41 = CARTESIAN_POINT('',(6.259385362834,-5.684341886081E-14));
#42 = CARTESIAN_POINT('',(6.211785474143,-1.278976924368E-13));
#43 = CARTESIAN_POINT('',(6.140385641107,-1.492139745096E-13));
#44 = CARTESIAN_POINT('',(6.068985808071,3.46389583683E-14));
#45 = CARTESIAN_POINT('',(5.997585975035,2.6645352591E-14));
#46 = CARTESIAN_POINT('',(5.926186141999,-1.358912982141E-13));
#47 = CARTESIAN_POINT('',(5.854786308963,-1.696420781627E-13));
#48 = CARTESIAN_POINT('',(5.783386475927,1.350031197944E-13));
#49 = CARTESIAN_POINT('',(5.711986642891,-3.632649736574E-13));
#50 = CARTESIAN_POINT('',(5.640586809854,-4.707345624411E-14));
#51 = CARTESIAN_POINT('',(5.569186976818,-1.350031197944E-13));
#52 = CARTESIAN_POINT('',(5.497787143782,-9.503509090791E-14));
#53 = CARTESIAN_POINT('',(5.426387310746,-1.660893644839E-13));
#54 = CARTESIAN_POINT('',(5.35498747771,8.171241461241E-14));
#55 = CARTESIAN_POINT('',(5.283587644674,-1.438849039914E-13));
#56 = CARTESIAN_POINT('',(5.212187811638,-1.900701818158E-13));
#57 = CARTESIAN_POINT('',(5.140787978601,2.22044604925E-13));
#58 = CARTESIAN_POINT('',(5.069388145565,-1.7763568394E-14));
#59 = CARTESIAN_POINT('',(4.997988312529,-1.447730824111E-13));
#60 = CARTESIAN_POINT('',(4.926588479493,-8.526512829121E-14));
#61 = CARTESIAN_POINT('',(4.855188646457,-1.962874307537E-13));
#62 = CARTESIAN_POINT('',(4.783788813421,1.847411112976E-13));
#63 = CARTESIAN_POINT('',(4.73618892473,1.580957587066E-13));
#64 = CARTESIAN_POINT('',(4.712388980385,0.));
#65 = ( GEOMETRIC_REPRESENTATION_CONTEXT(2) 
PARAMETRIC_REPRESENTATION_CONTEXT() REPRESENTATION_CONTEXT('2D SPACE',''
  ) );
#66 = PCURVE('',#67,#72);
#67 = CYLINDRICAL_SURFACE('',#68,4.);
#68 = AXIS2_PLACEMENT_3D('',#69,#70,#71);
#69 = CARTESIAN_POINT('',(-17.695180006,-288.1235366803,309.44528014392)
  );
#70 = DIRECTION('',(6.117577806758E-13,2.326132195949E-02,
    -0.999729418843));
#71 = DIRECTION('',(-1.,2.628627191481E-11,-3.044289234982E-16));
#72 = DEFINITIONAL_REPRESENTATION('',(#73),#77);
#73 = LINE('',#74,#75);
#74 = CARTESIAN_POINT('',(6.28318530718,10.499999999996));
#75 = VECTOR('',#76,1.);
#76 = DIRECTION('',(-1.,3.618764437576E-14));
#77 = ( GEOMETRIC_REPRESENTATION_CONTEXT(2) 
PARAMETRIC_REPRESENTATION_CONTEXT() REPRESENTATION_CONTEXT('2D SPACE',''
  ) );
#78 = ORIENTED_EDGE('',*,*,#79,.T.);
#79 = EDGE_CURVE('',#22,#80,#82,.T.);
#80 = VERTEX_POINT('',#81);
#81 = CARTESIAN_POINT('',(-21.19518000599,-287.8676621386,
    298.44825653665));
#82 = SURFACE_CURVE('',#83,(#88,#95),.PCURVE_S1.);
#83 = CIRCLE('',#84,0.5);
#84 = AXIS2_PLACEMENT_3D('',#85,#86,#87);
#85 = CARTESIAN_POINT('',(-21.19518000599,-287.8792927996,
    298.94812124607));
#86 = DIRECTION('',(-2.62790670799E-11,-0.999729418843,
    -2.326132195949E-02));
#87 = DIRECTION('',(-4.917443338786E-26,2.326132195949E-02,
    -0.999729418843));
#88 = PCURVE('',#33,#89);
#89 = DEFINITIONAL_REPRESENTATION('',(#90),#94);
#90 = LINE('',#91,#92);
#91 = CARTESIAN_POINT('',(6.28318530718,-4.712388980385));
#92 = VECTOR('',#93,1.);
#93 = DIRECTION('',(0.,1.));
#94 = ( GEOMETRIC_REPRESENTATION_CONTEXT(2) 
PARAMETRIC_REPRESENTATION_CONTEXT() REPRESENTATION_CONTEXT('2D SPACE',''
  ) );
#95 = PCURVE('',#96,#101);
#96 = TOROIDAL_SURFACE('',#97,3.5,0.5);
#97 = AXIS2_PLACEMENT_3D('',#98,#99,#100);
#98 = CARTESIAN_POINT('',(-17.69518000599,-287.8792927997,
    298.94812124607));
#99 = DIRECTION('',(6.117577806758E-13,2.326132195949E-02,
    -0.999729418843));
#100 = DIRECTION('',(-1.,2.628627191481E-11,-3.044289234982E-16));
#101 = DEFINITIONAL_REPRESENTATION('',(#102),#106);
#102 = LINE('',#103,#104);
#103 = CARTESIAN_POINT('',(0.,-4.712388980385));
#104 = VECTOR('',#105,1.);
#105 = DIRECTION('',(0.,1.));
#106 = ( GEOMETRIC_REPRESENTATION_CONTEXT(2) 
PARAMETRIC_REPRESENTATION_CONTEXT() REPRESENTATION_CONTEXT('2D SPACE',''
  ) );
#107 = ORIENTED_EDGE('',*,*,#108,.F.);
#108 = EDGE_CURVE('',#109,#80,#111,.T.);
#109 = VERTEX_POINT('',#110);
#110 = CARTESIAN_POINT('',(-17.69518000609,-291.3667151047,
    298.36684190979));
#111 = SURFACE_CURVE('',#112,(#117,#124),.PCURVE_S1.);
#112 = CIRCLE('',#113,3.5);
#113 = AXIS2_PLACEMENT_3D('',#114,#115,#116);
#114 = CARTESIAN_POINT('',(-17.69518000599,-287.8676621387,
    298.44825653665));
#115 = DIRECTION('',(6.117577806758E-13,2.326132195949E-02,
    -0.999729418843));
#116 = DIRECTION('',(-1.,2.628651959836E-11,-2.986659173364E-16));
#117 = PCURVE('',#33,#118);
#118 = DEFINITIONAL_REPRESENTATION('',(#119),#123);
#119 = LINE('',#120,#121);
#120 = CARTESIAN_POINT('',(8.615330671091E-14,1.570796326799));
#121 = VECTOR('',#122,1.);
#122 = DIRECTION('',(1.,-7.576788041176E-13));
#123 = ( GEOMETRIC_REPRESENTATION_CONTEXT(2) 
PARAMETRIC_REPRESENTATION_CONTEXT() REPRESENTATION_CONTEXT('2D SPACE',''
  ) );
#124 = PCURVE('',#125,#130);
#125 = PLANE('',#126);
#126 = AXIS2_PLACEMENT_3D('',#127,#128,#129);
#127 = CARTESIAN_POINT('',(-17.69518000599,-287.8676621387,
    298.44825653665));
#128 = DIRECTION('',(6.117577806758E-13,2.326132195949E-02,
    -0.999729418843));
#129 = DIRECTION('',(2.62790670799E-11,0.999729418843,2.326132195949E-02
    ));
#130 = DEFINITIONAL_REPRESENTATION('',(#131),#135);
#131 = CIRCLE('',#132,3.5);
#132 = AXIS2_PLACEMENT_2D('',#133,#134);
#133 = CARTESIAN_POINT('',(0.,0.));
#134 = DIRECTION('',(3.329342195135E-16,-1.));
#135 = ( GEOMETRIC_REPRESENTATION_CONTEXT(2) 
PARAMETRIC_REPRESENTATION_CONTEXT() REPRESENTATION_CONTEXT('2D SPACE',''
  ) );
#136 = ORIENTED_EDGE('',*,*,#137,.F.);
#137 = EDGE_CURVE('',#24,#109,#138,.T.);
#138 = SURFACE_CURVE('',#139,(#144,#151),.PCURVE_S1.);
#139 = CIRCLE('',#140,0.5);
#140 = AXIS2_PLACEMENT_3D('',#141,#142,#143);
#141 = CARTESIAN_POINT('',(-17.69518000609,-291.3783457656,
    298.86670661921));
#142 = DIRECTION('',(1.,-2.629973797106E-11,-1.389043801625E-14));
#143 = DIRECTION('',(-2.629294486749E-11,-0.999729418843,
    -2.326132195951E-02));
#144 = PCURVE('',#33,#145);
#145 = DEFINITIONAL_REPRESENTATION('',(#146),#150);
#146 = LINE('',#147,#148);
#147 = CARTESIAN_POINT('',(4.712388980385,0.));
#148 = VECTOR('',#149,1.);
#149 = DIRECTION('',(5.654319433772E-16,1.));
#150 = ( GEOMETRIC_REPRESENTATION_CONTEXT(2) 
PARAMETRIC_REPRESENTATION_CONTEXT() REPRESENTATION_CONTEXT('2D SPACE',''
  ) );
#151 = PCURVE('',#152,#157);
#152 = CYLINDRICAL_SURFACE('',#153,0.5);
#153 = AXIS2_PLACEMENT_3D('',#154,#155,#156);
#154 = CARTESIAN_POINT('',(-17.69518000609,-291.3783457656,
    298.86670661921));
#155 = DIRECTION('',(-1.,2.636854809874E-11,-1.034493064092E-12));
#156 = DIRECTION('',(-2.633734959026E-11,-0.999729418843,
    -2.326132196012E-02));
#157 = DEFINITIONAL_REPRESENTATION('',(#158),#162);
#158 = LINE('',#159,#160);
#159 = CARTESIAN_POINT('',(6.28318530718,-5.258016244625E-13));
#160 = VECTOR('',#161,1.);
#161 = DIRECTION('',(-1.,3.437826215709E-13));
#162 = ( GEOMETRIC_REPRESENTATION_CONTEXT(2) 
PARAMETRIC_REPRESENTATION_CONTEXT() REPRESENTATION_CONTEXT('2D SPACE',''
  ) );
#163 = ADVANCED_FACE('',(#164),#152,.T.);
#164 = FACE_BOUND('',#165,.T.);
#165 = EDGE_LOOP('',(#166,#167,#190,#219));
#166 = ORIENTED_EDGE('',*,*,#137,.T.);
#167 = ORIENTED_EDGE('',*,*,#168,.F.);
#168 = EDGE_CURVE('',#169,#109,#171,.T.);
#169 = VERTEX_POINT('',#170);
#170 = CARTESIAN_POINT('',(-13.19518006825,-291.3667151048,
    298.36684190979));
#171 = SURFACE_CURVE('',#172,(#176,#183),.PCURVE_S1.);
#172 = LINE('',#173,#174);
#173 = CARTESIAN_POINT('',(-17.69518000609,-291.3667151047,
    298.36684190979));
#174 = VECTOR('',#175,1.);
#175 = DIRECTION('',(-1.,2.628618675401E-11,-3.064104139678E-16));
#176 = PCURVE('',#152,#177);
#177 = DEFINITIONAL_REPRESENTATION('',(#178),#182);
#178 = LINE('',#179,#180);
#179 = CARTESIAN_POINT('',(4.71238898039,3.126388037344E-13));
#180 = VECTOR('',#181,1.);
#181 = DIRECTION('',(1.168448070502E-13,1.));
#182 = ( GEOMETRIC_REPRESENTATION_CONTEXT(2) 
PARAMETRIC_REPRESENTATION_CONTEXT() REPRESENTATION_CONTEXT('2D SPACE',''
  ) );
#183 = PCURVE('',#125,#184);
#184 = DEFINITIONAL_REPRESENTATION('',(#185),#189);
#185 = LINE('',#186,#187);
#186 = CARTESIAN_POINT('',(-3.500000000009,-2.433864635204E-14));
#187 = VECTOR('',#188,1.);
#188 = DIRECTION('',(-2.163206548797E-22,-1.));
#189 = ( GEOMETRIC_REPRESENTATION_CONTEXT(2) 
PARAMETRIC_REPRESENTATION_CONTEXT() REPRESENTATION_CONTEXT('2D SPACE',''
  ) );
#190 = ORIENTED_EDGE('',*,*,#191,.F.);
#191 = EDGE_CURVE('',#192,#169,#194,.T.);
#192 = VERTEX_POINT('',#193);
#193 = CARTESIAN_POINT('',(-13.19518006826,-291.8782104752,
    298.85507595823));
#194 = SURFACE_CURVE('',#195,(#200,#207),.PCURVE_S1.);
#195 = CIRCLE('',#196,0.5);
#196 = AXIS2_PLACEMENT_3D('',#197,#198,#199);
#197 = CARTESIAN_POINT('',(-13.19518006825,-291.3783457658,
    298.86670661921));
#198 = DIRECTION('',(1.,-2.628618675401E-11,3.064104139689E-16));
#199 = DIRECTION('',(-2.627906707968E-11,-0.999729418843,
    -2.326132195951E-02));
#200 = PCURVE('',#152,#201);
#201 = DEFINITIONAL_REPRESENTATION('',(#202),#206);
#202 = LINE('',#203,#204);
#203 = CARTESIAN_POINT('',(6.28318530718,-4.499999937837));
#204 = VECTOR('',#205,1.);
#205 = DIRECTION('',(-1.,3.347357104733E-13));
#206 = ( GEOMETRIC_REPRESENTATION_CONTEXT(2) 
PARAMETRIC_REPRESENTATION_CONTEXT() REPRESENTATION_CONTEXT('2D SPACE',''
  ) );
#207 = PCURVE('',#208,#213);
#208 = PLANE('',#209);
#209 = AXIS2_PLACEMENT_3D('',#210,#211,#212);
#210 = CARTESIAN_POINT('',(-13.19518006816,-287.9955994096,
    303.94676834028));
#211 = DIRECTION('',(1.,-2.628618675401E-11,3.064104139679E-16));
#212 = DIRECTION('',(-6.117577806773E-13,-2.326132195949E-02,
    0.999729418843));
#213 = DEFINITIONAL_REPRESENTATION('',(#214),#218);
#214 = CIRCLE('',#215,0.5);
#215 = AXIS2_PLACEMENT_2D('',#216,#217);
#216 = CARTESIAN_POINT('',(-4.999999999996,3.499999999996));
#217 = DIRECTION('',(-1.999095332108E-14,1.));
#218 = ( GEOMETRIC_REPRESENTATION_CONTEXT(2) 
PARAMETRIC_REPRESENTATION_CONTEXT() REPRESENTATION_CONTEXT('2D SPACE',''
  ) );
#219 = ORIENTED_EDGE('',*,*,#220,.F.);
#220 = EDGE_CURVE('',#24,#192,#221,.T.);
#221 = SURFACE_CURVE('',#222,(#226,#233),.PCURVE_S1.);
#222 = LINE('',#223,#224);
#223 = CARTESIAN_POINT('',(-14.19518006826,-291.8782104752,
    298.85507595823));
#224 = VECTOR('',#225,1.);
#225 = DIRECTION('',(1.,-2.636854809874E-11,1.034493064092E-12));
#226 = PCURVE('',#152,#227);
#227 = DEFINITIONAL_REPRESENTATION('',(#228),#232);
#228 = LINE('',#229,#230);
#229 = CARTESIAN_POINT('',(6.28318530718,-3.499999937836));
#230 = VECTOR('',#231,1.);
#231 = DIRECTION('',(0.,-1.));
#232 = ( GEOMETRIC_REPRESENTATION_CONTEXT(2) 
PARAMETRIC_REPRESENTATION_CONTEXT() REPRESENTATION_CONTEXT('2D SPACE',''
  ) );
#233 = PCURVE('',#234,#239);
#234 = PLANE('',#235);
#235 = AXIS2_PLACEMENT_3D('',#236,#237,#238);
#236 = CARTESIAN_POINT('',(-17.6951800061,-291.8665798141,
    298.35521124881));
#237 = DIRECTION('',(-2.633733265634E-11,-0.999729418843,
    -2.32613219601E-02));
#238 = DIRECTION('',(1.,-2.636853116939E-11,1.034493458002E-12));
#239 = DEFINITIONAL_REPRESENTATION('',(#240),#244);
#240 = LINE('',#241,#242);
#241 = CARTESIAN_POINT('',(3.499999937836,0.499999999995));
#242 = VECTOR('',#243,1.);
#243 = DIRECTION('',(1.,-4.121766675344E-24));
#244 = ( GEOMETRIC_REPRESENTATION_CONTEXT(2) 
PARAMETRIC_REPRESENTATION_CONTEXT() REPRESENTATION_CONTEXT('2D SPACE',''
  ) );
#245 = ADVANCED_FACE('',(#246),#234,.T.);
#246 = FACE_BOUND('',#247,.T.);
#247 = EDGE_LOOP('',(#248,#271,#272,#295));
#248 = ORIENTED_EDGE('',*,*,#249,.T.);
#249 = EDGE_CURVE('',#250,#24,#252,.T.);
#250 = VERTEX_POINT('',#251);
#251 = CARTESIAN_POINT('',(-17.6951800061,-291.9189177885,
    300.60460244121));
#252 = SURFACE_CURVE('',#253,(#257,#264),.PCURVE_S1.);
#253 = LINE('',#254,#255);
#254 = CARTESIAN_POINT('',(-17.69518000611,-292.1224543556,
    309.35223485608));
#255 = VECTOR('',#256,1.);
#256 = DIRECTION('',(6.117577806758E-13,2.326132195949E-02,
    -0.999729418843));
#257 = PCURVE('',#234,#258);
#258 = DEFINITIONAL_REPRESENTATION('',(#259),#263);
#259 = LINE('',#260,#261);
#260 = CARTESIAN_POINT('',(1.111743342922E-11,10.999999999994));
#261 = VECTOR('',#262,1.);
#262 = DIRECTION('',(-1.035822656019E-12,-1.));
#263 = ( GEOMETRIC_REPRESENTATION_CONTEXT(2) 
PARAMETRIC_REPRESENTATION_CONTEXT() REPRESENTATION_CONTEXT('2D SPACE',''
  ) );
#264 = PCURVE('',#67,#265);
#265 = DEFINITIONAL_REPRESENTATION('',(#266),#270);
#266 = LINE('',#267,#268);
#267 = CARTESIAN_POINT('',(4.712388980385,2.975397705995E-12));
#268 = VECTOR('',#269,1.);
#269 = DIRECTION('',(0.,1.));
#270 = ( GEOMETRIC_REPRESENTATION_CONTEXT(2) 
PARAMETRIC_REPRESENTATION_CONTEXT() REPRESENTATION_CONTEXT('2D SPACE',''
  ) );
#271 = ORIENTED_EDGE('',*,*,#220,.T.);
#272 = ORIENTED_EDGE('',*,*,#273,.F.);
#273 = EDGE_CURVE('',#274,#192,#276,.T.);
#274 = VERTEX_POINT('',#275);
#275 = CARTESIAN_POINT('',(-13.19518006826,-291.9189177886,
    300.60460244121));
#276 = SURFACE_CURVE('',#277,(#281,#288),.PCURVE_S1.);
#277 = LINE('',#278,#279);
#278 = CARTESIAN_POINT('',(-13.19518006827,-292.1224543558,
    309.35223485608));
#279 = VECTOR('',#280,1.);
#280 = DIRECTION('',(6.117577806758E-13,2.326132195949E-02,
    -0.999729418843));
#281 = PCURVE('',#234,#282);
#282 = DEFINITIONAL_REPRESENTATION('',(#283),#287);
#283 = LINE('',#284,#285);
#284 = CARTESIAN_POINT('',(4.499999937848,10.99999999999));
#285 = VECTOR('',#286,1.);
#286 = DIRECTION('',(-1.035822656019E-12,-1.));
#287 = ( GEOMETRIC_REPRESENTATION_CONTEXT(2) 
PARAMETRIC_REPRESENTATION_CONTEXT() REPRESENTATION_CONTEXT('2D SPACE',''
  ) );
#288 = PCURVE('',#208,#289);
#289 = DEFINITIONAL_REPRESENTATION('',(#290),#294);
#290 = LINE('',#291,#292);
#291 = CARTESIAN_POINT('',(5.5,4.));
#292 = VECTOR('',#293,1.);
#293 = DIRECTION('',(-1.,-1.607642375494E-23));
#294 = ( GEOMETRIC_REPRESENTATION_CONTEXT(2) 
PARAMETRIC_REPRESENTATION_CONTEXT() REPRESENTATION_CONTEXT('2D SPACE',''
  ) );
#295 = ORIENTED_EDGE('',*,*,#296,.T.);
#296 = EDGE_CURVE('',#274,#250,#297,.T.);
#297 = SURFACE_CURVE('',#298,(#302,#309),.PCURVE_S1.);
#298 = LINE('',#299,#300);
#299 = CARTESIAN_POINT('',(-14.19518006826,-291.9189177886,
    300.60460244121));
#300 = VECTOR('',#301,1.);
#301 = DIRECTION('',(-1.,2.628618675401E-11,-3.064104139678E-16));
#302 = PCURVE('',#234,#303);
#303 = DEFINITIONAL_REPRESENTATION('',(#304),#308);
#304 = LINE('',#305,#306);
#305 = CARTESIAN_POINT('',(3.499999937839,2.249999999999));
#306 = VECTOR('',#307,1.);
#307 = DIRECTION('',(-1.,1.035822656018E-12));
#308 = ( GEOMETRIC_REPRESENTATION_CONTEXT(2) 
PARAMETRIC_REPRESENTATION_CONTEXT() REPRESENTATION_CONTEXT('2D SPACE',''
  ) );
#309 = PCURVE('',#310,#315);
#310 = PLANE('',#311);
#311 = AXIS2_PLACEMENT_3D('',#312,#313,#314);
#312 = CARTESIAN_POINT('',(-14.19518006833,-294.5372949751,
    300.54367904174));
#313 = DIRECTION('',(-6.117577806758E-13,-2.326132195949E-02,
    0.999729418843));
#314 = DIRECTION('',(1.,-2.628618675401E-11,3.064104124385E-16));
#315 = DEFINITIONAL_REPRESENTATION('',(#316),#320);
#316 = LINE('',#317,#318);
#317 = CARTESIAN_POINT('',(1.80777448595E-13,2.619085861752));
#318 = VECTOR('',#319,1.);
#319 = DIRECTION('',(-1.,-4.846761401678E-26));
#320 = ( GEOMETRIC_REPRESENTATION_CONTEXT(2) 
PARAMETRIC_REPRESENTATION_CONTEXT() REPRESENTATION_CONTEXT('2D SPACE',''
  ) );
#321 = ADVANCED_FACE('',(#322,#435),#310,.T.);
#322 = FACE_BOUND('',#323,.T.);
#323 = EDGE_LOOP('',(#324,#325,#348,#376,#409));
#324 = ORIENTED_EDGE('',*,*,#296,.F.);
#325 = ORIENTED_EDGE('',*,*,#326,.T.);
#326 = EDGE_CURVE('',#274,#327,#329,.T.);
#327 = VERTEX_POINT('',#328);
#328 = CARTESIAN_POINT('',(-13.19518006805,-283.9210824379,
    300.79069301688));
#329 = SURFACE_CURVE('',#330,(#334,#341),.PCURVE_S1.);
#330 = LINE('',#331,#332);
#331 = CARTESIAN_POINT('',(-13.19518006833,-294.5372949751,
    300.54367904174));
#332 = VECTOR('',#333,1.);
#333 = DIRECTION('',(2.629393613853E-11,0.999729418843,
    2.326132195949E-02));
#334 = PCURVE('',#310,#335);
#335 = DEFINITIONAL_REPRESENTATION('',(#336),#340);
#336 = LINE('',#337,#338);
#337 = CARTESIAN_POINT('',(1.,-3.711022782815E-12));
#338 = VECTOR('',#339,1.);
#339 = DIRECTION('',(1.486905884626E-14,1.));
#340 = ( GEOMETRIC_REPRESENTATION_CONTEXT(2) 
PARAMETRIC_REPRESENTATION_CONTEXT() REPRESENTATION_CONTEXT('2D SPACE',''
  ) );
#341 = PCURVE('',#208,#342);
#342 = DEFINITIONAL_REPRESENTATION('',(#343),#347);
#343 = LINE('',#344,#345);
#344 = CARTESIAN_POINT('',(-3.249999999992,6.619085861757));
#345 = VECTOR('',#346,1.);
#346 = DIRECTION('',(-1.607642375494E-23,-1.));
#347 = ( GEOMETRIC_REPRESENTATION_CONTEXT(2) 
PARAMETRIC_REPRESENTATION_CONTEXT() REPRESENTATION_CONTEXT('2D SPACE',''
  ) );
#348 = ORIENTED_EDGE('',*,*,#349,.F.);
#349 = EDGE_CURVE('',#350,#327,#352,.T.);
#350 = VERTEX_POINT('',#351);
#351 = CARTESIAN_POINT('',(-17.69518000589,-283.9210824377,
    300.79069301688));
#352 = SURFACE_CURVE('',#353,(#357,#364),.PCURVE_S1.);
#353 = LINE('',#354,#355);
#354 = CARTESIAN_POINT('',(-14.19518006805,-283.9210824378,
    300.79069301688));
#355 = VECTOR('',#356,1.);
#356 = DIRECTION('',(1.,-2.630105178935E-11,-3.946354604665E-17));
#357 = PCURVE('',#310,#358);
#358 = DEFINITIONAL_REPRESENTATION('',(#359),#363);
#359 = LINE('',#360,#361);
#360 = CARTESIAN_POINT('',(-5.795906240903E-14,10.619085861756));
#361 = VECTOR('',#362,1.);
#362 = DIRECTION('',(1.,-1.486905862703E-14));
#363 = ( GEOMETRIC_REPRESENTATION_CONTEXT(2) 
PARAMETRIC_REPRESENTATION_CONTEXT() REPRESENTATION_CONTEXT('2D SPACE',''
  ) );
#364 = PCURVE('',#365,#370);
#365 = PLANE('',#366);
#366 = AXIS2_PLACEMENT_3D('',#367,#368,#369);
#367 = CARTESIAN_POINT('',(-17.6951800059,-284.1246190049,
    309.53832543176));
#368 = DIRECTION('',(2.629393613853E-11,0.999729418843,
    2.326132195949E-02));
#369 = DIRECTION('',(1.,-2.630105178957E-11,-3.946355075754E-17));
#370 = DEFINITIONAL_REPRESENTATION('',(#371),#375);
#371 = LINE('',#372,#373);
#372 = CARTESIAN_POINT('',(3.499999937836,8.750000000001));
#373 = VECTOR('',#374,1.);
#374 = DIRECTION('',(1.,3.88649679897E-25));
#375 = ( GEOMETRIC_REPRESENTATION_CONTEXT(2) 
PARAMETRIC_REPRESENTATION_CONTEXT() REPRESENTATION_CONTEXT('2D SPACE',''
  ) );
#376 = ORIENTED_EDGE('',*,*,#377,.F.);
#377 = EDGE_CURVE('',#378,#350,#380,.T.);
#378 = VERTEX_POINT('',#379);
#379 = CARTESIAN_POINT('',(-21.695180006,-287.920000113,300.69764772904)
  );
#380 = SURFACE_CURVE('',#381,(#386,#397),.PCURVE_S1.);
#381 = CIRCLE('',#382,4.);
#382 = AXIS2_PLACEMENT_3D('',#383,#384,#385);
#383 = CARTESIAN_POINT('',(-17.695180006,-287.9200001131,300.69764772904
    ));
#384 = DIRECTION('',(6.117577806758E-13,2.326132195949E-02,
    -0.999729418843));
#385 = DIRECTION('',(1.,-2.628627191481E-11,3.044289234982E-16));
#386 = PCURVE('',#310,#387);
#387 = DEFINITIONAL_REPRESENTATION('',(#388),#396);
#388 = ( BOUNDED_CURVE() B_SPLINE_CURVE(2,(#389,#390,#391,#392,#393,#394
,#395),.UNSPECIFIED.,.T.,.F.) B_SPLINE_CURVE_WITH_KNOTS((1,2,2,2,2,1),(
    -2.094395102393,0.,2.094395102393,4.188790204786,6.28318530718,
8.377580409573),.UNSPECIFIED.) CURVE() GEOMETRIC_REPRESENTATION_ITEM() 
RATIONAL_B_SPLINE_CURVE((1.,0.5,1.,0.5,1.,0.5,1.)) REPRESENTATION_ITEM(
  '') );
#389 = CARTESIAN_POINT('',(0.500000062164,6.619085861757));
#390 = CARTESIAN_POINT('',(0.500000062164,-0.309117368519));
#391 = CARTESIAN_POINT('',(-5.499999937836,3.154984246619));
#392 = CARTESIAN_POINT('',(-11.49999993783,6.619085861757));
#393 = CARTESIAN_POINT('',(-5.499999937836,10.083187476895));
#394 = CARTESIAN_POINT('',(0.500000062164,13.547289092032));
#395 = CARTESIAN_POINT('',(0.500000062164,6.619085861757));
#396 = ( GEOMETRIC_REPRESENTATION_CONTEXT(2) 
PARAMETRIC_REPRESENTATION_CONTEXT() REPRESENTATION_CONTEXT('2D SPACE',''
  ) );
#397 = PCURVE('',#398,#403);
#398 = CYLINDRICAL_SURFACE('',#399,4.);
#399 = AXIS2_PLACEMENT_3D('',#400,#401,#402);
#400 = CARTESIAN_POINT('',(-17.695180006,-288.1235366803,309.44528014392
    ));
#401 = DIRECTION('',(6.117577806758E-13,2.326132195949E-02,
    -0.999729418843));
#402 = DIRECTION('',(-1.,2.628627191481E-11,-3.044289234982E-16));
#403 = DEFINITIONAL_REPRESENTATION('',(#404),#408);
#404 = LINE('',#405,#406);
#405 = CARTESIAN_POINT('',(-3.141592653589,8.750000000001));
#406 = VECTOR('',#407,1.);
#407 = DIRECTION('',(1.,0.));
#408 = ( GEOMETRIC_REPRESENTATION_CONTEXT(2) 
PARAMETRIC_REPRESENTATION_CONTEXT() REPRESENTATION_CONTEXT('2D SPACE',''
  ) );
#409 = ORIENTED_EDGE('',*,*,#410,.F.);
#410 = EDGE_CURVE('',#250,#378,#411,.T.);
#411 = SURFACE_CURVE('',#412,(#417,#428),.PCURVE_S1.);
#412 = CIRCLE('',#413,4.);
#413 = AXIS2_PLACEMENT_3D('',#414,#415,#416);
#414 = CARTESIAN_POINT('',(-17.695180006,-287.9200001131,300.69764772904
    ));
#415 = DIRECTION('',(6.117577806758E-13,2.326132195949E-02,
    -0.999729418843));
#416 = DIRECTION('',(1.,-2.628627191481E-11,3.044289234982E-16));
#417 = PCURVE('',#310,#418);
#418 = DEFINITIONAL_REPRESENTATION('',(#419),#427);
#419 = ( BOUNDED_CURVE() B_SPLINE_CURVE(2,(#420,#421,#422,#423,#424,#425
,#426),.UNSPECIFIED.,.T.,.F.) B_SPLINE_CURVE_WITH_KNOTS((1,2,2,2,2,1),(
    -2.094395102393,0.,2.094395102393,4.188790204786,6.28318530718,
8.377580409573),.UNSPECIFIED.) CURVE() GEOMETRIC_REPRESENTATION_ITEM() 
RATIONAL_B_SPLINE_CURVE((1.,0.5,1.,0.5,1.,0.5,1.)) REPRESENTATION_ITEM(
  '') );
#420 = CARTESIAN_POINT('',(0.500000062164,6.619085861757));
#421 = CARTESIAN_POINT('',(0.500000062164,-0.309117368519));
#422 = CARTESIAN_POINT('',(-5.499999937836,3.154984246619));
#423 = CARTESIAN_POINT('',(-11.49999993783,6.619085861757));
#424 = CARTESIAN_POINT('',(-5.499999937836,10.083187476895));
#425 = CARTESIAN_POINT('',(0.500000062164,13.547289092032));
#426 = CARTESIAN_POINT('',(0.500000062164,6.619085861757));
#427 = ( GEOMETRIC_REPRESENTATION_CONTEXT(2) 
PARAMETRIC_REPRESENTATION_CONTEXT() REPRESENTATION_CONTEXT('2D SPACE',''
  ) );
#428 = PCURVE('',#67,#429);
#429 = DEFINITIONAL_REPRESENTATION('',(#430),#434);
#430 = LINE('',#431,#432);
#431 = CARTESIAN_POINT('',(3.14159265359,8.750000000001));
#432 = VECTOR('',#433,1.);
#433 = DIRECTION('',(1.,0.));
#434 = ( GEOMETRIC_REPRESENTATION_CONTEXT(2) 
PARAMETRIC_REPRESENTATION_CONTEXT() REPRESENTATION_CONTEXT('2D SPACE',''
  ) );
#435 = FACE_BOUND('',#436,.T.);
#436 = EDGE_LOOP('',(#437,#468));
#437 = ORIENTED_EDGE('',*,*,#438,.F.);
#438 = EDGE_CURVE('',#439,#441,#443,.T.);
#439 = VERTEX_POINT('',#440);
#440 = CARTESIAN_POINT('',(-16.395180006,-287.9200001132,300.69764772904
    ));
#441 = VERTEX_POINT('',#442);
#442 = CARTESIAN_POINT('',(-18.995180006,-287.9200001131,300.69764772904
    ));
#443 = SURFACE_CURVE('',#444,(#449,#456),.PCURVE_S1.);
#444 = CIRCLE('',#445,1.3);
#445 = AXIS2_PLACEMENT_3D('',#446,#447,#448);
#446 = CARTESIAN_POINT('',(-17.695180006,-287.9200001131,300.69764772904
    ));
#447 = DIRECTION('',(-6.117577806758E-13,-2.326132195949E-02,
    0.999729418843));
#448 = DIRECTION('',(1.,-2.628507160223E-11,3.323573377762E-16));
#449 = PCURVE('',#310,#450);
#450 = DEFINITIONAL_REPRESENTATION('',(#451),#455);
#451 = CIRCLE('',#452,1.3);
#452 = AXIS2_PLACEMENT_2D('',#453,#454);
#453 = CARTESIAN_POINT('',(-3.499999937836,6.619085861757));
#454 = DIRECTION('',(1.,1.115453600742E-15));
#455 = ( GEOMETRIC_REPRESENTATION_CONTEXT(2) 
PARAMETRIC_REPRESENTATION_CONTEXT() REPRESENTATION_CONTEXT('2D SPACE',''
  ) );
#456 = PCURVE('',#457,#462);
#457 = CYLINDRICAL_SURFACE('',#458,1.3);
#458 = AXIS2_PLACEMENT_3D('',#459,#460,#461);
#459 = CARTESIAN_POINT('',(-17.69518000581,-280.915082604,
    -0.360999011163));
#460 = DIRECTION('',(6.117577806758E-13,2.326132195949E-02,
    -0.999729418843));
#461 = DIRECTION('',(-1.423414618906E-14,0.999729418843,
    2.326132195949E-02));
#462 = DEFINITIONAL_REPRESENTATION('',(#463),#467);
#463 = LINE('',#464,#465);
#464 = CARTESIAN_POINT('',(1.570796326821,-301.1401295848));
#465 = VECTOR('',#466,1.);
#466 = DIRECTION('',(-1.,0.));
#467 = ( GEOMETRIC_REPRESENTATION_CONTEXT(2) 
PARAMETRIC_REPRESENTATION_CONTEXT() REPRESENTATION_CONTEXT('2D SPACE',''
  ) );
#468 = ORIENTED_EDGE('',*,*,#469,.F.);
#469 = EDGE_CURVE('',#441,#439,#470,.T.);
#470 = SURFACE_CURVE('',#471,(#476,#483),.PCURVE_S1.);
#471 = CIRCLE('',#472,1.3);
#472 = AXIS2_PLACEMENT_3D('',#473,#474,#475);
#473 = CARTESIAN_POINT('',(-17.695180006,-287.9200001131,300.69764772904
    ));
#474 = DIRECTION('',(-6.117577806758E-13,-2.326132195949E-02,
    0.999729418843));
#475 = DIRECTION('',(1.,-2.628507160223E-11,3.323573377762E-16));
#476 = PCURVE('',#310,#477);
#477 = DEFINITIONAL_REPRESENTATION('',(#478),#482);
#478 = CIRCLE('',#479,1.3);
#479 = AXIS2_PLACEMENT_2D('',#480,#481);
#480 = CARTESIAN_POINT('',(-3.499999937836,6.619085861757));
#481 = DIRECTION('',(1.,1.115453600742E-15));
#482 = ( GEOMETRIC_REPRESENTATION_CONTEXT(2) 
PARAMETRIC_REPRESENTATION_CONTEXT() REPRESENTATION_CONTEXT('2D SPACE',''
  ) );
#483 = PCURVE('',#457,#484);
#484 = DEFINITIONAL_REPRESENTATION('',(#485),#489);
#485 = LINE('',#486,#487);
#486 = CARTESIAN_POINT('',(7.853981634,-301.1401295848));
#487 = VECTOR('',#488,1.);
#488 = DIRECTION('',(-1.,0.));
#489 = ( GEOMETRIC_REPRESENTATION_CONTEXT(2) 
PARAMETRIC_REPRESENTATION_CONTEXT() REPRESENTATION_CONTEXT('2D SPACE',''
  ) );
#490 = ADVANCED_FACE('',(#491),#457,.F.);
#491 = FACE_BOUND('',#492,.F.);
#492 = EDGE_LOOP('',(#493,#494,#516,#540,#562,#563));
#493 = ORIENTED_EDGE('',*,*,#469,.F.);
#494 = ORIENTED_EDGE('',*,*,#495,.T.);
#495 = EDGE_CURVE('',#441,#496,#498,.T.);
#496 = VERTEX_POINT('',#497);
#497 = CARTESIAN_POINT('',(-18.99518000599,-287.8676621387,
    298.44825653665));
#498 = SEAM_CURVE('',#499,(#502,#509),.PCURVE_S1.);
#499 = B_SPLINE_CURVE_WITH_KNOTS('',1,(#500,#501),.UNSPECIFIED.,.F.,.F.,
  (2,2),(-301.1401295848,-298.8901295848),.PIECEWISE_BEZIER_KNOTS.);
#500 = CARTESIAN_POINT('',(-18.995180006,-287.9200001131,300.69764772904
    ));
#501 = CARTESIAN_POINT('',(-18.99518000599,-287.8676621387,
    298.44825653665));
#502 = PCURVE('',#457,#503);
#503 = DEFINITIONAL_REPRESENTATION('',(#504),#508);
#504 = LINE('',#505,#506);
#505 = CARTESIAN_POINT('',(4.712388980408,0.));
#506 = VECTOR('',#507,1.);
#507 = DIRECTION('',(0.,1.));
#508 = ( GEOMETRIC_REPRESENTATION_CONTEXT(2) 
PARAMETRIC_REPRESENTATION_CONTEXT() REPRESENTATION_CONTEXT('2D SPACE',''
  ) );
#509 = PCURVE('',#457,#510);
#510 = DEFINITIONAL_REPRESENTATION('',(#511),#515);
#511 = LINE('',#512,#513);
#512 = CARTESIAN_POINT('',(-1.570796326772,0.));
#513 = VECTOR('',#514,1.);
#514 = DIRECTION('',(0.,1.));
#515 = ( GEOMETRIC_REPRESENTATION_CONTEXT(2) 
PARAMETRIC_REPRESENTATION_CONTEXT() REPRESENTATION_CONTEXT('2D SPACE',''
  ) );
#516 = ORIENTED_EDGE('',*,*,#517,.F.);
#517 = EDGE_CURVE('',#518,#496,#520,.T.);
#518 = VERTEX_POINT('',#519);
#519 = CARTESIAN_POINT('',(-16.39518000599,-287.8676621387,
    298.44825653665));
#520 = SURFACE_CURVE('',#521,(#526,#533),.PCURVE_S1.);
#521 = CIRCLE('',#522,1.3);
#522 = AXIS2_PLACEMENT_3D('',#523,#524,#525);
#523 = CARTESIAN_POINT('',(-17.69518000599,-287.8676621387,
    298.44825653665));
#524 = DIRECTION('',(6.117577806758E-13,2.326132195949E-02,
    -0.999729418843));
#525 = DIRECTION('',(-1.,2.628507160223E-11,-3.323573377762E-16));
#526 = PCURVE('',#457,#527);
#527 = DEFINITIONAL_REPRESENTATION('',(#528),#532);
#528 = LINE('',#529,#530);
#529 = CARTESIAN_POINT('',(-1.57079632677,-298.8901295848));
#530 = VECTOR('',#531,1.);
#531 = DIRECTION('',(1.,0.));
#532 = ( GEOMETRIC_REPRESENTATION_CONTEXT(2) 
PARAMETRIC_REPRESENTATION_CONTEXT() REPRESENTATION_CONTEXT('2D SPACE',''
  ) );
#533 = PCURVE('',#125,#534);
#534 = DEFINITIONAL_REPRESENTATION('',(#535),#539);
#535 = CIRCLE('',#536,1.3);
#536 = AXIS2_PLACEMENT_2D('',#537,#538);
#537 = CARTESIAN_POINT('',(0.,0.));
#538 = DIRECTION('',(-1.115453817015E-15,-1.));
#539 = ( GEOMETRIC_REPRESENTATION_CONTEXT(2) 
PARAMETRIC_REPRESENTATION_CONTEXT() REPRESENTATION_CONTEXT('2D SPACE',''
  ) );
#540 = ORIENTED_EDGE('',*,*,#541,.F.);
#541 = EDGE_CURVE('',#496,#518,#542,.T.);
#542 = SURFACE_CURVE('',#543,(#548,#555),.PCURVE_S1.);
#543 = CIRCLE('',#544,1.3);
#544 = AXIS2_PLACEMENT_3D('',#545,#546,#547);
#545 = CARTESIAN_POINT('',(-17.69518000599,-287.8676621387,
    298.44825653665));
#546 = DIRECTION('',(6.117577806758E-13,2.326132195949E-02,
    -0.999729418843));
#547 = DIRECTION('',(-1.,2.628507160223E-11,-3.323573377762E-16));
#548 = PCURVE('',#457,#549);
#549 = DEFINITIONAL_REPRESENTATION('',(#550),#554);
#550 = LINE('',#551,#552);
#551 = CARTESIAN_POINT('',(-1.570796326768,-298.8901295848));
#552 = VECTOR('',#553,1.);
#553 = DIRECTION('',(1.,0.));
#554 = ( GEOMETRIC_REPRESENTATION_CONTEXT(2) 
PARAMETRIC_REPRESENTATION_CONTEXT() REPRESENTATION_CONTEXT('2D SPACE',''
  ) );
#555 = PCURVE('',#125,#556);
#556 = DEFINITIONAL_REPRESENTATION('',(#557),#561);
#557 = CIRCLE('',#558,1.3);
#558 = AXIS2_PLACEMENT_2D('',#559,#560);
#559 = CARTESIAN_POINT('',(0.,0.));
#560 = DIRECTION('',(-1.115453817015E-15,-1.));
#561 = ( GEOMETRIC_REPRESENTATION_CONTEXT(2) 
PARAMETRIC_REPRESENTATION_CONTEXT() REPRESENTATION_CONTEXT('2D SPACE',''
  ) );
#562 = ORIENTED_EDGE('',*,*,#495,.F.);
#563 = ORIENTED_EDGE('',*,*,#438,.F.);
#564 = ADVANCED_FACE('',(#565),#398,.T.);
#565 = FACE_BOUND('',#566,.T.);
#566 = EDGE_LOOP('',(#567,#588,#589,#612));
#567 = ORIENTED_EDGE('',*,*,#568,.F.);
#568 = EDGE_CURVE('',#378,#22,#569,.T.);
#569 = SURFACE_CURVE('',#570,(#574,#581),.PCURVE_S1.);
#570 = LINE('',#571,#572);
#571 = CARTESIAN_POINT('',(-21.695180006,-288.1235366802,309.44528014392
    ));
#572 = VECTOR('',#573,1.);
#573 = DIRECTION('',(6.117577806758E-13,2.326132195949E-02,
    -0.999729418843));
#574 = PCURVE('',#398,#575);
#575 = DEFINITIONAL_REPRESENTATION('',(#576),#580);
#576 = LINE('',#577,#578);
#577 = CARTESIAN_POINT('',(0.,7.993605777301E-14));
#578 = VECTOR('',#579,1.);
#579 = DIRECTION('',(0.,1.));
#580 = ( GEOMETRIC_REPRESENTATION_CONTEXT(2) 
PARAMETRIC_REPRESENTATION_CONTEXT() REPRESENTATION_CONTEXT('2D SPACE',''
  ) );
#581 = PCURVE('',#67,#582);
#582 = DEFINITIONAL_REPRESENTATION('',(#583),#587);
#583 = LINE('',#584,#585);
#584 = CARTESIAN_POINT('',(6.28318530718,7.993605777301E-14));
#585 = VECTOR('',#586,1.);
#586 = DIRECTION('',(0.,1.));
#587 = ( GEOMETRIC_REPRESENTATION_CONTEXT(2) 
PARAMETRIC_REPRESENTATION_CONTEXT() REPRESENTATION_CONTEXT('2D SPACE',''
  ) );
#588 = ORIENTED_EDGE('',*,*,#377,.T.);
#589 = ORIENTED_EDGE('',*,*,#590,.T.);
#590 = EDGE_CURVE('',#350,#591,#593,.T.);
#591 = VERTEX_POINT('',#592);
#592 = CARTESIAN_POINT('',(-17.69518000589,-283.8803751243,
    299.0411665339));
#593 = SURFACE_CURVE('',#594,(#598,#605),.PCURVE_S1.);
#594 = LINE('',#595,#596);
#595 = CARTESIAN_POINT('',(-17.6951800059,-284.1246190049,
    309.53832543176));
#596 = VECTOR('',#597,1.);
#597 = DIRECTION('',(6.117577806758E-13,2.326132195949E-02,
    -0.999729418843));
#598 = PCURVE('',#398,#599);
#599 = DEFINITIONAL_REPRESENTATION('',(#600),#604);
#600 = LINE('',#601,#602);
#601 = CARTESIAN_POINT('',(1.570796326795,-2.762234885267E-12));
#602 = VECTOR('',#603,1.);
#603 = DIRECTION('',(0.,1.));
#604 = ( GEOMETRIC_REPRESENTATION_CONTEXT(2) 
PARAMETRIC_REPRESENTATION_CONTEXT() REPRESENTATION_CONTEXT('2D SPACE',''
  ) );
#605 = PCURVE('',#365,#606);
#606 = DEFINITIONAL_REPRESENTATION('',(#607),#611);
#607 = LINE('',#608,#609);
#608 = CARTESIAN_POINT('',(0.,0.));
#609 = VECTOR('',#610,1.);
#610 = DIRECTION('',(-1.861863197615E-24,1.));
#611 = ( GEOMETRIC_REPRESENTATION_CONTEXT(2) 
PARAMETRIC_REPRESENTATION_CONTEXT() REPRESENTATION_CONTEXT('2D SPACE',''
  ) );
#612 = ORIENTED_EDGE('',*,*,#613,.T.);
#613 = EDGE_CURVE('',#591,#22,#614,.T.);
#614 = SURFACE_CURVE('',#615,(#620,#627),.PCURVE_S1.);
#615 = CIRCLE('',#616,4.);
#616 = AXIS2_PLACEMENT_3D('',#617,#618,#619);
#617 = CARTESIAN_POINT('',(-17.69518000599,-287.8792927997,
    298.94812124607));
#618 = DIRECTION('',(-6.117577806758E-13,-2.326132195949E-02,
    0.999729418843));
#619 = DIRECTION('',(-1.,2.628627191481E-11,-3.044289234982E-16));
#620 = PCURVE('',#398,#621);
#621 = DEFINITIONAL_REPRESENTATION('',(#622),#626);
#622 = LINE('',#623,#624);
#623 = CARTESIAN_POINT('',(6.28318530718,10.499999999996));
#624 = VECTOR('',#625,1.);
#625 = DIRECTION('',(-1.,0.));
#626 = ( GEOMETRIC_REPRESENTATION_CONTEXT(2) 
PARAMETRIC_REPRESENTATION_CONTEXT() REPRESENTATION_CONTEXT('2D SPACE',''
  ) );
#627 = PCURVE('',#96,#628);
#628 = DEFINITIONAL_REPRESENTATION('',(#629),#633);
#629 = LINE('',#630,#631);
#630 = CARTESIAN_POINT('',(6.28318530718,0.));
#631 = VECTOR('',#632,1.);
#632 = DIRECTION('',(-1.,0.));
#633 = ( GEOMETRIC_REPRESENTATION_CONTEXT(2) 
PARAMETRIC_REPRESENTATION_CONTEXT() REPRESENTATION_CONTEXT('2D SPACE',''
  ) );
#634 = ADVANCED_FACE('',(#635),#365,.T.);
#635 = FACE_BOUND('',#636,.T.);
#636 = EDGE_LOOP('',(#637,#660,#686,#687));
#637 = ORIENTED_EDGE('',*,*,#638,.T.);
#638 = EDGE_CURVE('',#327,#639,#641,.T.);
#639 = VERTEX_POINT('',#640);
#640 = CARTESIAN_POINT('',(-13.19518006805,-283.8803751244,
    299.0411665339));
#641 = SURFACE_CURVE('',#642,(#646,#653),.PCURVE_S1.);
#642 = LINE('',#643,#644);
#643 = CARTESIAN_POINT('',(-13.19518006806,-284.124619005,
    309.53832543176));
#644 = VECTOR('',#645,1.);
#645 = DIRECTION('',(6.117577806758E-13,2.326132195949E-02,
    -0.999729418843));
#646 = PCURVE('',#365,#647);
#647 = DEFINITIONAL_REPRESENTATION('',(#648),#652);
#648 = LINE('',#649,#650);
#649 = CARTESIAN_POINT('',(4.499999937836,-5.701423104131E-14));
#650 = VECTOR('',#651,1.);
#651 = DIRECTION('',(-1.861863197615E-24,1.));
#652 = ( GEOMETRIC_REPRESENTATION_CONTEXT(2) 
PARAMETRIC_REPRESENTATION_CONTEXT() REPRESENTATION_CONTEXT('2D SPACE',''
  ) );
#653 = PCURVE('',#208,#654);
#654 = DEFINITIONAL_REPRESENTATION('',(#655),#659);
#655 = LINE('',#656,#657);
#656 = CARTESIAN_POINT('',(5.500000000004,-4.000000000004));
#657 = VECTOR('',#658,1.);
#658 = DIRECTION('',(-1.,-1.607642375494E-23));
#659 = ( GEOMETRIC_REPRESENTATION_CONTEXT(2) 
PARAMETRIC_REPRESENTATION_CONTEXT() REPRESENTATION_CONTEXT('2D SPACE',''
  ) );
#660 = ORIENTED_EDGE('',*,*,#661,.T.);
#661 = EDGE_CURVE('',#639,#591,#662,.T.);
#662 = SURFACE_CURVE('',#663,(#667,#674),.PCURVE_S1.);
#663 = LINE('',#664,#665);
#664 = CARTESIAN_POINT('',(-17.69518000589,-283.8803751243,
    299.0411665339));
#665 = VECTOR('',#666,1.);
#666 = DIRECTION('',(-1.,2.630105178935E-11,3.946354604665E-17));
#667 = PCURVE('',#365,#668);
#668 = DEFINITIONAL_REPRESENTATION('',(#669),#673);
#669 = LINE('',#670,#671);
#670 = CARTESIAN_POINT('',(-4.264760073032E-13,10.500000000006));
#671 = VECTOR('',#672,1.);
#672 = DIRECTION('',(-1.,-3.88649679897E-25));
#673 = ( GEOMETRIC_REPRESENTATION_CONTEXT(2) 
PARAMETRIC_REPRESENTATION_CONTEXT() REPRESENTATION_CONTEXT('2D SPACE',''
  ) );
#674 = PCURVE('',#675,#680);
#675 = CYLINDRICAL_SURFACE('',#676,0.5);
#676 = AXIS2_PLACEMENT_3D('',#677,#678,#679);
#677 = CARTESIAN_POINT('',(-17.6951800059,-284.3802398337,
    299.02953587292));
#678 = DIRECTION('',(1.,-2.630105178935E-11,-3.946354604665E-17));
#679 = DIRECTION('',(-2.629393613831E-11,-0.999729418843,
    -2.326132195951E-02));
#680 = DEFINITIONAL_REPRESENTATION('',(#681),#685);
#681 = LINE('',#682,#683);
#682 = CARTESIAN_POINT('',(3.141592653591,-1.563194018672E-13));
#683 = VECTOR('',#684,1.);
#684 = DIRECTION('',(0.,-1.));
#685 = ( GEOMETRIC_REPRESENTATION_CONTEXT(2) 
PARAMETRIC_REPRESENTATION_CONTEXT() REPRESENTATION_CONTEXT('2D SPACE',''
  ) );
#686 = ORIENTED_EDGE('',*,*,#590,.F.);
#687 = ORIENTED_EDGE('',*,*,#349,.T.);
#688 = ADVANCED_FACE('',(#689),#675,.T.);
#689 = FACE_BOUND('',#690,.T.);
#690 = EDGE_LOOP('',(#691,#715,#738,#760));
#691 = ORIENTED_EDGE('',*,*,#692,.F.);
#692 = EDGE_CURVE('',#693,#639,#695,.T.);
#693 = VERTEX_POINT('',#694);
#694 = CARTESIAN_POINT('',(-13.19518006807,-284.3686091729,
    298.5296711635));
#695 = SURFACE_CURVE('',#696,(#701,#708),.PCURVE_S1.);
#696 = CIRCLE('',#697,0.5);
#697 = AXIS2_PLACEMENT_3D('',#698,#699,#700);
#698 = CARTESIAN_POINT('',(-13.19518006807,-284.3802398339,
    299.02953587292));
#699 = DIRECTION('',(1.,-2.628618675401E-11,3.064104139689E-16));
#700 = DIRECTION('',(-2.627906707968E-11,-0.999729418843,
    -2.326132195951E-02));
#701 = PCURVE('',#675,#702);
#702 = DEFINITIONAL_REPRESENTATION('',(#703),#707);
#703 = LINE('',#704,#705);
#704 = CARTESIAN_POINT('',(-3.290034911174E-12,4.499999937836));
#705 = VECTOR('',#706,1.);
#706 = DIRECTION('',(1.,-9.046911093926E-15));
#707 = ( GEOMETRIC_REPRESENTATION_CONTEXT(2) 
PARAMETRIC_REPRESENTATION_CONTEXT() REPRESENTATION_CONTEXT('2D SPACE',''
  ) );
#708 = PCURVE('',#208,#709);
#709 = DEFINITIONAL_REPRESENTATION('',(#710),#714);
#710 = CIRCLE('',#711,0.5);
#711 = AXIS2_PLACEMENT_2D('',#712,#713);
#712 = CARTESIAN_POINT('',(-5.000000000002,-3.500000000001));
#713 = DIRECTION('',(-1.999095332108E-14,1.));
#714 = ( GEOMETRIC_REPRESENTATION_CONTEXT(2) 
PARAMETRIC_REPRESENTATION_CONTEXT() REPRESENTATION_CONTEXT('2D SPACE',''
  ) );
#715 = ORIENTED_EDGE('',*,*,#716,.F.);
#716 = EDGE_CURVE('',#717,#693,#719,.T.);
#717 = VERTEX_POINT('',#718);
#718 = CARTESIAN_POINT('',(-17.6951800059,-284.3686091728,298.5296711635
    ));
#719 = SURFACE_CURVE('',#720,(#724,#731),.PCURVE_S1.);
#720 = LINE('',#721,#722);
#721 = CARTESIAN_POINT('',(-17.6951800059,-284.3686091728,298.5296711635
    ));
#722 = VECTOR('',#723,1.);
#723 = DIRECTION('',(1.,-2.630105178935E-11,-3.946354604665E-17));
#724 = PCURVE('',#675,#725);
#725 = DEFINITIONAL_REPRESENTATION('',(#726),#730);
#726 = LINE('',#727,#728);
#727 = CARTESIAN_POINT('',(1.570796326796,-2.984279490192E-13));
#728 = VECTOR('',#729,1.);
#729 = DIRECTION('',(0.,1.));
#730 = ( GEOMETRIC_REPRESENTATION_CONTEXT(2) 
PARAMETRIC_REPRESENTATION_CONTEXT() REPRESENTATION_CONTEXT('2D SPACE',''
  ) );
#731 = PCURVE('',#125,#732);
#732 = DEFINITIONAL_REPRESENTATION('',(#733),#737);
#733 = LINE('',#734,#735);
#734 = CARTESIAN_POINT('',(3.499999999998,2.433864662081E-14));
#735 = VECTOR('',#736,1.);
#736 = DIRECTION('',(-1.486905841076E-14,1.));
#737 = ( GEOMETRIC_REPRESENTATION_CONTEXT(2) 
PARAMETRIC_REPRESENTATION_CONTEXT() REPRESENTATION_CONTEXT('2D SPACE',''
  ) );
#738 = ORIENTED_EDGE('',*,*,#739,.F.);
#739 = EDGE_CURVE('',#591,#717,#740,.T.);
#740 = SURFACE_CURVE('',#741,(#746,#753),.PCURVE_S1.);
#741 = CIRCLE('',#742,0.5);
#742 = AXIS2_PLACEMENT_3D('',#743,#744,#745);
#743 = CARTESIAN_POINT('',(-17.6951800059,-284.3802398337,
    299.02953587292));
#744 = DIRECTION('',(-1.,2.630038360244E-11,-1.385762746362E-14));
#745 = DIRECTION('',(2.629294486749E-11,0.999729418843,
    2.326132195951E-02));
#746 = PCURVE('',#675,#747);
#747 = DEFINITIONAL_REPRESENTATION('',(#748),#752);
#748 = LINE('',#749,#750);
#749 = CARTESIAN_POINT('',(3.14159265359,0.));
#750 = VECTOR('',#751,1.);
#751 = DIRECTION('',(-1.,9.046911093945E-15));
#752 = ( GEOMETRIC_REPRESENTATION_CONTEXT(2) 
PARAMETRIC_REPRESENTATION_CONTEXT() REPRESENTATION_CONTEXT('2D SPACE',''
  ) );
#753 = PCURVE('',#96,#754);
#754 = DEFINITIONAL_REPRESENTATION('',(#755),#759);
#755 = LINE('',#756,#757);
#756 = CARTESIAN_POINT('',(1.570796326795,0.));
#757 = VECTOR('',#758,1.);
#758 = DIRECTION('',(5.654319433704E-16,1.));
#759 = ( GEOMETRIC_REPRESENTATION_CONTEXT(2) 
PARAMETRIC_REPRESENTATION_CONTEXT() REPRESENTATION_CONTEXT('2D SPACE',''
  ) );
#760 = ORIENTED_EDGE('',*,*,#661,.F.);
#761 = ADVANCED_FACE('',(#762,#790,#962),#208,.F.);
#762 = FACE_BOUND('',#763,.T.);
#763 = EDGE_LOOP('',(#764,#765,#766,#787,#788,#789));
#764 = ORIENTED_EDGE('',*,*,#273,.T.);
#765 = ORIENTED_EDGE('',*,*,#191,.T.);
#766 = ORIENTED_EDGE('',*,*,#767,.F.);
#767 = EDGE_CURVE('',#693,#169,#768,.T.);
#768 = SURFACE_CURVE('',#769,(#773,#780),.PCURVE_S1.);
#769 = LINE('',#770,#771);
#770 = CARTESIAN_POINT('',(-13.19518006826,-291.8665798142,
    298.35521124881));
#771 = VECTOR('',#772,1.);
#772 = DIRECTION('',(-2.62790670799E-11,-0.999729418843,
    -2.326132195949E-02));
#773 = PCURVE('',#208,#774);
#774 = DEFINITIONAL_REPRESENTATION('',(#775),#779);
#775 = LINE('',#776,#777);
#776 = CARTESIAN_POINT('',(-5.499999999994,4.000000000004));
#777 = VECTOR('',#778,1.);
#778 = DIRECTION('',(1.607642375494E-23,1.));
#779 = ( GEOMETRIC_REPRESENTATION_CONTEXT(2) 
PARAMETRIC_REPRESENTATION_CONTEXT() REPRESENTATION_CONTEXT('2D SPACE',''
  ) );
#780 = PCURVE('',#125,#781);
#781 = DEFINITIONAL_REPRESENTATION('',(#782),#786);
#782 = LINE('',#783,#784);
#783 = CARTESIAN_POINT('',(-4.000000000009,4.499999937836));
#784 = VECTOR('',#785,1.);
#785 = DIRECTION('',(-1.,1.615587133893E-26));
#786 = ( GEOMETRIC_REPRESENTATION_CONTEXT(2) 
PARAMETRIC_REPRESENTATION_CONTEXT() REPRESENTATION_CONTEXT('2D SPACE',''
  ) );
#787 = ORIENTED_EDGE('',*,*,#692,.T.);
#788 = ORIENTED_EDGE('',*,*,#638,.F.);
#789 = ORIENTED_EDGE('',*,*,#326,.F.);
#790 = FACE_BOUND('',#791,.T.);
#791 = EDGE_LOOP('',(#792,#822,#851,#879,#908,#936));
#792 = ORIENTED_EDGE('',*,*,#793,.F.);
#793 = EDGE_CURVE('',#794,#796,#798,.T.);
#794 = VERTEX_POINT('',#795);
#795 = CARTESIAN_POINT('',(-13.19518006806,-284.112988344,
    309.03846072234));
#796 = VERTEX_POINT('',#797);
#797 = CARTESIAN_POINT('',(-13.19518006806,-284.0722810306,
    307.28893423936));
#798 = SURFACE_CURVE('',#799,(#803,#810),.PCURVE_S1.);
#799 = LINE('',#800,#801);
#800 = CARTESIAN_POINT('',(-13.19518006806,-284.124619005,
    309.53832543176));
#801 = VECTOR('',#802,1.);
#802 = DIRECTION('',(6.117577806758E-13,2.326132195949E-02,
    -0.999729418843));
#803 = PCURVE('',#208,#804);
#804 = DEFINITIONAL_REPRESENTATION('',(#805),#809);
#805 = LINE('',#806,#807);
#806 = CARTESIAN_POINT('',(5.500000000004,-4.000000000004));
#807 = VECTOR('',#808,1.);
#808 = DIRECTION('',(-1.,-1.607642375494E-23));
#809 = ( GEOMETRIC_REPRESENTATION_CONTEXT(2) 
PARAMETRIC_REPRESENTATION_CONTEXT() REPRESENTATION_CONTEXT('2D SPACE',''
  ) );
#810 = PCURVE('',#811,#816);
#811 = PLANE('',#812);
#812 = AXIS2_PLACEMENT_3D('',#813,#814,#815);
#813 = CARTESIAN_POINT('',(-17.6951800059,-284.1246190049,
    309.53832543176));
#814 = DIRECTION('',(2.629393613853E-11,0.999729418843,
    2.326132195949E-02));
#815 = DIRECTION('',(1.,-2.630105178957E-11,-3.946355075754E-17));
#816 = DEFINITIONAL_REPRESENTATION('',(#817),#821);
#817 = LINE('',#818,#819);
#818 = CARTESIAN_POINT('',(4.499999937836,-5.701423104131E-14));
#819 = VECTOR('',#820,1.);
#820 = DIRECTION('',(-1.861863197615E-24,1.));
#821 = ( GEOMETRIC_REPRESENTATION_CONTEXT(2) 
PARAMETRIC_REPRESENTATION_CONTEXT() REPRESENTATION_CONTEXT('2D SPACE',''
  ) );
#822 = ORIENTED_EDGE('',*,*,#823,.T.);
#823 = EDGE_CURVE('',#794,#824,#826,.T.);
#824 = VERTEX_POINT('',#825);
#825 = CARTESIAN_POINT('',(-13.19518006807,-284.6244837144,
    309.52669477078));
#826 = SURFACE_CURVE('',#827,(#832,#839),.PCURVE_S1.);
#827 = CIRCLE('',#828,0.5);
#828 = AXIS2_PLACEMENT_3D('',#829,#830,#831);
#829 = CARTESIAN_POINT('',(-13.19518006807,-284.6128530534,
    309.02683006136));
#830 = DIRECTION('',(1.,-2.628618675401E-11,3.064104139689E-16));
#831 = DIRECTION('',(-2.627906707968E-11,-0.999729418843,
    -2.326132195951E-02));
#832 = PCURVE('',#208,#833);
#833 = DEFINITIONAL_REPRESENTATION('',(#834),#838);
#834 = CIRCLE('',#835,0.5);
#835 = AXIS2_PLACEMENT_2D('',#836,#837);
#836 = CARTESIAN_POINT('',(5.000000000005,-3.500000000006));
#837 = DIRECTION('',(-1.999095332108E-14,1.));
#838 = ( GEOMETRIC_REPRESENTATION_CONTEXT(2) 
PARAMETRIC_REPRESENTATION_CONTEXT() REPRESENTATION_CONTEXT('2D SPACE',''
  ) );
#839 = PCURVE('',#840,#845);
#840 = CYLINDRICAL_SURFACE('',#841,0.5);
#841 = AXIS2_PLACEMENT_3D('',#842,#843,#844);
#842 = CARTESIAN_POINT('',(-17.69518000591,-284.6128530533,
    309.02683006136));
#843 = DIRECTION('',(-1.,2.630105178935E-11,3.946354604665E-17));
#844 = DIRECTION('',(2.629393613831E-11,0.999729418843,
    2.326132195951E-02));
#845 = DEFINITIONAL_REPRESENTATION('',(#846),#850);
#846 = LINE('',#847,#848);
#847 = CARTESIAN_POINT('',(9.424777960769,-4.499999937836));
#848 = VECTOR('',#849,1.);
#849 = DIRECTION('',(-1.,9.046911093917E-15));
#850 = ( GEOMETRIC_REPRESENTATION_CONTEXT(2) 
PARAMETRIC_REPRESENTATION_CONTEXT() REPRESENTATION_CONTEXT('2D SPACE',''
  ) );
#851 = ORIENTED_EDGE('',*,*,#852,.T.);
#852 = EDGE_CURVE('',#824,#853,#855,.T.);
#853 = VERTEX_POINT('',#854);
#854 = CARTESIAN_POINT('',(-13.19518006826,-291.6225896463,
    309.36386551706));
#855 = SURFACE_CURVE('',#856,(#860,#867),.PCURVE_S1.);
#856 = LINE('',#857,#858);
#857 = CARTESIAN_POINT('',(-13.19518006827,-292.1224543558,
    309.35223485608));
#858 = VECTOR('',#859,1.);
#859 = DIRECTION('',(-2.62790670799E-11,-0.999729418843,
    -2.326132195949E-02));
#860 = PCURVE('',#208,#861);
#861 = DEFINITIONAL_REPRESENTATION('',(#862),#866);
#862 = LINE('',#863,#864);
#863 = CARTESIAN_POINT('',(5.5,4.));
#864 = VECTOR('',#865,1.);
#865 = DIRECTION('',(1.607642375494E-23,1.));
#866 = ( GEOMETRIC_REPRESENTATION_CONTEXT(2) 
PARAMETRIC_REPRESENTATION_CONTEXT() REPRESENTATION_CONTEXT('2D SPACE',''
  ) );
#867 = PCURVE('',#868,#873);
#868 = PLANE('',#869);
#869 = AXIS2_PLACEMENT_3D('',#870,#871,#872);
#870 = CARTESIAN_POINT('',(-17.695180006,-288.1235366803,309.44528014392
    ));
#871 = DIRECTION('',(6.117577806758E-13,2.326132195949E-02,
    -0.999729418843));
#872 = DIRECTION('',(2.62790670799E-11,0.999729418843,2.326132195949E-02
    ));
#873 = DEFINITIONAL_REPRESENTATION('',(#874),#878);
#874 = LINE('',#875,#876);
#875 = CARTESIAN_POINT('',(-3.999999999999,4.499999937837));
#876 = VECTOR('',#877,1.);
#877 = DIRECTION('',(-1.,1.615587133893E-26));
#878 = ( GEOMETRIC_REPRESENTATION_CONTEXT(2) 
PARAMETRIC_REPRESENTATION_CONTEXT() REPRESENTATION_CONTEXT('2D SPACE',''
  ) );
#879 = ORIENTED_EDGE('',*,*,#880,.T.);
#880 = EDGE_CURVE('',#853,#881,#883,.T.);
#881 = VERTEX_POINT('',#882);
#882 = CARTESIAN_POINT('',(-13.19518006827,-292.1108236948,
    308.85237014666));
#883 = SURFACE_CURVE('',#884,(#889,#896),.PCURVE_S1.);
#884 = CIRCLE('',#885,0.5);
#885 = AXIS2_PLACEMENT_3D('',#886,#887,#888);
#886 = CARTESIAN_POINT('',(-13.19518006826,-291.6109589854,
    308.86400080764));
#887 = DIRECTION('',(1.,-2.628618675401E-11,3.064104139689E-16));
#888 = DIRECTION('',(-2.627906707968E-11,-0.999729418843,
    -2.326132195951E-02));
#889 = PCURVE('',#208,#890);
#890 = DEFINITIONAL_REPRESENTATION('',(#891),#895);
#891 = CIRCLE('',#892,0.5);
#892 = AXIS2_PLACEMENT_2D('',#893,#894);
#893 = CARTESIAN_POINT('',(5.000000000002,3.500000000001));
#894 = DIRECTION('',(-1.999095332108E-14,1.));
#895 = ( GEOMETRIC_REPRESENTATION_CONTEXT(2) 
PARAMETRIC_REPRESENTATION_CONTEXT() REPRESENTATION_CONTEXT('2D SPACE',''
  ) );
#896 = PCURVE('',#897,#902);
#897 = CYLINDRICAL_SURFACE('',#898,0.5);
#898 = AXIS2_PLACEMENT_3D('',#899,#900,#901);
#899 = CARTESIAN_POINT('',(-90.69000000068,-291.6109589833,
    308.86400080764));
#900 = DIRECTION('',(1.,-2.628586393832E-11,-1.356762232597E-14));
#901 = DIRECTION('',(2.628586393832E-11,1.,0.));
#902 = DEFINITIONAL_REPRESENTATION('',(#903),#907);
#903 = LINE('',#904,#905);
#904 = CARTESIAN_POINT('',(-3.118329233375,77.494819932424));
#905 = VECTOR('',#906,1.);
#906 = DIRECTION('',(1.,0.));
#907 = ( GEOMETRIC_REPRESENTATION_CONTEXT(2) 
PARAMETRIC_REPRESENTATION_CONTEXT() REPRESENTATION_CONTEXT('2D SPACE',''
  ) );
#908 = ORIENTED_EDGE('',*,*,#909,.T.);
#909 = EDGE_CURVE('',#881,#910,#912,.T.);
#910 = VERTEX_POINT('',#911);
#911 = CARTESIAN_POINT('',(-13.19518006827,-292.0701163813,
    307.10284366369));
#912 = SURFACE_CURVE('',#913,(#917,#924),.PCURVE_S1.);
#913 = LINE('',#914,#915);
#914 = CARTESIAN_POINT('',(-13.19518006827,-292.1224543558,
    309.35223485608));
#915 = VECTOR('',#916,1.);
#916 = DIRECTION('',(6.117577806758E-13,2.326132195949E-02,
    -0.999729418843));
#917 = PCURVE('',#208,#918);
#918 = DEFINITIONAL_REPRESENTATION('',(#919),#923);
#919 = LINE('',#920,#921);
#920 = CARTESIAN_POINT('',(5.5,4.));
#921 = VECTOR('',#922,1.);
#922 = DIRECTION('',(-1.,-1.607642375494E-23));
#923 = ( GEOMETRIC_REPRESENTATION_CONTEXT(2) 
PARAMETRIC_REPRESENTATION_CONTEXT() REPRESENTATION_CONTEXT('2D SPACE',''
  ) );
#924 = PCURVE('',#925,#930);
#925 = PLANE('',#926);
#926 = AXIS2_PLACEMENT_3D('',#927,#928,#929);
#927 = CARTESIAN_POINT('',(-14.19518006827,-292.1224543557,
    309.35223485608));
#928 = DIRECTION('',(-2.62790670799E-11,-0.999729418843,
    -2.326132195949E-02));
#929 = DIRECTION('',(-1.,2.628618675423E-11,-3.064104107434E-16));
#930 = DEFINITIONAL_REPRESENTATION('',(#931),#935);
#931 = LINE('',#932,#933);
#932 = CARTESIAN_POINT('',(-1.,-1.133576983819E-13));
#933 = VECTOR('',#934,1.);
#934 = DIRECTION('',(3.33638937988E-24,1.));
#935 = ( GEOMETRIC_REPRESENTATION_CONTEXT(2) 
PARAMETRIC_REPRESENTATION_CONTEXT() REPRESENTATION_CONTEXT('2D SPACE',''
  ) );
#936 = ORIENTED_EDGE('',*,*,#937,.T.);
#937 = EDGE_CURVE('',#910,#796,#938,.T.);
#938 = SURFACE_CURVE('',#939,(#943,#950),.PCURVE_S1.);
#939 = LINE('',#940,#941);
#940 = CARTESIAN_POINT('',(-13.19518006834,-294.6884935678,
    307.04192026422));
#941 = VECTOR('',#942,1.);
#942 = DIRECTION('',(2.629393613853E-11,0.999729418843,
    2.326132195949E-02));
#943 = PCURVE('',#208,#944);
#944 = DEFINITIONAL_REPRESENTATION('',(#945),#949);
#945 = LINE('',#946,#947);
#946 = CARTESIAN_POINT('',(3.250000000007,6.61908586175));
#947 = VECTOR('',#948,1.);
#948 = DIRECTION('',(-1.607642375494E-23,-1.));
#949 = ( GEOMETRIC_REPRESENTATION_CONTEXT(2) 
PARAMETRIC_REPRESENTATION_CONTEXT() REPRESENTATION_CONTEXT('2D SPACE',''
  ) );
#950 = PCURVE('',#951,#956);
#951 = PLANE('',#952);
#952 = AXIS2_PLACEMENT_3D('',#953,#954,#955);
#953 = CARTESIAN_POINT('',(-14.19518006834,-294.6884935678,
    307.04192026422));
#954 = DIRECTION('',(6.117577806758E-13,2.326132195949E-02,
    -0.999729418843));
#955 = DIRECTION('',(2.62790670799E-11,0.999729418843,2.326132195949E-02
    ));
#956 = DEFINITIONAL_REPRESENTATION('',(#957),#961);
#957 = LINE('',#958,#959);
#958 = CARTESIAN_POINT('',(6.283116179302E-12,1.));
#959 = VECTOR('',#960,1.);
#960 = DIRECTION('',(1.,1.486905862998E-14));
#961 = ( GEOMETRIC_REPRESENTATION_CONTEXT(2) 
PARAMETRIC_REPRESENTATION_CONTEXT() REPRESENTATION_CONTEXT('2D SPACE',''
  ) );
#962 = FACE_BOUND('',#963,.T.);
#963 = EDGE_LOOP('',(#964,#999));
#964 = ORIENTED_EDGE('',*,*,#965,.F.);
#965 = EDGE_CURVE('',#966,#968,#970,.T.);
#966 = VERTEX_POINT('',#967);
#967 = CARTESIAN_POINT('',(-13.19518006834,-294.6937865159,
    303.79091748316));
#968 = VERTEX_POINT('',#969);
#969 = CARTESIAN_POINT('',(-13.19518006799,-281.2974123034,
    304.10261919741));
#970 = SURFACE_CURVE('',#971,(#976,#983),.PCURVE_S1.);
#971 = CIRCLE('',#972,6.7);
#972 = AXIS2_PLACEMENT_3D('',#973,#974,#975);
#973 = CARTESIAN_POINT('',(-13.19518006816,-287.9955994096,
    303.94676834028));
#974 = DIRECTION('',(1.,-2.628618675401E-11,3.064104139691E-16));
#975 = DIRECTION('',(-2.627906707968E-11,-0.999729418843,
    -2.326132195949E-02));
#976 = PCURVE('',#208,#977);
#977 = DEFINITIONAL_REPRESENTATION('',(#978),#982);
#978 = CIRCLE('',#979,6.7);
#979 = AXIS2_PLACEMENT_2D('',#980,#981);
#980 = CARTESIAN_POINT('',(0.,0.));
#981 = DIRECTION('',(1.607642375494E-23,1.));
#982 = ( GEOMETRIC_REPRESENTATION_CONTEXT(2) 
PARAMETRIC_REPRESENTATION_CONTEXT() REPRESENTATION_CONTEXT('2D SPACE',''
  ) );
#983 = PCURVE('',#984,#989);
#984 = PLANE('',#985);
#985 = AXIS2_PLACEMENT_3D('',#986,#987,#988);
#986 = CARTESIAN_POINT('',(-13.19518006816,-287.9955994096,
    303.94676834028));
#987 = DIRECTION('',(-1.,2.628660797297E-11,-8.255986195385E-16));
#988 = DIRECTION('',(-2.628660797297E-11,-1.,0.));
#989 = DEFINITIONAL_REPRESENTATION('',(#990),#998);
#990 = ( BOUNDED_CURVE() B_SPLINE_CURVE(2,(#991,#992,#993,#994,#995,#996
,#997),.UNSPECIFIED.,.T.,.F.) B_SPLINE_CURVE_WITH_KNOTS((1,2,2,2,2,1),(
    -2.094395102393,0.,2.094395102393,4.188790204786,6.28318530718,
8.377580409573),.UNSPECIFIED.) CURVE() GEOMETRIC_REPRESENTATION_ITEM() 
RATIONAL_B_SPLINE_CURVE((1.,0.5,1.,0.5,1.,0.5,1.)) REPRESENTATION_ITEM(
  '') );
#991 = CARTESIAN_POINT('',(6.69818710625,-0.155850857129));
#992 = CARTESIAN_POINT('',(6.4282455033,-11.75745124375));
#993 = CARTESIAN_POINT('',(-3.4840643546,-5.72287476475));
#994 = CARTESIAN_POINT('',(-13.3963742125,0.311701714257));
#995 = CARTESIAN_POINT('',(-3.21412275165,5.878725621878));
#996 = CARTESIAN_POINT('',(6.9681287092,11.445749529499));
#997 = CARTESIAN_POINT('',(6.69818710625,-0.155850857129));
#998 = ( GEOMETRIC_REPRESENTATION_CONTEXT(2) 
PARAMETRIC_REPRESENTATION_CONTEXT() REPRESENTATION_CONTEXT('2D SPACE',''
  ) );
#999 = ORIENTED_EDGE('',*,*,#1000,.F.);
#1000 = EDGE_CURVE('',#968,#966,#1001,.T.);
#1001 = SURFACE_CURVE('',#1002,(#1007,#1014),.PCURVE_S1.);
#1002 = CIRCLE('',#1003,6.7);
#1003 = AXIS2_PLACEMENT_3D('',#1004,#1005,#1006);
#1004 = CARTESIAN_POINT('',(-13.19518006816,-287.9955994096,
    303.94676834028));
#1005 = DIRECTION('',(1.,-2.628618675401E-11,3.064104139691E-16));
#1006 = DIRECTION('',(-2.627906707968E-11,-0.999729418843,
    -2.326132195949E-02));
#1007 = PCURVE('',#208,#1008);
#1008 = DEFINITIONAL_REPRESENTATION('',(#1009),#1013);
#1009 = CIRCLE('',#1010,6.7);
#1010 = AXIS2_PLACEMENT_2D('',#1011,#1012);
#1011 = CARTESIAN_POINT('',(0.,0.));
#1012 = DIRECTION('',(1.607642375494E-23,1.));
#1013 = ( GEOMETRIC_REPRESENTATION_CONTEXT(2) 
PARAMETRIC_REPRESENTATION_CONTEXT() REPRESENTATION_CONTEXT('2D SPACE',''
  ) );
#1014 = PCURVE('',#984,#1015);
#1015 = DEFINITIONAL_REPRESENTATION('',(#1016),#1024);
#1016 = ( BOUNDED_CURVE() B_SPLINE_CURVE(2,(#1017,#1018,#1019,#1020,
#1021,#1022,#1023),.UNSPECIFIED.,.T.,.F.) B_SPLINE_CURVE_WITH_KNOTS((1,2
    ,2,2,2,1),(-2.094395102393,0.,2.094395102393,4.188790204786,
6.28318530718,8.377580409573),.UNSPECIFIED.) CURVE() 
GEOMETRIC_REPRESENTATION_ITEM() RATIONAL_B_SPLINE_CURVE((1.,0.5,1.,0.5,
1.,0.5,1.)) REPRESENTATION_ITEM('') );
#1017 = CARTESIAN_POINT('',(6.69818710625,-0.155850857129));
#1018 = CARTESIAN_POINT('',(6.4282455033,-11.75745124375));
#1019 = CARTESIAN_POINT('',(-3.4840643546,-5.72287476475));
#1020 = CARTESIAN_POINT('',(-13.3963742125,0.311701714257));
#1021 = CARTESIAN_POINT('',(-3.21412275165,5.878725621878));
#1022 = CARTESIAN_POINT('',(6.9681287092,11.445749529499));
#1023 = CARTESIAN_POINT('',(6.69818710625,-0.155850857129));
#1024 = ( GEOMETRIC_REPRESENTATION_CONTEXT(2) 
PARAMETRIC_REPRESENTATION_CONTEXT() REPRESENTATION_CONTEXT('2D SPACE',''
  ) );
#1025 = ADVANCED_FACE('',(#1026),#984,.F.);
#1026 = FACE_BOUND('',#1027,.F.);
#1027 = EDGE_LOOP('',(#1028,#1029));
#1028 = ORIENTED_EDGE('',*,*,#965,.F.);
#1029 = ORIENTED_EDGE('',*,*,#1000,.F.);
#1030 = ADVANCED_FACE('',(#1031,#1099),#951,.T.);
#1031 = FACE_BOUND('',#1032,.T.);
#1032 = EDGE_LOOP('',(#1033,#1068));
#1033 = ORIENTED_EDGE('',*,*,#1034,.T.);
#1034 = EDGE_CURVE('',#1035,#1037,#1039,.T.);
#1035 = VERTEX_POINT('',#1036);
#1036 = CARTESIAN_POINT('',(-18.695180006,-288.0711987058,
    307.19588895152));
#1037 = VERTEX_POINT('',#1038);
#1038 = CARTESIAN_POINT('',(-16.695180006,-288.0711987059,
    307.19588895152));
#1039 = SURFACE_CURVE('',#1040,(#1045,#1056),.PCURVE_S1.);
#1040 = CIRCLE('',#1041,1.);
#1041 = AXIS2_PLACEMENT_3D('',#1042,#1043,#1044);
#1042 = CARTESIAN_POINT('',(-17.695180006,-288.0711987059,
    307.19588895152));
#1043 = DIRECTION('',(-6.117577806758E-13,-2.326132195949E-02,
    0.999729418843));
#1044 = DIRECTION('',(-1.,2.628453812998E-11,-3.44769966163E-16));
#1045 = PCURVE('',#951,#1046);
#1046 = DEFINITIONAL_REPRESENTATION('',(#1047),#1055);
#1047 = ( BOUNDED_CURVE() B_SPLINE_CURVE(2,(#1048,#1049,#1050,#1051,
#1052,#1053,#1054),.UNSPECIFIED.,.T.,.F.) B_SPLINE_CURVE_WITH_KNOTS((1,2
    ,2,2,2,1),(-2.094395102393,0.,2.094395102393,4.188790204786,
6.28318530718,8.377580409573),.UNSPECIFIED.) CURVE() 
GEOMETRIC_REPRESENTATION_ITEM() RATIONAL_B_SPLINE_CURVE((1.,0.5,1.,0.5,
1.,0.5,1.)) REPRESENTATION_ITEM('') );
#1048 = CARTESIAN_POINT('',(6.619085861757,-4.499999937836));
#1049 = CARTESIAN_POINT('',(4.887035054188,-4.499999937836));
#1050 = CARTESIAN_POINT('',(5.753060457972,-2.999999937836));
#1051 = CARTESIAN_POINT('',(6.619085861757,-1.499999937836));
#1052 = CARTESIAN_POINT('',(7.485111265541,-2.999999937836));
#1053 = CARTESIAN_POINT('',(8.351136669326,-4.499999937836));
#1054 = CARTESIAN_POINT('',(6.619085861757,-4.499999937836));
#1055 = ( GEOMETRIC_REPRESENTATION_CONTEXT(2) 
PARAMETRIC_REPRESENTATION_CONTEXT() REPRESENTATION_CONTEXT('2D SPACE',''
  ) );
#1056 = PCURVE('',#1057,#1062);
#1057 = CYLINDRICAL_SURFACE('',#1058,1.);
#1058 = AXIS2_PLACEMENT_3D('',#1059,#1060,#1061);
#1059 = CARTESIAN_POINT('',(-17.695180006,-288.1235366803,
    309.44528014392));
#1060 = DIRECTION('',(6.117577806758E-13,2.326132195949E-02,
    -0.999729418843));
#1061 = DIRECTION('',(-1.,2.628453812998E-11,-3.44769966163E-16));
#1062 = DEFINITIONAL_REPRESENTATION('',(#1063),#1067);
#1063 = LINE('',#1064,#1065);
#1064 = CARTESIAN_POINT('',(6.28318530718,2.250000000003));
#1065 = VECTOR('',#1066,1.);
#1066 = DIRECTION('',(-1.,-1.809382218784E-14));
#1067 = ( GEOMETRIC_REPRESENTATION_CONTEXT(2) 
PARAMETRIC_REPRESENTATION_CONTEXT() REPRESENTATION_CONTEXT('2D SPACE',''
  ) );
#1068 = ORIENTED_EDGE('',*,*,#1069,.T.);
#1069 = EDGE_CURVE('',#1037,#1035,#1070,.T.);
#1070 = SURFACE_CURVE('',#1071,(#1076,#1087),.PCURVE_S1.);
#1071 = CIRCLE('',#1072,1.);
#1072 = AXIS2_PLACEMENT_3D('',#1073,#1074,#1075);
#1073 = CARTESIAN_POINT('',(-17.695180006,-288.0711987059,
    307.19588895152));
#1074 = DIRECTION('',(-6.117577806758E-13,-2.326132195949E-02,
    0.999729418843));
#1075 = DIRECTION('',(-1.,2.628453812998E-11,-3.44769966163E-16));
#1076 = PCURVE('',#951,#1077);
#1077 = DEFINITIONAL_REPRESENTATION('',(#1078),#1086);
#1078 = ( BOUNDED_CURVE() B_SPLINE_CURVE(2,(#1079,#1080,#1081,#1082,
#1083,#1084,#1085),.UNSPECIFIED.,.T.,.F.) B_SPLINE_CURVE_WITH_KNOTS((1,2
    ,2,2,2,1),(-2.094395102393,0.,2.094395102393,4.188790204786,
6.28318530718,8.377580409573),.UNSPECIFIED.) CURVE() 
GEOMETRIC_REPRESENTATION_ITEM() RATIONAL_B_SPLINE_CURVE((1.,0.5,1.,0.5,
1.,0.5,1.)) REPRESENTATION_ITEM('') );
#1079 = CARTESIAN_POINT('',(6.619085861757,-4.499999937836));
#1080 = CARTESIAN_POINT('',(4.887035054188,-4.499999937836));
#1081 = CARTESIAN_POINT('',(5.753060457972,-2.999999937836));
#1082 = CARTESIAN_POINT('',(6.619085861757,-1.499999937836));
#1083 = CARTESIAN_POINT('',(7.485111265541,-2.999999937836));
#1084 = CARTESIAN_POINT('',(8.351136669326,-4.499999937836));
#1085 = CARTESIAN_POINT('',(6.619085861757,-4.499999937836));
#1086 = ( GEOMETRIC_REPRESENTATION_CONTEXT(2) 
PARAMETRIC_REPRESENTATION_CONTEXT() REPRESENTATION_CONTEXT('2D SPACE',''
  ) );
#1087 = PCURVE('',#1088,#1093);
#1088 = CYLINDRICAL_SURFACE('',#1089,1.);
#1089 = AXIS2_PLACEMENT_3D('',#1090,#1091,#1092);
#1090 = CARTESIAN_POINT('',(-17.695180006,-288.1235366803,
    309.44528014392));
#1091 = DIRECTION('',(6.117577806758E-13,2.326132195949E-02,
    -0.999729418843));
#1092 = DIRECTION('',(-1.,2.628453812998E-11,-3.44769966163E-16));
#1093 = DEFINITIONAL_REPRESENTATION('',(#1094),#1098);
#1094 = LINE('',#1095,#1096);
#1095 = CARTESIAN_POINT('',(6.283185307178,2.250000000003));
#1096 = VECTOR('',#1097,1.);
#1097 = DIRECTION('',(-1.,0.));
#1098 = ( GEOMETRIC_REPRESENTATION_CONTEXT(2) 
PARAMETRIC_REPRESENTATION_CONTEXT() REPRESENTATION_CONTEXT('2D SPACE',''
  ) );
#1099 = FACE_BOUND('',#1100,.T.);
#1100 = EDGE_LOOP('',(#1101,#1124,#1125,#1148,#1181));
#1101 = ORIENTED_EDGE('',*,*,#1102,.F.);
#1102 = EDGE_CURVE('',#796,#1103,#1105,.T.);
#1103 = VERTEX_POINT('',#1104);
#1104 = CARTESIAN_POINT('',(-17.69518000589,-284.0722810305,
    307.28893423936));
#1105 = SURFACE_CURVE('',#1106,(#1110,#1117),.PCURVE_S1.);
#1106 = LINE('',#1107,#1108);
#1107 = CARTESIAN_POINT('',(-14.19518006806,-284.0722810306,
    307.28893423936));
#1108 = VECTOR('',#1109,1.);
#1109 = DIRECTION('',(-1.,2.630105178935E-11,3.946354604665E-17));
#1110 = PCURVE('',#951,#1111);
#1111 = DEFINITIONAL_REPRESENTATION('',(#1112),#1116);
#1112 = LINE('',#1113,#1114);
#1113 = CARTESIAN_POINT('',(10.619085861756,-5.79590647057E-14));
#1114 = VECTOR('',#1115,1.);
#1115 = DIRECTION('',(1.486905841076E-14,-1.));
#1116 = ( GEOMETRIC_REPRESENTATION_CONTEXT(2) 
PARAMETRIC_REPRESENTATION_CONTEXT() REPRESENTATION_CONTEXT('2D SPACE',''
  ) );
#1117 = PCURVE('',#811,#1118);
#1118 = DEFINITIONAL_REPRESENTATION('',(#1119),#1123);
#1119 = LINE('',#1120,#1121);
#1120 = CARTESIAN_POINT('',(3.499999937836,2.250000000002));
#1121 = VECTOR('',#1122,1.);
#1122 = DIRECTION('',(-1.,-3.88649679897E-25));
#1123 = ( GEOMETRIC_REPRESENTATION_CONTEXT(2) 
PARAMETRIC_REPRESENTATION_CONTEXT() REPRESENTATION_CONTEXT('2D SPACE',''
  ) );
#1124 = ORIENTED_EDGE('',*,*,#937,.F.);
#1125 = ORIENTED_EDGE('',*,*,#1126,.F.);
#1126 = EDGE_CURVE('',#1127,#910,#1129,.T.);
#1127 = VERTEX_POINT('',#1128);
#1128 = CARTESIAN_POINT('',(-17.6951800061,-292.0701163812,
    307.10284366369));
#1129 = SURFACE_CURVE('',#1130,(#1134,#1141),.PCURVE_S1.);
#1130 = LINE('',#1131,#1132);
#1131 = CARTESIAN_POINT('',(-14.19518006827,-292.0701163813,
    307.10284366369));
#1132 = VECTOR('',#1133,1.);
#1133 = DIRECTION('',(1.,-2.628618675401E-11,3.064104139678E-16));
#1134 = PCURVE('',#951,#1135);
#1135 = DEFINITIONAL_REPRESENTATION('',(#1136),#1140);
#1136 = LINE('',#1137,#1138);
#1137 = CARTESIAN_POINT('',(2.619085861762,1.665665930506E-13));
#1138 = VECTOR('',#1139,1.);
#1139 = DIRECTION('',(2.163206548797E-22,1.));
#1140 = ( GEOMETRIC_REPRESENTATION_CONTEXT(2) 
PARAMETRIC_REPRESENTATION_CONTEXT() REPRESENTATION_CONTEXT('2D SPACE',''
  ) );
#1141 = PCURVE('',#925,#1142);
#1142 = DEFINITIONAL_REPRESENTATION('',(#1143),#1147);
#1143 = LINE('',#1144,#1145);
#1144 = CARTESIAN_POINT('',(3.816951764593E-13,2.249999999993));
#1145 = VECTOR('',#1146,1.);
#1146 = DIRECTION('',(-1.,1.80774102863E-24));
#1147 = ( GEOMETRIC_REPRESENTATION_CONTEXT(2) 
PARAMETRIC_REPRESENTATION_CONTEXT() REPRESENTATION_CONTEXT('2D SPACE',''
  ) );
#1148 = ORIENTED_EDGE('',*,*,#1149,.F.);
#1149 = EDGE_CURVE('',#1150,#1127,#1152,.T.);
#1150 = VERTEX_POINT('',#1151);
#1151 = CARTESIAN_POINT('',(-21.695180006,-288.0711987057,
    307.19588895152));
#1152 = SURFACE_CURVE('',#1153,(#1158,#1169),.PCURVE_S1.);
#1153 = CIRCLE('',#1154,4.);
#1154 = AXIS2_PLACEMENT_3D('',#1155,#1156,#1157);
#1155 = CARTESIAN_POINT('',(-17.695180006,-288.0711987059,
    307.19588895152));
#1156 = DIRECTION('',(-6.117577806758E-13,-2.326132195949E-02,
    0.999729418843));
#1157 = DIRECTION('',(-1.,2.628627191481E-11,-3.044289234982E-16));
#1158 = PCURVE('',#951,#1159);
#1159 = DEFINITIONAL_REPRESENTATION('',(#1160),#1168);
#1160 = ( BOUNDED_CURVE() B_SPLINE_CURVE(2,(#1161,#1162,#1163,#1164,
#1165,#1166,#1167),.UNSPECIFIED.,.T.,.F.) B_SPLINE_CURVE_WITH_KNOTS((1,2
    ,2,2,2,1),(-2.094395102393,0.,2.094395102393,4.188790204786,
6.28318530718,8.377580409573),.UNSPECIFIED.) CURVE() 
GEOMETRIC_REPRESENTATION_ITEM() RATIONAL_B_SPLINE_CURVE((1.,0.5,1.,0.5,
1.,0.5,1.)) REPRESENTATION_ITEM('') );
#1161 = CARTESIAN_POINT('',(6.619085861757,-7.499999937836));
#1162 = CARTESIAN_POINT('',(-0.309117368519,-7.499999937836));
#1163 = CARTESIAN_POINT('',(3.154984246619,-1.499999937836));
#1164 = CARTESIAN_POINT('',(6.619085861757,4.500000062164));
#1165 = CARTESIAN_POINT('',(10.083187476895,-1.499999937836));
#1166 = CARTESIAN_POINT('',(13.547289092032,-7.499999937836));
#1167 = CARTESIAN_POINT('',(6.619085861757,-7.499999937836));
#1168 = ( GEOMETRIC_REPRESENTATION_CONTEXT(2) 
PARAMETRIC_REPRESENTATION_CONTEXT() REPRESENTATION_CONTEXT('2D SPACE',''
  ) );
#1169 = PCURVE('',#1170,#1175);
#1170 = CYLINDRICAL_SURFACE('',#1171,4.);
#1171 = AXIS2_PLACEMENT_3D('',#1172,#1173,#1174);
#1172 = CARTESIAN_POINT('',(-17.695180006,-288.1235366803,
    309.44528014392));
#1173 = DIRECTION('',(6.117577806758E-13,2.326132195949E-02,
    -0.999729418843));
#1174 = DIRECTION('',(-1.,2.628627191481E-11,-3.044289234982E-16));
#1175 = DEFINITIONAL_REPRESENTATION('',(#1176),#1180);
#1176 = LINE('',#1177,#1178);
#1177 = CARTESIAN_POINT('',(6.28318530718,2.250000000003));
#1178 = VECTOR('',#1179,1.);
#1179 = DIRECTION('',(-1.,3.618764437576E-14));
#1180 = ( GEOMETRIC_REPRESENTATION_CONTEXT(2) 
PARAMETRIC_REPRESENTATION_CONTEXT() REPRESENTATION_CONTEXT('2D SPACE',''
  ) );
#1181 = ORIENTED_EDGE('',*,*,#1182,.F.);
#1182 = EDGE_CURVE('',#1103,#1150,#1183,.T.);
#1183 = SURFACE_CURVE('',#1184,(#1189,#1200),.PCURVE_S1.);
#1184 = CIRCLE('',#1185,4.);
#1185 = AXIS2_PLACEMENT_3D('',#1186,#1187,#1188);
#1186 = CARTESIAN_POINT('',(-17.695180006,-288.0711987059,
    307.19588895152));
#1187 = DIRECTION('',(-6.117577806758E-13,-2.326132195949E-02,
    0.999729418843));
#1188 = DIRECTION('',(-1.,2.628627191481E-11,-3.044289234982E-16));
#1189 = PCURVE('',#951,#1190);
#1190 = DEFINITIONAL_REPRESENTATION('',(#1191),#1199);
#1191 = ( BOUNDED_CURVE() B_SPLINE_CURVE(2,(#1192,#1193,#1194,#1195,
#1196,#1197,#1198),.UNSPECIFIED.,.T.,.F.) B_SPLINE_CURVE_WITH_KNOTS((1,2
    ,2,2,2,1),(-2.094395102393,0.,2.094395102393,4.188790204786,
6.28318530718,8.377580409573),.UNSPECIFIED.) CURVE() 
GEOMETRIC_REPRESENTATION_ITEM() RATIONAL_B_SPLINE_CURVE((1.,0.5,1.,0.5,
1.,0.5,1.)) REPRESENTATION_ITEM('') );
#1192 = CARTESIAN_POINT('',(6.619085861757,-7.499999937836));
#1193 = CARTESIAN_POINT('',(-0.309117368519,-7.499999937836));
#1194 = CARTESIAN_POINT('',(3.154984246619,-1.499999937836));
#1195 = CARTESIAN_POINT('',(6.619085861757,4.500000062164));
#1196 = CARTESIAN_POINT('',(10.083187476895,-1.499999937836));
#1197 = CARTESIAN_POINT('',(13.547289092032,-7.499999937836));
#1198 = CARTESIAN_POINT('',(6.619085861757,-7.499999937836));
#1199 = ( GEOMETRIC_REPRESENTATION_CONTEXT(2) 
PARAMETRIC_REPRESENTATION_CONTEXT() REPRESENTATION_CONTEXT('2D SPACE',''
  ) );
#1200 = PCURVE('',#1201,#1206);
#1201 = CYLINDRICAL_SURFACE('',#1202,4.);
#1202 = AXIS2_PLACEMENT_3D('',#1203,#1204,#1205);
#1203 = CARTESIAN_POINT('',(-17.695180006,-288.1235366803,
    309.44528014392));
#1204 = DIRECTION('',(6.117577806758E-13,2.326132195949E-02,
    -0.999729418843));
#1205 = DIRECTION('',(-1.,2.628627191481E-11,-3.044289234982E-16));
#1206 = DEFINITIONAL_REPRESENTATION('',(#1207),#1211);
#1207 = LINE('',#1208,#1209);
#1208 = CARTESIAN_POINT('',(6.28318530718,2.250000000003));
#1209 = VECTOR('',#1210,1.);
#1210 = DIRECTION('',(-1.,0.));
#1211 = ( GEOMETRIC_REPRESENTATION_CONTEXT(2) 
PARAMETRIC_REPRESENTATION_CONTEXT() REPRESENTATION_CONTEXT('2D SPACE',''
  ) );
#1212 = ADVANCED_FACE('',(#1213),#1201,.T.);
#1213 = FACE_BOUND('',#1214,.T.);
#1214 = EDGE_LOOP('',(#1215,#1238,#1267,#1288));
#1215 = ORIENTED_EDGE('',*,*,#1216,.F.);
#1216 = EDGE_CURVE('',#1217,#1150,#1219,.T.);
#1217 = VERTEX_POINT('',#1218);
#1218 = CARTESIAN_POINT('',(-21.695180006,-288.1119060192,308.9454154345
    ));
#1219 = SURFACE_CURVE('',#1220,(#1224,#1231),.PCURVE_S1.);
#1220 = LINE('',#1221,#1222);
#1221 = CARTESIAN_POINT('',(-21.695180006,-288.1235366802,
    309.44528014392));
#1222 = VECTOR('',#1223,1.);
#1223 = DIRECTION('',(6.117577806758E-13,2.326132195949E-02,
    -0.999729418843));
#1224 = PCURVE('',#1201,#1225);
#1225 = DEFINITIONAL_REPRESENTATION('',(#1226),#1230);
#1226 = LINE('',#1227,#1228);
#1227 = CARTESIAN_POINT('',(0.,1.256217352363E-13));
#1228 = VECTOR('',#1229,1.);
#1229 = DIRECTION('',(0.,1.));
#1230 = ( GEOMETRIC_REPRESENTATION_CONTEXT(2) 
PARAMETRIC_REPRESENTATION_CONTEXT() REPRESENTATION_CONTEXT('2D SPACE',''
  ) );
#1231 = PCURVE('',#1170,#1232);
#1232 = DEFINITIONAL_REPRESENTATION('',(#1233),#1237);
#1233 = LINE('',#1234,#1235);
#1234 = CARTESIAN_POINT('',(6.28318530718,1.256217352363E-13));
#1235 = VECTOR('',#1236,1.);
#1236 = DIRECTION('',(0.,1.));
#1237 = ( GEOMETRIC_REPRESENTATION_CONTEXT(2) 
PARAMETRIC_REPRESENTATION_CONTEXT() REPRESENTATION_CONTEXT('2D SPACE',''
  ) );
#1238 = ORIENTED_EDGE('',*,*,#1239,.T.);
#1239 = EDGE_CURVE('',#1217,#1240,#1242,.T.);
#1240 = VERTEX_POINT('',#1241);
#1241 = CARTESIAN_POINT('',(-17.6951800059,-284.1129883439,
    309.03846072234));
#1242 = SURFACE_CURVE('',#1243,(#1248,#1255),.PCURVE_S1.);
#1243 = CIRCLE('',#1244,4.);
#1244 = AXIS2_PLACEMENT_3D('',#1245,#1246,#1247);
#1245 = CARTESIAN_POINT('',(-17.695180006,-288.1119060193,308.9454154345
    ));
#1246 = DIRECTION('',(6.117577806758E-13,2.326132195949E-02,
    -0.999729418843));
#1247 = DIRECTION('',(-1.,2.628627191481E-11,-3.044289234982E-16));
#1248 = PCURVE('',#1201,#1249);
#1249 = DEFINITIONAL_REPRESENTATION('',(#1250),#1254);
#1250 = LINE('',#1251,#1252);
#1251 = CARTESIAN_POINT('',(0.,0.499999999998));
#1252 = VECTOR('',#1253,1.);
#1253 = DIRECTION('',(1.,-7.237528875152E-14));
#1254 = ( GEOMETRIC_REPRESENTATION_CONTEXT(2) 
PARAMETRIC_REPRESENTATION_CONTEXT() REPRESENTATION_CONTEXT('2D SPACE',''
  ) );
#1255 = PCURVE('',#1256,#1261);
#1256 = TOROIDAL_SURFACE('',#1257,3.5,0.5);
#1257 = AXIS2_PLACEMENT_3D('',#1258,#1259,#1260);
#1258 = CARTESIAN_POINT('',(-17.695180006,-288.1119060193,308.9454154345
    ));
#1259 = DIRECTION('',(6.117577806758E-13,2.326132195949E-02,
    -0.999729418843));
#1260 = DIRECTION('',(-1.,2.628627191481E-11,-3.044289234982E-16));
#1261 = DEFINITIONAL_REPRESENTATION('',(#1262),#1266);
#1262 = LINE('',#1263,#1264);
#1263 = CARTESIAN_POINT('',(0.,6.28318530718));
#1264 = VECTOR('',#1265,1.);
#1265 = DIRECTION('',(1.,0.));
#1266 = ( GEOMETRIC_REPRESENTATION_CONTEXT(2) 
PARAMETRIC_REPRESENTATION_CONTEXT() REPRESENTATION_CONTEXT('2D SPACE',''
  ) );
#1267 = ORIENTED_EDGE('',*,*,#1268,.T.);
#1268 = EDGE_CURVE('',#1240,#1103,#1269,.T.);
#1269 = SURFACE_CURVE('',#1270,(#1274,#1281),.PCURVE_S1.);
#1270 = LINE('',#1271,#1272);
#1271 = CARTESIAN_POINT('',(-17.6951800059,-284.1246190049,
    309.53832543176));
#1272 = VECTOR('',#1273,1.);
#1273 = DIRECTION('',(6.117577806758E-13,2.326132195949E-02,
    -0.999729418843));
#1274 = PCURVE('',#1201,#1275);
#1275 = DEFINITIONAL_REPRESENTATION('',(#1276),#1280);
#1276 = LINE('',#1277,#1278);
#1277 = CARTESIAN_POINT('',(1.570796326795,-2.773392626665E-12));
#1278 = VECTOR('',#1279,1.);
#1279 = DIRECTION('',(-2.030122102167E-15,1.));
#1280 = ( GEOMETRIC_REPRESENTATION_CONTEXT(2) 
PARAMETRIC_REPRESENTATION_CONTEXT() REPRESENTATION_CONTEXT('2D SPACE',''
  ) );
#1281 = PCURVE('',#811,#1282);
#1282 = DEFINITIONAL_REPRESENTATION('',(#1283),#1287);
#1283 = LINE('',#1284,#1285);
#1284 = CARTESIAN_POINT('',(0.,0.));
#1285 = VECTOR('',#1286,1.);
#1286 = DIRECTION('',(-1.861863197615E-24,1.));
#1287 = ( GEOMETRIC_REPRESENTATION_CONTEXT(2) 
PARAMETRIC_REPRESENTATION_CONTEXT() REPRESENTATION_CONTEXT('2D SPACE',''
  ) );
#1288 = ORIENTED_EDGE('',*,*,#1182,.T.);
#1289 = ADVANCED_FACE('',(#1290),#1256,.T.);
#1290 = FACE_BOUND('',#1291,.T.);
#1291 = EDGE_LOOP('',(#1292,#1321,#1349,#1371));
#1292 = ORIENTED_EDGE('',*,*,#1293,.F.);
#1293 = EDGE_CURVE('',#1294,#1217,#1296,.T.);
#1294 = VERTEX_POINT('',#1295);
#1295 = CARTESIAN_POINT('',(-21.195180006,-288.1235366802,
    309.44528014392));
#1296 = SURFACE_CURVE('',#1297,(#1302,#1309),.PCURVE_S1.);
#1297 = CIRCLE('',#1298,0.5);
#1298 = AXIS2_PLACEMENT_3D('',#1299,#1300,#1301);
#1299 = CARTESIAN_POINT('',(-21.195180006,-288.1119060192,308.9454154345
    ));
#1300 = DIRECTION('',(-2.62790670799E-11,-0.999729418843,
    -2.326132195949E-02));
#1301 = DIRECTION('',(-4.917443338786E-26,2.326132195949E-02,
    -0.999729418843));
#1302 = PCURVE('',#1256,#1303);
#1303 = DEFINITIONAL_REPRESENTATION('',(#1304),#1308);
#1304 = LINE('',#1305,#1306);
#1305 = CARTESIAN_POINT('',(0.,1.570796326794));
#1306 = VECTOR('',#1307,1.);
#1307 = DIRECTION('',(0.,1.));
#1308 = ( GEOMETRIC_REPRESENTATION_CONTEXT(2) 
PARAMETRIC_REPRESENTATION_CONTEXT() REPRESENTATION_CONTEXT('2D SPACE',''
  ) );
#1309 = PCURVE('',#1310,#1315);
#1310 = TOROIDAL_SURFACE('',#1311,3.5,0.5);
#1311 = AXIS2_PLACEMENT_3D('',#1312,#1313,#1314);
#1312 = CARTESIAN_POINT('',(-17.695180006,-288.1119060193,308.9454154345
    ));
#1313 = DIRECTION('',(6.117577806758E-13,2.326132195949E-02,
    -0.999729418843));
#1314 = DIRECTION('',(-1.,2.628627191481E-11,-3.044289234982E-16));
#1315 = DEFINITIONAL_REPRESENTATION('',(#1316),#1320);
#1316 = LINE('',#1317,#1318);
#1317 = CARTESIAN_POINT('',(6.28318530718,1.570796326794));
#1318 = VECTOR('',#1319,1.);
#1319 = DIRECTION('',(0.,1.));
#1320 = ( GEOMETRIC_REPRESENTATION_CONTEXT(2) 
PARAMETRIC_REPRESENTATION_CONTEXT() REPRESENTATION_CONTEXT('2D SPACE',''
  ) );
#1321 = ORIENTED_EDGE('',*,*,#1322,.F.);
#1322 = EDGE_CURVE('',#1323,#1294,#1325,.T.);
#1323 = VERTEX_POINT('',#1324);
#1324 = CARTESIAN_POINT('',(-17.69518000591,-284.6244837143,
    309.52669477078));
#1325 = SURFACE_CURVE('',#1326,(#1331,#1338),.PCURVE_S1.);
#1326 = CIRCLE('',#1327,3.5);
#1327 = AXIS2_PLACEMENT_3D('',#1328,#1329,#1330);
#1328 = CARTESIAN_POINT('',(-17.695180006,-288.1235366803,
    309.44528014392));
#1329 = DIRECTION('',(-6.117577806758E-13,-2.326132195949E-02,
    0.999729418843));
#1330 = DIRECTION('',(-1.,2.628651959836E-11,-2.986659173364E-16));
#1331 = PCURVE('',#1256,#1332);
#1332 = DEFINITIONAL_REPRESENTATION('',(#1333),#1337);
#1333 = LINE('',#1334,#1335);
#1334 = CARTESIAN_POINT('',(6.283185307179,4.712388980378));
#1335 = VECTOR('',#1336,1.);
#1336 = DIRECTION('',(-1.,1.259782369831E-12));
#1337 = ( GEOMETRIC_REPRESENTATION_CONTEXT(2) 
PARAMETRIC_REPRESENTATION_CONTEXT() REPRESENTATION_CONTEXT('2D SPACE',''
  ) );
#1338 = PCURVE('',#868,#1339);
#1339 = DEFINITIONAL_REPRESENTATION('',(#1340),#1348);
#1340 = ( BOUNDED_CURVE() B_SPLINE_CURVE(2,(#1341,#1342,#1343,#1344,
#1345,#1346,#1347),.UNSPECIFIED.,.T.,.F.) B_SPLINE_CURVE_WITH_KNOTS((1,2
    ,2,2,2,1),(-2.094395102393,0.,2.094395102393,4.188790204786,
6.28318530718,8.377580409573),.UNSPECIFIED.) CURVE() 
GEOMETRIC_REPRESENTATION_ITEM() RATIONAL_B_SPLINE_CURVE((1.,0.5,1.,0.5,
1.,0.5,1.)) REPRESENTATION_ITEM('') );
#1341 = CARTESIAN_POINT('',(1.165269768297E-15,-3.5));
#1342 = CARTESIAN_POINT('',(-6.062177826491,-3.5));
#1343 = CARTESIAN_POINT('',(-3.031088913246,1.75));
#1344 = CARTESIAN_POINT('',(-3.187792295998E-15,7.));
#1345 = CARTESIAN_POINT('',(3.031088913246,1.75));
#1346 = CARTESIAN_POINT('',(6.062177826491,-3.5));
#1347 = CARTESIAN_POINT('',(1.165269768297E-15,-3.5));
#1348 = ( GEOMETRIC_REPRESENTATION_CONTEXT(2) 
PARAMETRIC_REPRESENTATION_CONTEXT() REPRESENTATION_CONTEXT('2D SPACE',''
  ) );
#1349 = ORIENTED_EDGE('',*,*,#1350,.F.);
#1350 = EDGE_CURVE('',#1240,#1323,#1351,.T.);
#1351 = SURFACE_CURVE('',#1352,(#1357,#1364),.PCURVE_S1.);
#1352 = CIRCLE('',#1353,0.5);
#1353 = AXIS2_PLACEMENT_3D('',#1354,#1355,#1356);
#1354 = CARTESIAN_POINT('',(-17.69518000591,-284.6128530533,
    309.02683006136));
#1355 = DIRECTION('',(1.,-2.62865095697E-11,1.41804431539E-14));
#1356 = DIRECTION('',(6.256355684851E-13,2.326132195949E-02,
    -0.999729418843));
#1357 = PCURVE('',#1256,#1358);
#1358 = DEFINITIONAL_REPRESENTATION('',(#1359),#1363);
#1359 = LINE('',#1360,#1361);
#1360 = CARTESIAN_POINT('',(1.570796326795,7.853981633975));
#1361 = VECTOR('',#1362,1.);
#1362 = DIRECTION('',(-1.979011801821E-15,-1.));
#1363 = ( GEOMETRIC_REPRESENTATION_CONTEXT(2) 
PARAMETRIC_REPRESENTATION_CONTEXT() REPRESENTATION_CONTEXT('2D SPACE',''
  ) );
#1364 = PCURVE('',#840,#1365);
#1365 = DEFINITIONAL_REPRESENTATION('',(#1366),#1370);
#1366 = LINE('',#1367,#1368);
#1367 = CARTESIAN_POINT('',(7.853981633975,-1.421085471521E-14));
#1368 = VECTOR('',#1369,1.);
#1369 = DIRECTION('',(-1.,9.046911093941E-15));
#1370 = ( GEOMETRIC_REPRESENTATION_CONTEXT(2) 
PARAMETRIC_REPRESENTATION_CONTEXT() REPRESENTATION_CONTEXT('2D SPACE',''
  ) );
#1371 = ORIENTED_EDGE('',*,*,#1239,.F.);
#1372 = ADVANCED_FACE('',(#1373),#1310,.T.);
#1373 = FACE_BOUND('',#1374,.T.);
#1374 = EDGE_LOOP('',(#1375,#1403,#1404,#1428));
#1375 = ORIENTED_EDGE('',*,*,#1376,.F.);
#1376 = EDGE_CURVE('',#1294,#1377,#1379,.T.);
#1377 = VERTEX_POINT('',#1378);
#1378 = CARTESIAN_POINT('',(-17.69518000609,-291.6225896462,
    309.36386551706));
#1379 = SURFACE_CURVE('',#1380,(#1385,#1392),.PCURVE_S1.);
#1380 = CIRCLE('',#1381,3.5);
#1381 = AXIS2_PLACEMENT_3D('',#1382,#1383,#1384);
#1382 = CARTESIAN_POINT('',(-17.695180006,-288.1235366803,
    309.44528014392));
#1383 = DIRECTION('',(-6.117577806758E-13,-2.326132195949E-02,
    0.999729418843));
#1384 = DIRECTION('',(-1.,2.628651959836E-11,-2.986659173364E-16));
#1385 = PCURVE('',#1310,#1386);
#1386 = DEFINITIONAL_REPRESENTATION('',(#1387),#1391);
#1387 = LINE('',#1388,#1389);
#1388 = CARTESIAN_POINT('',(6.28318530718,4.712388980386));
#1389 = VECTOR('',#1390,1.);
#1390 = DIRECTION('',(-1.,-3.844937214925E-13));
#1391 = ( GEOMETRIC_REPRESENTATION_CONTEXT(2) 
PARAMETRIC_REPRESENTATION_CONTEXT() REPRESENTATION_CONTEXT('2D SPACE',''
  ) );
#1392 = PCURVE('',#868,#1393);
#1393 = DEFINITIONAL_REPRESENTATION('',(#1394),#1402);
#1394 = ( BOUNDED_CURVE() B_SPLINE_CURVE(2,(#1395,#1396,#1397,#1398,
#1399,#1400,#1401),.UNSPECIFIED.,.T.,.F.) B_SPLINE_CURVE_WITH_KNOTS((1,2
    ,2,2,2,1),(-2.094395102393,0.,2.094395102393,4.188790204786,
6.28318530718,8.377580409573),.UNSPECIFIED.) CURVE() 
GEOMETRIC_REPRESENTATION_ITEM() RATIONAL_B_SPLINE_CURVE((1.,0.5,1.,0.5,
1.,0.5,1.)) REPRESENTATION_ITEM('') );
#1395 = CARTESIAN_POINT('',(1.165269768297E-15,-3.5));
#1396 = CARTESIAN_POINT('',(-6.062177826491,-3.5));
#1397 = CARTESIAN_POINT('',(-3.031088913246,1.75));
#1398 = CARTESIAN_POINT('',(-3.187792295998E-15,7.));
#1399 = CARTESIAN_POINT('',(3.031088913246,1.75));
#1400 = CARTESIAN_POINT('',(6.062177826491,-3.5));
#1401 = CARTESIAN_POINT('',(1.165269768297E-15,-3.5));
#1402 = ( GEOMETRIC_REPRESENTATION_CONTEXT(2) 
PARAMETRIC_REPRESENTATION_CONTEXT() REPRESENTATION_CONTEXT('2D SPACE',''
  ) );
#1403 = ORIENTED_EDGE('',*,*,#1293,.T.);
#1404 = ORIENTED_EDGE('',*,*,#1405,.F.);
#1405 = EDGE_CURVE('',#1406,#1217,#1408,.T.);
#1406 = VERTEX_POINT('',#1407);
#1407 = CARTESIAN_POINT('',(-17.69518000611,-292.1108236947,
    308.85237014666));
#1408 = SURFACE_CURVE('',#1409,(#1414,#1421),.PCURVE_S1.);
#1409 = CIRCLE('',#1410,4.);
#1410 = AXIS2_PLACEMENT_3D('',#1411,#1412,#1413);
#1411 = CARTESIAN_POINT('',(-17.695180006,-288.1119060193,308.9454154345
    ));
#1412 = DIRECTION('',(6.117577806758E-13,2.326132195949E-02,
    -0.999729418843));
#1413 = DIRECTION('',(-1.,2.628627191481E-11,-3.044289234982E-16));
#1414 = PCURVE('',#1310,#1415);
#1415 = DEFINITIONAL_REPRESENTATION('',(#1416),#1420);
#1416 = LINE('',#1417,#1418);
#1417 = CARTESIAN_POINT('',(3.552713678801E-15,6.28318530718));
#1418 = VECTOR('',#1419,1.);
#1419 = DIRECTION('',(1.,0.));
#1420 = ( GEOMETRIC_REPRESENTATION_CONTEXT(2) 
PARAMETRIC_REPRESENTATION_CONTEXT() REPRESENTATION_CONTEXT('2D SPACE',''
  ) );
#1421 = PCURVE('',#1170,#1422);
#1422 = DEFINITIONAL_REPRESENTATION('',(#1423),#1427);
#1423 = LINE('',#1424,#1425);
#1424 = CARTESIAN_POINT('',(-1.705302565824E-13,0.499999999998));
#1425 = VECTOR('',#1426,1.);
#1426 = DIRECTION('',(1.,0.));
#1427 = ( GEOMETRIC_REPRESENTATION_CONTEXT(2) 
PARAMETRIC_REPRESENTATION_CONTEXT() REPRESENTATION_CONTEXT('2D SPACE',''
  ) );
#1428 = ORIENTED_EDGE('',*,*,#1429,.T.);
#1429 = EDGE_CURVE('',#1406,#1377,#1430,.T.);
#1430 = SURFACE_CURVE('',#1431,(#1436,#1443),.PCURVE_S1.);
#1431 = CIRCLE('',#1432,0.5);
#1432 = AXIS2_PLACEMENT_3D('',#1433,#1434,#1435);
#1433 = CARTESIAN_POINT('',(-17.69518000609,-291.6109589852,
    308.86400080764));
#1434 = DIRECTION('',(-1.,2.628586393832E-11,1.356762232597E-14));
#1435 = DIRECTION('',(-5.978799928695E-13,-2.326132195949E-02,
    0.999729418843));
#1436 = PCURVE('',#1310,#1437);
#1437 = DEFINITIONAL_REPRESENTATION('',(#1438),#1442);
#1438 = LINE('',#1439,#1440);
#1439 = CARTESIAN_POINT('',(4.712388980385,10.995574287563));
#1440 = VECTOR('',#1441,1.);
#1441 = DIRECTION('',(-1.696295830111E-15,-1.));
#1442 = ( GEOMETRIC_REPRESENTATION_CONTEXT(2) 
PARAMETRIC_REPRESENTATION_CONTEXT() REPRESENTATION_CONTEXT('2D SPACE',''
  ) );
#1443 = PCURVE('',#897,#1444);
#1444 = DEFINITIONAL_REPRESENTATION('',(#1445),#1449);
#1445 = LINE('',#1446,#1447);
#1446 = CARTESIAN_POINT('',(7.877245054186,72.994819994588));
#1447 = VECTOR('',#1448,1.);
#1448 = DIRECTION('',(-1.,9.046911093935E-15));
#1449 = ( GEOMETRIC_REPRESENTATION_CONTEXT(2) 
PARAMETRIC_REPRESENTATION_CONTEXT() REPRESENTATION_CONTEXT('2D SPACE',''
  ) );
#1450 = ADVANCED_FACE('',(#1451),#1170,.T.);
#1451 = FACE_BOUND('',#1452,.T.);
#1452 = EDGE_LOOP('',(#1453,#1454,#1455,#1456));
#1453 = ORIENTED_EDGE('',*,*,#1405,.T.);
#1454 = ORIENTED_EDGE('',*,*,#1216,.T.);
#1455 = ORIENTED_EDGE('',*,*,#1149,.T.);
#1456 = ORIENTED_EDGE('',*,*,#1457,.F.);
#1457 = EDGE_CURVE('',#1406,#1127,#1458,.T.);
#1458 = SURFACE_CURVE('',#1459,(#1463,#1470),.PCURVE_S1.);
#1459 = LINE('',#1460,#1461);
#1460 = CARTESIAN_POINT('',(-17.69518000611,-292.1224543556,
    309.35223485608));
#1461 = VECTOR('',#1462,1.);
#1462 = DIRECTION('',(6.117577806758E-13,2.326132195949E-02,
    -0.999729418843));
#1463 = PCURVE('',#1170,#1464);
#1464 = DEFINITIONAL_REPRESENTATION('',(#1465),#1469);
#1465 = LINE('',#1466,#1467);
#1466 = CARTESIAN_POINT('',(4.712388980385,2.967792678277E-12));
#1467 = VECTOR('',#1468,1.);
#1468 = DIRECTION('',(0.,1.));
#1469 = ( GEOMETRIC_REPRESENTATION_CONTEXT(2) 
PARAMETRIC_REPRESENTATION_CONTEXT() REPRESENTATION_CONTEXT('2D SPACE',''
  ) );
#1470 = PCURVE('',#925,#1471);
#1471 = DEFINITIONAL_REPRESENTATION('',(#1472),#1476);
#1472 = LINE('',#1473,#1474);
#1473 = CARTESIAN_POINT('',(3.499999937837,-5.791364286535E-14));
#1474 = VECTOR('',#1475,1.);
#1475 = DIRECTION('',(3.33638937988E-24,1.));
#1476 = ( GEOMETRIC_REPRESENTATION_CONTEXT(2) 
PARAMETRIC_REPRESENTATION_CONTEXT() REPRESENTATION_CONTEXT('2D SPACE',''
  ) );
#1477 = ADVANCED_FACE('',(#1478),#1088,.F.);
#1478 = FACE_BOUND('',#1479,.F.);
#1479 = EDGE_LOOP('',(#1480,#1481,#1504,#1528));
#1480 = ORIENTED_EDGE('',*,*,#1069,.T.);
#1481 = ORIENTED_EDGE('',*,*,#1482,.F.);
#1482 = EDGE_CURVE('',#1483,#1035,#1485,.T.);
#1483 = VERTEX_POINT('',#1484);
#1484 = CARTESIAN_POINT('',(-18.695180006,-288.1235366802,
    309.44528014392));
#1485 = SURFACE_CURVE('',#1486,(#1490,#1497),.PCURVE_S1.);
#1486 = LINE('',#1487,#1488);
#1487 = CARTESIAN_POINT('',(-18.695180006,-288.1235366802,
    309.44528014392));
#1488 = VECTOR('',#1489,1.);
#1489 = DIRECTION('',(6.117577806758E-13,2.326132195949E-02,
    -0.999729418843));
#1490 = PCURVE('',#1088,#1491);
#1491 = DEFINITIONAL_REPRESENTATION('',(#1492),#1496);
#1492 = LINE('',#1493,#1494);
#1493 = CARTESIAN_POINT('',(0.,5.684341886081E-14));
#1494 = VECTOR('',#1495,1.);
#1495 = DIRECTION('',(0.,1.));
#1496 = ( GEOMETRIC_REPRESENTATION_CONTEXT(2) 
PARAMETRIC_REPRESENTATION_CONTEXT() REPRESENTATION_CONTEXT('2D SPACE',''
  ) );
#1497 = PCURVE('',#1057,#1498);
#1498 = DEFINITIONAL_REPRESENTATION('',(#1499),#1503);
#1499 = LINE('',#1500,#1501);
#1500 = CARTESIAN_POINT('',(6.28318530718,5.684341886081E-14));
#1501 = VECTOR('',#1502,1.);
#1502 = DIRECTION('',(0.,1.));
#1503 = ( GEOMETRIC_REPRESENTATION_CONTEXT(2) 
PARAMETRIC_REPRESENTATION_CONTEXT() REPRESENTATION_CONTEXT('2D SPACE',''
  ) );
#1504 = ORIENTED_EDGE('',*,*,#1505,.T.);
#1505 = EDGE_CURVE('',#1483,#1506,#1508,.T.);
#1506 = VERTEX_POINT('',#1507);
#1507 = CARTESIAN_POINT('',(-16.695180006,-288.1235366803,
    309.44528014392));
#1508 = SURFACE_CURVE('',#1509,(#1514,#1521),.PCURVE_S1.);
#1509 = CIRCLE('',#1510,1.);
#1510 = AXIS2_PLACEMENT_3D('',#1511,#1512,#1513);
#1511 = CARTESIAN_POINT('',(-17.695180006,-288.1235366803,
    309.44528014392));
#1512 = DIRECTION('',(6.117577806758E-13,2.326132195949E-02,
    -0.999729418843));
#1513 = DIRECTION('',(2.628453010822E-11,0.999729418843,
    2.326132195949E-02));
#1514 = PCURVE('',#1088,#1515);
#1515 = DEFINITIONAL_REPRESENTATION('',(#1516),#1520);
#1516 = LINE('',#1517,#1518);
#1517 = CARTESIAN_POINT('',(-4.712388980388,-5.684341886081E-14));
#1518 = VECTOR('',#1519,1.);
#1519 = DIRECTION('',(1.,0.));
#1520 = ( GEOMETRIC_REPRESENTATION_CONTEXT(2) 
PARAMETRIC_REPRESENTATION_CONTEXT() REPRESENTATION_CONTEXT('2D SPACE',''
  ) );
#1521 = PCURVE('',#868,#1522);
#1522 = DEFINITIONAL_REPRESENTATION('',(#1523),#1527);
#1523 = CIRCLE('',#1524,1.);
#1524 = AXIS2_PLACEMENT_2D('',#1525,#1526);
#1525 = CARTESIAN_POINT('',(0.,0.));
#1526 = DIRECTION('',(1.,5.463028320002E-15));
#1527 = ( GEOMETRIC_REPRESENTATION_CONTEXT(2) 
PARAMETRIC_REPRESENTATION_CONTEXT() REPRESENTATION_CONTEXT('2D SPACE',''
  ) );
#1528 = ORIENTED_EDGE('',*,*,#1529,.T.);
#1529 = EDGE_CURVE('',#1506,#1037,#1530,.T.);
#1530 = SURFACE_CURVE('',#1531,(#1535,#1542),.PCURVE_S1.);
#1531 = LINE('',#1532,#1533);
#1532 = CARTESIAN_POINT('',(-16.695180006,-288.1235366803,
    309.44528014392));
#1533 = VECTOR('',#1534,1.);
#1534 = DIRECTION('',(6.117577806758E-13,2.326132195949E-02,
    -0.999729418843));
#1535 = PCURVE('',#1088,#1536);
#1536 = DEFINITIONAL_REPRESENTATION('',(#1537),#1541);
#1537 = LINE('',#1538,#1539);
#1538 = CARTESIAN_POINT('',(3.141592653584,1.136868377216E-13));
#1539 = VECTOR('',#1540,1.);
#1540 = DIRECTION('',(-1.578983857243E-15,1.));
#1541 = ( GEOMETRIC_REPRESENTATION_CONTEXT(2) 
PARAMETRIC_REPRESENTATION_CONTEXT() REPRESENTATION_CONTEXT('2D SPACE',''
  ) );
#1542 = PCURVE('',#1057,#1543);
#1543 = DEFINITIONAL_REPRESENTATION('',(#1544),#1548);
#1544 = LINE('',#1545,#1546);
#1545 = CARTESIAN_POINT('',(3.141592653584,1.136868377216E-13));
#1546 = VECTOR('',#1547,1.);
#1547 = DIRECTION('',(-1.578983857243E-15,1.));
#1548 = ( GEOMETRIC_REPRESENTATION_CONTEXT(2) 
PARAMETRIC_REPRESENTATION_CONTEXT() REPRESENTATION_CONTEXT('2D SPACE',''
  ) );
#1549 = ADVANCED_FACE('',(#1550),#1057,.F.);
#1550 = FACE_BOUND('',#1551,.F.);
#1551 = EDGE_LOOP('',(#1552,#1553,#1554,#1555));
#1552 = ORIENTED_EDGE('',*,*,#1482,.T.);
#1553 = ORIENTED_EDGE('',*,*,#1034,.T.);
#1554 = ORIENTED_EDGE('',*,*,#1529,.F.);
#1555 = ORIENTED_EDGE('',*,*,#1556,.T.);
#1556 = EDGE_CURVE('',#1506,#1483,#1557,.T.);
#1557 = SURFACE_CURVE('',#1558,(#1563,#1570),.PCURVE_S1.);
#1558 = CIRCLE('',#1559,1.);
#1559 = AXIS2_PLACEMENT_3D('',#1560,#1561,#1562);
#1560 = CARTESIAN_POINT('',(-17.695180006,-288.1235366803,
    309.44528014392));
#1561 = DIRECTION('',(6.117577806758E-13,2.326132195949E-02,
    -0.999729418843));
#1562 = DIRECTION('',(2.628453010822E-11,0.999729418843,
    2.326132195949E-02));
#1563 = PCURVE('',#1057,#1564);
#1564 = DEFINITIONAL_REPRESENTATION('',(#1565),#1569);
#1565 = LINE('',#1566,#1567);
#1566 = CARTESIAN_POINT('',(1.570796326795,-5.684341886081E-14));
#1567 = VECTOR('',#1568,1.);
#1568 = DIRECTION('',(1.,0.));
#1569 = ( GEOMETRIC_REPRESENTATION_CONTEXT(2) 
PARAMETRIC_REPRESENTATION_CONTEXT() REPRESENTATION_CONTEXT('2D SPACE',''
  ) );
#1570 = PCURVE('',#868,#1571);
#1571 = DEFINITIONAL_REPRESENTATION('',(#1572),#1576);
#1572 = CIRCLE('',#1573,1.);
#1573 = AXIS2_PLACEMENT_2D('',#1574,#1575);
#1574 = CARTESIAN_POINT('',(0.,0.));
#1575 = DIRECTION('',(1.,5.463028320002E-15));
#1576 = ( GEOMETRIC_REPRESENTATION_CONTEXT(2) 
PARAMETRIC_REPRESENTATION_CONTEXT() REPRESENTATION_CONTEXT('2D SPACE',''
  ) );
#1577 = ADVANCED_FACE('',(#1578),#925,.T.);
#1578 = FACE_BOUND('',#1579,.T.);
#1579 = EDGE_LOOP('',(#1580,#1581,#1602,#1603));
#1580 = ORIENTED_EDGE('',*,*,#909,.F.);
#1581 = ORIENTED_EDGE('',*,*,#1582,.T.);
#1582 = EDGE_CURVE('',#881,#1406,#1583,.T.);
#1583 = SURFACE_CURVE('',#1584,(#1588,#1595),.PCURVE_S1.);
#1584 = LINE('',#1585,#1586);
#1585 = CARTESIAN_POINT('',(-17.69518000611,-292.1108236947,
    308.85237014666));
#1586 = VECTOR('',#1587,1.);
#1587 = DIRECTION('',(-1.,2.628618675401E-11,-3.064104139678E-16));
#1588 = PCURVE('',#925,#1589);
#1589 = DEFINITIONAL_REPRESENTATION('',(#1590),#1594);
#1590 = LINE('',#1591,#1592);
#1591 = CARTESIAN_POINT('',(3.499999937836,0.499999999998));
#1592 = VECTOR('',#1593,1.);
#1593 = DIRECTION('',(1.,-1.80774102863E-24));
#1594 = ( GEOMETRIC_REPRESENTATION_CONTEXT(2) 
PARAMETRIC_REPRESENTATION_CONTEXT() REPRESENTATION_CONTEXT('2D SPACE',''
  ) );
#1595 = PCURVE('',#897,#1596);
#1596 = DEFINITIONAL_REPRESENTATION('',(#1597),#1601);
#1597 = LINE('',#1598,#1599);
#1598 = CARTESIAN_POINT('',(3.164856073802,72.994819994588));
#1599 = VECTOR('',#1600,1.);
#1600 = DIRECTION('',(2.526374206491E-14,-1.));
#1601 = ( GEOMETRIC_REPRESENTATION_CONTEXT(2) 
PARAMETRIC_REPRESENTATION_CONTEXT() REPRESENTATION_CONTEXT('2D SPACE',''
  ) );
#1602 = ORIENTED_EDGE('',*,*,#1457,.T.);
#1603 = ORIENTED_EDGE('',*,*,#1126,.T.);
#1604 = ADVANCED_FACE('',(#1605),#897,.T.);
#1605 = FACE_BOUND('',#1606,.T.);
#1606 = EDGE_LOOP('',(#1607,#1608,#1609,#1610));
#1607 = ORIENTED_EDGE('',*,*,#1429,.F.);
#1608 = ORIENTED_EDGE('',*,*,#1582,.F.);
#1609 = ORIENTED_EDGE('',*,*,#880,.F.);
#1610 = ORIENTED_EDGE('',*,*,#1611,.F.);
#1611 = EDGE_CURVE('',#1377,#853,#1612,.T.);
#1612 = SURFACE_CURVE('',#1613,(#1617,#1624),.PCURVE_S1.);
#1613 = LINE('',#1614,#1615);
#1614 = CARTESIAN_POINT('',(-14.19518006826,-291.6225896463,
    309.36386551706));
#1615 = VECTOR('',#1616,1.);
#1616 = DIRECTION('',(1.,-2.628618675401E-11,3.064104139678E-16));
#1617 = PCURVE('',#897,#1618);
#1618 = DEFINITIONAL_REPRESENTATION('',(#1619),#1623);
#1619 = LINE('',#1620,#1621);
#1620 = CARTESIAN_POINT('',(1.594059747003,76.494819932424));
#1621 = VECTOR('',#1622,1.);
#1622 = DIRECTION('',(-5.921189546463E-16,1.));
#1623 = ( GEOMETRIC_REPRESENTATION_CONTEXT(2) 
PARAMETRIC_REPRESENTATION_CONTEXT() REPRESENTATION_CONTEXT('2D SPACE',''
  ) );
#1624 = PCURVE('',#868,#1625);
#1625 = DEFINITIONAL_REPRESENTATION('',(#1626),#1630);
#1626 = LINE('',#1627,#1628);
#1627 = CARTESIAN_POINT('',(-3.499999999997,3.499999937837));
#1628 = VECTOR('',#1629,1.);
#1629 = DIRECTION('',(2.163206548797E-22,1.));
#1630 = ( GEOMETRIC_REPRESENTATION_CONTEXT(2) 
PARAMETRIC_REPRESENTATION_CONTEXT() REPRESENTATION_CONTEXT('2D SPACE',''
  ) );
#1631 = ADVANCED_FACE('',(#1632,#1659),#868,.F.);
#1632 = FACE_BOUND('',#1633,.T.);
#1633 = EDGE_LOOP('',(#1634,#1635,#1656,#1657,#1658));
#1634 = ORIENTED_EDGE('',*,*,#852,.F.);
#1635 = ORIENTED_EDGE('',*,*,#1636,.T.);
#1636 = EDGE_CURVE('',#824,#1323,#1637,.T.);
#1637 = SURFACE_CURVE('',#1638,(#1642,#1649),.PCURVE_S1.);
#1638 = LINE('',#1639,#1640);
#1639 = CARTESIAN_POINT('',(-17.69518000591,-284.6244837143,
    309.52669477078));
#1640 = VECTOR('',#1641,1.);
#1641 = DIRECTION('',(-1.,2.630105178935E-11,3.946354604665E-17));
#1642 = PCURVE('',#868,#1643);
#1643 = DEFINITIONAL_REPRESENTATION('',(#1644),#1648);
#1644 = LINE('',#1645,#1646);
#1645 = CARTESIAN_POINT('',(3.500000000009,2.433864635195E-14));
#1646 = VECTOR('',#1647,1.);
#1647 = DIRECTION('',(1.486905841076E-14,-1.));
#1648 = ( GEOMETRIC_REPRESENTATION_CONTEXT(2) 
PARAMETRIC_REPRESENTATION_CONTEXT() REPRESENTATION_CONTEXT('2D SPACE',''
  ) );
#1649 = PCURVE('',#840,#1650);
#1650 = DEFINITIONAL_REPRESENTATION('',(#1651),#1655);
#1651 = LINE('',#1652,#1653);
#1652 = CARTESIAN_POINT('',(4.712388980384,6.963318810449E-13));
#1653 = VECTOR('',#1654,1.);
#1654 = DIRECTION('',(0.,1.));
#1655 = ( GEOMETRIC_REPRESENTATION_CONTEXT(2) 
PARAMETRIC_REPRESENTATION_CONTEXT() REPRESENTATION_CONTEXT('2D SPACE',''
  ) );
#1656 = ORIENTED_EDGE('',*,*,#1322,.T.);
#1657 = ORIENTED_EDGE('',*,*,#1376,.T.);
#1658 = ORIENTED_EDGE('',*,*,#1611,.T.);
#1659 = FACE_BOUND('',#1660,.T.);
#1660 = EDGE_LOOP('',(#1661,#1662));
#1661 = ORIENTED_EDGE('',*,*,#1505,.T.);
#1662 = ORIENTED_EDGE('',*,*,#1556,.T.);
#1663 = ADVANCED_FACE('',(#1664),#840,.T.);
#1664 = FACE_BOUND('',#1665,.T.);
#1665 = EDGE_LOOP('',(#1666,#1667,#1668,#1669));
#1666 = ORIENTED_EDGE('',*,*,#1350,.T.);
#1667 = ORIENTED_EDGE('',*,*,#1636,.F.);
#1668 = ORIENTED_EDGE('',*,*,#823,.F.);
#1669 = ORIENTED_EDGE('',*,*,#1670,.F.);
#1670 = EDGE_CURVE('',#1240,#794,#1671,.T.);
#1671 = SURFACE_CURVE('',#1672,(#1676,#1683),.PCURVE_S1.);
#1672 = LINE('',#1673,#1674);
#1673 = CARTESIAN_POINT('',(-14.19518006806,-284.112988344,
    309.03846072234));
#1674 = VECTOR('',#1675,1.);
#1675 = DIRECTION('',(1.,-2.630105178935E-11,-3.946354604665E-17));
#1676 = PCURVE('',#840,#1677);
#1677 = DEFINITIONAL_REPRESENTATION('',(#1678),#1682);
#1678 = LINE('',#1679,#1680);
#1679 = CARTESIAN_POINT('',(6.28318530718,-3.499999937836));
#1680 = VECTOR('',#1681,1.);
#1681 = DIRECTION('',(0.,-1.));
#1682 = ( GEOMETRIC_REPRESENTATION_CONTEXT(2) 
PARAMETRIC_REPRESENTATION_CONTEXT() REPRESENTATION_CONTEXT('2D SPACE',''
  ) );
#1683 = PCURVE('',#811,#1684);
#1684 = DEFINITIONAL_REPRESENTATION('',(#1685),#1689);
#1685 = LINE('',#1686,#1687);
#1686 = CARTESIAN_POINT('',(3.499999937836,0.499999999998));
#1687 = VECTOR('',#1688,1.);
#1688 = DIRECTION('',(1.,3.88649679897E-25));
#1689 = ( GEOMETRIC_REPRESENTATION_CONTEXT(2) 
PARAMETRIC_REPRESENTATION_CONTEXT() REPRESENTATION_CONTEXT('2D SPACE',''
  ) );
#1690 = ADVANCED_FACE('',(#1691),#811,.T.);
#1691 = FACE_BOUND('',#1692,.T.);
#1692 = EDGE_LOOP('',(#1693,#1694,#1695,#1696));
#1693 = ORIENTED_EDGE('',*,*,#1268,.F.);
#1694 = ORIENTED_EDGE('',*,*,#1670,.T.);
#1695 = ORIENTED_EDGE('',*,*,#793,.T.);
#1696 = ORIENTED_EDGE('',*,*,#1102,.T.);
#1697 = ADVANCED_FACE('',(#1698,#1726),#125,.T.);
#1698 = FACE_BOUND('',#1699,.T.);
#1699 = EDGE_LOOP('',(#1700,#1701,#1702,#1703,#1725));
#1700 = ORIENTED_EDGE('',*,*,#767,.T.);
#1701 = ORIENTED_EDGE('',*,*,#168,.T.);
#1702 = ORIENTED_EDGE('',*,*,#108,.T.);
#1703 = ORIENTED_EDGE('',*,*,#1704,.T.);
#1704 = EDGE_CURVE('',#80,#717,#1705,.T.);
#1705 = SURFACE_CURVE('',#1706,(#1711,#1718),.PCURVE_S1.);
#1706 = CIRCLE('',#1707,3.5);
#1707 = AXIS2_PLACEMENT_3D('',#1708,#1709,#1710);
#1708 = CARTESIAN_POINT('',(-17.69518000599,-287.8676621387,
    298.44825653665));
#1709 = DIRECTION('',(6.117577806758E-13,2.326132195949E-02,
    -0.999729418843));
#1710 = DIRECTION('',(-1.,2.628651959836E-11,-2.986659173364E-16));
#1711 = PCURVE('',#125,#1712);
#1712 = DEFINITIONAL_REPRESENTATION('',(#1713),#1717);
#1713 = CIRCLE('',#1714,3.5);
#1714 = AXIS2_PLACEMENT_2D('',#1715,#1716);
#1715 = CARTESIAN_POINT('',(0.,0.));
#1716 = DIRECTION('',(3.329342195135E-16,-1.));
#1717 = ( GEOMETRIC_REPRESENTATION_CONTEXT(2) 
PARAMETRIC_REPRESENTATION_CONTEXT() REPRESENTATION_CONTEXT('2D SPACE',''
  ) );
#1718 = PCURVE('',#96,#1719);
#1719 = DEFINITIONAL_REPRESENTATION('',(#1720),#1724);
#1720 = LINE('',#1721,#1722);
#1721 = CARTESIAN_POINT('',(0.,1.570796326794));
#1722 = VECTOR('',#1723,1.);
#1723 = DIRECTION('',(1.,-1.243950275417E-13));
#1724 = ( GEOMETRIC_REPRESENTATION_CONTEXT(2) 
PARAMETRIC_REPRESENTATION_CONTEXT() REPRESENTATION_CONTEXT('2D SPACE',''
  ) );
#1725 = ORIENTED_EDGE('',*,*,#716,.T.);
#1726 = FACE_BOUND('',#1727,.T.);
#1727 = EDGE_LOOP('',(#1728,#1729));
#1728 = ORIENTED_EDGE('',*,*,#541,.F.);
#1729 = ORIENTED_EDGE('',*,*,#517,.F.);
#1730 = ADVANCED_FACE('',(#1731),#96,.T.);
#1731 = FACE_BOUND('',#1732,.T.);
#1732 = EDGE_LOOP('',(#1733,#1734,#1735,#1736));
#1733 = ORIENTED_EDGE('',*,*,#79,.F.);
#1734 = ORIENTED_EDGE('',*,*,#613,.F.);
#1735 = ORIENTED_EDGE('',*,*,#739,.T.);
#1736 = ORIENTED_EDGE('',*,*,#1704,.F.);
#1737 = ADVANCED_FACE('',(#1738),#67,.T.);
#1738 = FACE_BOUND('',#1739,.T.);
#1739 = EDGE_LOOP('',(#1740,#1741,#1742,#1743));
#1740 = ORIENTED_EDGE('',*,*,#410,.T.);
#1741 = ORIENTED_EDGE('',*,*,#568,.T.);
#1742 = ORIENTED_EDGE('',*,*,#21,.T.);
#1743 = ORIENTED_EDGE('',*,*,#249,.F.);
#1744 = ( GEOMETRIC_REPRESENTATION_CONTEXT(3) 
GLOBAL_UNCERTAINTY_ASSIGNED_CONTEXT((#1748)) 
GLOBAL_UNIT_ASSIGNED_CONTEXT((#1745,#1746,#1747)) REPRESENTATION_CONTEXT
('Context #1','3D Context with UNIT and UNCERTAINTY') );
#1745 = ( LENGTH_UNIT() NAMED_UNIT(*) SI_UNIT(.MILLI.,.METRE.) );
#1746 = ( NAMED_UNIT(*) PLANE_ANGLE_UNIT() SI_UNIT($,.RADIAN.) );
#1747 = ( NAMED_UNIT(*) SI_UNIT($,.STERADIAN.) SOLID_ANGLE_UNIT() );
#1748 = UNCERTAINTY_MEASURE_WITH_UNIT(LENGTH_MEASURE(1.E-07),#1745,
  'distance_accuracy_value','confusion accuracy');
#1749 = PRODUCT_RELATED_PRODUCT_CATEGORY('part',$,(#7));
ENDSEC;
END-ISO-10303-21;
