ISO-10303-21;
HEADER;
FILE_DESCRIPTION(('Open CASCADE Model'),'2;1');
FILE_NAME('Open CASCADE Shape Model','2026-10-07T15:24:24',('Author'),(
    'Open CASCADE'),'Open CASCADE STEP processor 7.9','Open CASCADE 7.9'
  ,'Unknown');
FILE_SCHEMA(('AUTOMOTIVE_DESIGN { 1 0 10303 214 1 1 1 1 }'));
ENDSEC;
DATA;
#1 = APPLICATION_PROTOCOL_DEFINITION('international standard',
  'automotive_design',2000,#2);
#2 = APPLICATION_CONTEXT(
  'core data for automotive mechanical design processes');
#3 = SHAPE_DEFINITION_REPRESENTATION(#4,#10);
#4 = PRODUCT_DEFINITION_SHAPE('','',#5);
#5 = PRODUCT_DEFINITION('design','',#6,#9);
#6 = PRODUCT_DEFINITION_FORMATION('','',#7);
#7 = PRODUCT('Open CASCADE STEP translator 7.9 6',
  'Open CASCADE STEP translator 7.9 6','',(#8));
#8 = PRODUCT_CONTEXT('',#2,'mechanical');
#9 = PRODUCT_DEFINITION_CONTEXT('part definition',#2,'design');
#10 = ADVANCED_BREP_SHAPE_REPRESENTATION('',(#11,#15),#818);
#11 = AXIS2_PLACEMENT_3D('',#12,#13,#14);
#12 = CARTESIAN_POINT('',(0.,0.,0.));
#13 = DIRECTION('',(0.,0.,1.));
#14 = DIRECTION('',(1.,0.,-0.));
#15 = MANIFOLD_SOLID_BREP('',#16);
#16 = CLOSED_SHELL('',(#17,#183,#261,#378,#435,#484,#755,#760,#810));
#17 = ADVANCED_FACE('',(#18),#33,.T.);
#18 = FACE_BOUND('',#19,.T.);
#19 = EDGE_LOOP('',(#20,#78,#106,#157));
#20 = ORIENTED_EDGE('',*,*,#21,.T.);
#21 = EDGE_CURVE('',#22,#24,#26,.T.);
#22 = VERTEX_POINT('',#23);
#23 = CARTESIAN_POINT('',(16.60481993186,-286.6827589828,100.078741549)
  );
#24 = VERTEX_POINT('',#25);
#25 = CARTESIAN_POINT('',(16.6048199319,-285.0999947077,96.428741549));
#26 = SURFACE_CURVE('',#27,(#32,#44),.PCURVE_S1.);
#27 = CIRCLE('',#28,5.);
#28 = AXIS2_PLACEMENT_3D('',#29,#30,#31);
#29 = CARTESIAN_POINT('',(16.60481993177,-290.0999947077,96.428741549));
#30 = DIRECTION('',(-1.,2.628618675401E-11,-3.064104139678E-16));
#31 = DIRECTION('',(-2.628618675401E-11,-1.,3.885780586188E-14));
#32 = PCURVE('',#33,#38);
#33 = CYLINDRICAL_SURFACE('',#34,5.);
#34 = AXIS2_PLACEMENT_3D('',#35,#36,#37);
#35 = CARTESIAN_POINT('',(13.80481993177,-290.0999947077,96.428741549));
#36 = DIRECTION('',(-1.,2.628618675401E-11,-3.064104139678E-16));
#37 = DIRECTION('',(-2.628618675401E-11,-1.,3.885780586188E-14));
#38 = DEFINITIONAL_REPRESENTATION('',(#39),#43);
#39 = LINE('',#40,#41);
#40 = CARTESIAN_POINT('',(5.235811784132E-13,-2.8));
#41 = VECTOR('',#42,1.);
#42 = DIRECTION('',(1.,-1.73658481289E-14));
#43 = ( GEOMETRIC_REPRESENTATION_CONTEXT(2) 
PARAMETRIC_REPRESENTATION_CONTEXT() REPRESENTATION_CONTEXT('2D SPACE',''
  ) );
#44 = PCURVE('',#45,#50);
#45 = SPHERICAL_SURFACE('',#46,9.083333333333);
#46 = AXIS2_PLACEMENT_3D('',#47,#48,#49);
#47 = CARTESIAN_POINT('',(9.021486598443,-290.0999947075,96.428741549));
#48 = DIRECTION('',(3.064104129638E-16,-3.819574626005E-14,-1.));
#49 = DIRECTION('',(2.628631257616E-11,1.,-3.819574626004E-14));
#50 = DEFINITIONAL_REPRESENTATION('',(#51),#77);
#51 = B_SPLINE_CURVE_WITH_KNOTS('',3,(#52,#53,#54,#55,#56,#57,#58,#59,
    #60,#61,#62,#63,#64,#65,#66,#67,#68,#69,#70,#71,#72,#73,#74,#75,#76)
  ,.UNSPECIFIED.,.F.,.F.,(4,1,1,1,1,1,1,1,1,1,1,1,1,1,1,1,1,1,1,1,1,1,4)
  ,(2.323270702958,2.36046715526,2.397663607561,2.434860059863,
    2.472056512164,2.509252964466,2.546449416767,2.583645869068,
    2.62084232137,2.658038773671,2.695235225973,2.732431678274,
    2.769628130576,2.806824582877,2.844021035178,2.88121748748,
    2.918413939781,2.955610392083,2.992806844384,3.030003296686,
    3.067199748987,3.104396201288,3.14159265359),.UNSPECIFIED.);
#52 = CARTESIAN_POINT('',(1.14742319464,-0.413519721783));
#53 = CARTESIAN_POINT('',(1.142462558711,-0.408425783237));
#54 = CARTESIAN_POINT('',(1.132781114024,-0.398069804007));
#55 = CARTESIAN_POINT('',(1.118977858494,-0.382058676244));
#56 = CARTESIAN_POINT('',(1.105893555502,-0.365597701199));
#57 = CARTESIAN_POINT('',(1.093526107395,-0.348713616002));
#58 = CARTESIAN_POINT('',(1.081872345408,-0.331432722013));
#59 = CARTESIAN_POINT('',(1.070928053957,-0.313780805204));
#60 = CARTESIAN_POINT('',(1.060688252271,-0.295783130203));
#61 = CARTESIAN_POINT('',(1.051147383907,-0.277464428124));
#62 = CARTESIAN_POINT('',(1.04229950753,-0.258848898039));
#63 = CARTESIAN_POINT('',(1.034138464227,-0.239960215294));
#64 = CARTESIAN_POINT('',(1.026658028664,-0.220821547116));
#65 = CARTESIAN_POINT('',(1.019852043122,-0.201455574121));
#66 = CARTESIAN_POINT('',(1.013714535857,-0.18188451695));
#67 = CARTESIAN_POINT('',(1.008239824695,-0.162130167208));
#68 = CARTESIAN_POINT('',(1.003422606919,-0.142213922031));
#69 = CARTESIAN_POINT('',(0.999258036673,-0.122156821631));
#70 = CARTESIAN_POINT('',(0.995741790144,-0.101979589355));
#71 = CARTESIAN_POINT('',(0.992870122215,-8.170267356688E-02));
#72 = CARTESIAN_POINT('',(0.990639904997,-6.134629179074E-02));
#73 = CARTESIAN_POINT('',(0.989048687888,-4.093047362348E-02));
#74 = CARTESIAN_POINT('',(0.988094634402,-2.047511384755E-02));
#75 = CARTESIAN_POINT('',(0.987882797286,-6.825032409074E-03));
#76 = CARTESIAN_POINT('',(0.987882737839,1.564497766812E-15));
#77 = ( GEOMETRIC_REPRESENTATION_CONTEXT(2) 
PARAMETRIC_REPRESENTATION_CONTEXT() REPRESENTATION_CONTEXT('2D SPACE',''
  ) );
#78 = ORIENTED_EDGE('',*,*,#79,.T.);
#79 = EDGE_CURVE('',#24,#80,#82,.T.);
#80 = VERTEX_POINT('',#81);
#81 = CARTESIAN_POINT('',(13.8048199319,-285.0999947077,96.428741549));
#82 = SURFACE_CURVE('',#83,(#87,#94),.PCURVE_S1.);
#83 = LINE('',#84,#85);
#84 = CARTESIAN_POINT('',(13.8048199319,-285.0999947077,96.428741549));
#85 = VECTOR('',#86,1.);
#86 = DIRECTION('',(-1.,2.628618675401E-11,-3.064104139678E-16));
#87 = PCURVE('',#33,#88);
#88 = DEFINITIONAL_REPRESENTATION('',(#89),#93);
#89 = LINE('',#90,#91);
#90 = CARTESIAN_POINT('',(3.14159265359,1.42108547152E-12));
#91 = VECTOR('',#92,1.);
#92 = DIRECTION('',(0.,1.));
#93 = ( GEOMETRIC_REPRESENTATION_CONTEXT(2) 
PARAMETRIC_REPRESENTATION_CONTEXT() REPRESENTATION_CONTEXT('2D SPACE',''
  ) );
#94 = PCURVE('',#95,#100);
#95 = CYLINDRICAL_SURFACE('',#96,5.);
#96 = AXIS2_PLACEMENT_3D('',#97,#98,#99);
#97 = CARTESIAN_POINT('',(13.80481993177,-290.0999947077,96.428741549));
#98 = DIRECTION('',(-1.,2.628618675401E-11,-3.064104139678E-16));
#99 = DIRECTION('',(-2.628618675401E-11,-1.,3.885780586188E-14));
#100 = DEFINITIONAL_REPRESENTATION('',(#101),#105);
#101 = LINE('',#102,#103);
#102 = CARTESIAN_POINT('',(3.14159265359,1.42108547152E-12));
#103 = VECTOR('',#104,1.);
#104 = DIRECTION('',(0.,1.));
#105 = ( GEOMETRIC_REPRESENTATION_CONTEXT(2) 
PARAMETRIC_REPRESENTATION_CONTEXT() REPRESENTATION_CONTEXT('2D SPACE',''
  ) );
#106 = ORIENTED_EDGE('',*,*,#107,.F.);
#107 = EDGE_CURVE('',#108,#80,#110,.T.);
#108 = VERTEX_POINT('',#109);
#109 = CARTESIAN_POINT('',(13.80481993186,-286.6827589827,100.078741549)
  );
#110 = SURFACE_CURVE('',#111,(#116,#123),.PCURVE_S1.);
#111 = CIRCLE('',#112,5.);
#112 = AXIS2_PLACEMENT_3D('',#113,#114,#115);
#113 = CARTESIAN_POINT('',(13.80481993177,-290.0999947077,96.428741549)
  );
#114 = DIRECTION('',(-1.,2.628618675401E-11,-3.064104139678E-16));
#115 = DIRECTION('',(-2.628618675401E-11,-1.,3.885780586188E-14));
#116 = PCURVE('',#33,#117);
#117 = DEFINITIONAL_REPRESENTATION('',(#118),#122);
#118 = LINE('',#119,#120);
#119 = CARTESIAN_POINT('',(-8.881784197001E-16,4.034556618988E-14));
#120 = VECTOR('',#121,1.);
#121 = DIRECTION('',(1.,-1.736584812889E-14));
#122 = ( GEOMETRIC_REPRESENTATION_CONTEXT(2) 
PARAMETRIC_REPRESENTATION_CONTEXT() REPRESENTATION_CONTEXT('2D SPACE',''
  ) );
#123 = PCURVE('',#124,#129);
#124 = SPHERICAL_SURFACE('',#125,9.083333333333);
#125 = AXIS2_PLACEMENT_3D('',#126,#127,#128);
#126 = CARTESIAN_POINT('',(21.3881532651,-290.0999947079,96.428741549004
    ));
#127 = DIRECTION('',(2.934877202778E-15,-1.05305029308E-12,-1.));
#128 = DIRECTION('',(-2.544117720832E-11,-1.,1.05305029308E-12));
#129 = DEFINITIONAL_REPRESENTATION('',(#130),#156);
#130 = B_SPLINE_CURVE_WITH_KNOTS('',3,(#131,#132,#133,#134,#135,#136,
    #137,#138,#139,#140,#141,#142,#143,#144,#145,#146,#147,#148,#149,
    #150,#151,#152,#153,#154,#155),.UNSPECIFIED.,.F.,.F.,(4,1,1,1,1,1,1,
    1,1,1,1,1,1,1,1,1,1,1,1,1,1,1,4),(2.323270702958,2.36046715526,
    2.397663607561,2.434860059863,2.472056512164,2.509252964466,
    2.546449416767,2.583645869068,2.62084232137,2.658038773671,
    2.695235225973,2.732431678274,2.769628130576,2.806824582877,
    2.844021035178,2.88121748748,2.918413939781,2.955610392083,
    2.992806844384,3.030003296686,3.067199748987,3.104396201288,
    3.14159265359),.UNSPECIFIED.);
#131 = CARTESIAN_POINT('',(1.994169458949,-0.413519721783));
#132 = CARTESIAN_POINT('',(1.999130094879,-0.408425783237));
#133 = CARTESIAN_POINT('',(2.008811539565,-0.398069804007));
#134 = CARTESIAN_POINT('',(2.022614795096,-0.382058676244));
#135 = CARTESIAN_POINT('',(2.035699098088,-0.365597701198));
#136 = CARTESIAN_POINT('',(2.048066546194,-0.348713616002));
#137 = CARTESIAN_POINT('',(2.059720308182,-0.331432722013));
#138 = CARTESIAN_POINT('',(2.070664599633,-0.313780805204));
#139 = CARTESIAN_POINT('',(2.080904401318,-0.295783130203));
#140 = CARTESIAN_POINT('',(2.090445269683,-0.277464428125));
#141 = CARTESIAN_POINT('',(2.09929314606,-0.258848898039));
#142 = CARTESIAN_POINT('',(2.107454189363,-0.239960215294));
#143 = CARTESIAN_POINT('',(2.114934624926,-0.220821547116));
#144 = CARTESIAN_POINT('',(2.121740610468,-0.201455574121));
#145 = CARTESIAN_POINT('',(2.127878117733,-0.18188451695));
#146 = CARTESIAN_POINT('',(2.133352828895,-0.162130167208));
#147 = CARTESIAN_POINT('',(2.138170046671,-0.142213922031));
#148 = CARTESIAN_POINT('',(2.142334616917,-0.122156821631));
#149 = CARTESIAN_POINT('',(2.145850863446,-0.101979589355));
#150 = CARTESIAN_POINT('',(2.148722531375,-8.170267356697E-02));
#151 = CARTESIAN_POINT('',(2.150952748593,-6.134629179084E-02));
#152 = CARTESIAN_POINT('',(2.152543965702,-4.093047362358E-02));
#153 = CARTESIAN_POINT('',(2.153498019188,-2.047511384766E-02));
#154 = CARTESIAN_POINT('',(2.153709856304,-6.825032409181E-03));
#155 = CARTESIAN_POINT('',(2.153709915751,-1.063858481432E-13));
#156 = ( GEOMETRIC_REPRESENTATION_CONTEXT(2) 
PARAMETRIC_REPRESENTATION_CONTEXT() REPRESENTATION_CONTEXT('2D SPACE',''
  ) );
#157 = ORIENTED_EDGE('',*,*,#158,.T.);
#158 = EDGE_CURVE('',#108,#22,#159,.T.);
#159 = SURFACE_CURVE('',#160,(#164,#171),.PCURVE_S1.);
#160 = LINE('',#161,#162);
#161 = CARTESIAN_POINT('',(13.80481993186,-286.6827589827,100.078741549)
  );
#162 = VECTOR('',#163,1.);
#163 = DIRECTION('',(1.,-2.628618675401E-11,3.064104139678E-16));
#164 = PCURVE('',#33,#165);
#165 = DEFINITIONAL_REPRESENTATION('',(#166),#170);
#166 = LINE('',#167,#168);
#167 = CARTESIAN_POINT('',(2.323270702958,-1.705302565824E-13));
#168 = VECTOR('',#169,1.);
#169 = DIRECTION('',(0.,-1.));
#170 = ( GEOMETRIC_REPRESENTATION_CONTEXT(2) 
PARAMETRIC_REPRESENTATION_CONTEXT() REPRESENTATION_CONTEXT('2D SPACE',''
  ) );
#171 = PCURVE('',#172,#177);
#172 = PLANE('',#173);
#173 = AXIS2_PLACEMENT_3D('',#174,#175,#176);
#174 = CARTESIAN_POINT('',(15.204819931772,-290.0999947077,100.078741549
    ));
#175 = DIRECTION('',(4.609747228282E-15,-2.769314889038E-13,-1.));
#176 = DIRECTION('',(0.,-1.,2.769314889038E-13));
#177 = DEFINITIONAL_REPRESENTATION('',(#178),#182);
#178 = LINE('',#179,#180);
#179 = CARTESIAN_POINT('',(-3.417235725002,1.399999999912));
#180 = VECTOR('',#181,1.);
#181 = DIRECTION('',(2.628618675401E-11,-1.));
#182 = ( GEOMETRIC_REPRESENTATION_CONTEXT(2) 
PARAMETRIC_REPRESENTATION_CONTEXT() REPRESENTATION_CONTEXT('2D SPACE',''
  ) );
#183 = ADVANCED_FACE('',(#184),#172,.F.);
#184 = FACE_BOUND('',#185,.F.);
#185 = EDGE_LOOP('',(#186,#187,#211,#239));
#186 = ORIENTED_EDGE('',*,*,#158,.T.);
#187 = ORIENTED_EDGE('',*,*,#188,.T.);
#188 = EDGE_CURVE('',#22,#189,#191,.T.);
#189 = VERTEX_POINT('',#190);
#190 = CARTESIAN_POINT('',(16.60481993168,-293.5172304327,100.078741549)
  );
#191 = SURFACE_CURVE('',#192,(#197,#204),.PCURVE_S1.);
#192 = CIRCLE('',#193,8.317718704335);
#193 = AXIS2_PLACEMENT_3D('',#194,#195,#196);
#194 = CARTESIAN_POINT('',(9.021486598443,-290.0999947075,100.078741549)
  );
#195 = DIRECTION('',(3.064104129655E-16,-3.813263826201E-14,-1.));
#196 = DIRECTION('',(-2.628660029079E-11,-1.,3.8132638262E-14));
#197 = PCURVE('',#172,#198);
#198 = DEFINITIONAL_REPRESENTATION('',(#199),#203);
#199 = CIRCLE('',#200,8.317718704335);
#200 = AXIS2_PLACEMENT_2D('',#201,#202);
#201 = CARTESIAN_POINT('',(-1.62117430591E-10,6.183333333329));
#202 = DIRECTION('',(1.,2.628660029079E-11));
#203 = ( GEOMETRIC_REPRESENTATION_CONTEXT(2) 
PARAMETRIC_REPRESENTATION_CONTEXT() REPRESENTATION_CONTEXT('2D SPACE',''
  ) );
#204 = PCURVE('',#45,#205);
#205 = DEFINITIONAL_REPRESENTATION('',(#206),#210);
#206 = LINE('',#207,#208);
#207 = CARTESIAN_POINT('',(-3.14159265359,-0.413519721783));
#208 = VECTOR('',#209,1.);
#209 = DIRECTION('',(1.,7.539191680757E-15));
#210 = ( GEOMETRIC_REPRESENTATION_CONTEXT(2) 
PARAMETRIC_REPRESENTATION_CONTEXT() REPRESENTATION_CONTEXT('2D SPACE',''
  ) );
#211 = ORIENTED_EDGE('',*,*,#212,.T.);
#212 = EDGE_CURVE('',#189,#213,#215,.T.);
#213 = VERTEX_POINT('',#214);
#214 = CARTESIAN_POINT('',(13.80481993168,-293.5172304326,100.078741549)
  );
#215 = SURFACE_CURVE('',#216,(#220,#227),.PCURVE_S1.);
#216 = LINE('',#217,#218);
#217 = CARTESIAN_POINT('',(13.80481993168,-293.5172304326,100.078741549)
  );
#218 = VECTOR('',#219,1.);
#219 = DIRECTION('',(-1.,2.628618675401E-11,-3.064104139678E-16));
#220 = PCURVE('',#172,#221);
#221 = DEFINITIONAL_REPRESENTATION('',(#222),#226);
#222 = LINE('',#223,#224);
#223 = CARTESIAN_POINT('',(3.417235724928,1.400000000092));
#224 = VECTOR('',#225,1.);
#225 = DIRECTION('',(-2.628618675401E-11,1.));
#226 = ( GEOMETRIC_REPRESENTATION_CONTEXT(2) 
PARAMETRIC_REPRESENTATION_CONTEXT() REPRESENTATION_CONTEXT('2D SPACE',''
  ) );
#227 = PCURVE('',#228,#233);
#228 = CYLINDRICAL_SURFACE('',#229,5.);
#229 = AXIS2_PLACEMENT_3D('',#230,#231,#232);
#230 = CARTESIAN_POINT('',(13.80481993177,-290.0999947077,96.428741549)
  );
#231 = DIRECTION('',(-1.,2.628618675401E-11,-3.064104139678E-16));
#232 = DIRECTION('',(-2.628618675401E-11,-1.,3.885780586188E-14));
#233 = DEFINITIONAL_REPRESENTATION('',(#234),#238);
#234 = LINE('',#235,#236);
#235 = CARTESIAN_POINT('',(0.818321950633,1.705302565824E-13));
#236 = VECTOR('',#237,1.);
#237 = DIRECTION('',(0.,1.));
#238 = ( GEOMETRIC_REPRESENTATION_CONTEXT(2) 
PARAMETRIC_REPRESENTATION_CONTEXT() REPRESENTATION_CONTEXT('2D SPACE',''
  ) );
#239 = ORIENTED_EDGE('',*,*,#240,.T.);
#240 = EDGE_CURVE('',#213,#108,#241,.T.);
#241 = SURFACE_CURVE('',#242,(#247,#254),.PCURVE_S1.);
#242 = CIRCLE('',#243,8.317718704335);
#243 = AXIS2_PLACEMENT_3D('',#244,#245,#246);
#244 = CARTESIAN_POINT('',(21.3881532651,-290.0999947079,100.078741549)
  );
#245 = DIRECTION('',(2.934877202777E-15,-1.053113401078E-12,-1.));
#246 = DIRECTION('',(2.544146492295E-11,1.,-1.053113401078E-12));
#247 = PCURVE('',#172,#248);
#248 = DEFINITIONAL_REPRESENTATION('',(#249),#253);
#249 = CIRCLE('',#250,8.317718704335);
#250 = AXIS2_PLACEMENT_2D('',#251,#252);
#251 = CARTESIAN_POINT('',(1.578541741765E-10,-6.183333333328));
#252 = DIRECTION('',(-1.,-2.544146492295E-11));
#253 = ( GEOMETRIC_REPRESENTATION_CONTEXT(2) 
PARAMETRIC_REPRESENTATION_CONTEXT() REPRESENTATION_CONTEXT('2D SPACE',''
  ) );
#254 = PCURVE('',#124,#255);
#255 = DEFINITIONAL_REPRESENTATION('',(#256),#260);
#256 = LINE('',#257,#258);
#257 = CARTESIAN_POINT('',(-3.14159265359,-0.413519721783));
#258 = VECTOR('',#259,1.);
#259 = DIRECTION('',(1.,6.424702475787E-15));
#260 = ( GEOMETRIC_REPRESENTATION_CONTEXT(2) 
PARAMETRIC_REPRESENTATION_CONTEXT() REPRESENTATION_CONTEXT('2D SPACE',''
  ) );
#261 = ADVANCED_FACE('',(#262),#228,.T.);
#262 = FACE_BOUND('',#263,.T.);
#263 = EDGE_LOOP('',(#264,#289,#333,#334));
#264 = ORIENTED_EDGE('',*,*,#265,.F.);
#265 = EDGE_CURVE('',#266,#268,#270,.T.);
#266 = VERTEX_POINT('',#267);
#267 = CARTESIAN_POINT('',(16.60481993164,-295.0999947077,96.428741549)
  );
#268 = VERTEX_POINT('',#269);
#269 = CARTESIAN_POINT('',(13.80481993164,-295.0999947077,96.428741549)
  );
#270 = SURFACE_CURVE('',#271,(#275,#282),.PCURVE_S1.);
#271 = LINE('',#272,#273);
#272 = CARTESIAN_POINT('',(13.80481993164,-295.0999947077,96.428741549)
  );
#273 = VECTOR('',#274,1.);
#274 = DIRECTION('',(-1.,2.628618675401E-11,-3.064104139678E-16));
#275 = PCURVE('',#228,#276);
#276 = DEFINITIONAL_REPRESENTATION('',(#277),#281);
#277 = LINE('',#278,#279);
#278 = CARTESIAN_POINT('',(0.,-1.435296326235E-12));
#279 = VECTOR('',#280,1.);
#280 = DIRECTION('',(0.,1.));
#281 = ( GEOMETRIC_REPRESENTATION_CONTEXT(2) 
PARAMETRIC_REPRESENTATION_CONTEXT() REPRESENTATION_CONTEXT('2D SPACE',''
  ) );
#282 = PCURVE('',#95,#283);
#283 = DEFINITIONAL_REPRESENTATION('',(#284),#288);
#284 = LINE('',#285,#286);
#285 = CARTESIAN_POINT('',(6.28318530718,-1.435296326235E-12));
#286 = VECTOR('',#287,1.);
#287 = DIRECTION('',(0.,1.));
#288 = ( GEOMETRIC_REPRESENTATION_CONTEXT(2) 
PARAMETRIC_REPRESENTATION_CONTEXT() REPRESENTATION_CONTEXT('2D SPACE',''
  ) );
#289 = ORIENTED_EDGE('',*,*,#290,.T.);
#290 = EDGE_CURVE('',#266,#189,#291,.T.);
#291 = SURFACE_CURVE('',#292,(#297,#304),.PCURVE_S1.);
#292 = CIRCLE('',#293,5.);
#293 = AXIS2_PLACEMENT_3D('',#294,#295,#296);
#294 = CARTESIAN_POINT('',(16.60481993177,-290.0999947077,96.428741549)
  );
#295 = DIRECTION('',(-1.,2.628618675401E-11,-3.064104139678E-16));
#296 = DIRECTION('',(-2.628618675401E-11,-1.,3.885780586188E-14));
#297 = PCURVE('',#228,#298);
#298 = DEFINITIONAL_REPRESENTATION('',(#299),#303);
#299 = LINE('',#300,#301);
#300 = CARTESIAN_POINT('',(0.,-2.8));
#301 = VECTOR('',#302,1.);
#302 = DIRECTION('',(1.,0.));
#303 = ( GEOMETRIC_REPRESENTATION_CONTEXT(2) 
PARAMETRIC_REPRESENTATION_CONTEXT() REPRESENTATION_CONTEXT('2D SPACE',''
  ) );
#304 = PCURVE('',#45,#305);
#305 = DEFINITIONAL_REPRESENTATION('',(#306),#332);
#306 = B_SPLINE_CURVE_WITH_KNOTS('',3,(#307,#308,#309,#310,#311,#312,
    #313,#314,#315,#316,#317,#318,#319,#320,#321,#322,#323,#324,#325,
    #326,#327,#328,#329,#330,#331),.UNSPECIFIED.,.F.,.F.,(4,1,1,1,1,1,1,
    1,1,1,1,1,1,1,1,1,1,1,1,1,1,1,4),(0.,3.719645230142E-02,
    7.439290460284E-02,0.111589356904,0.148785809206,0.185982261507,
    0.223178713809,0.26037516611,0.297571618411,0.334768070713,
    0.371964523014,0.409160975316,0.446357427617,0.483553879918,
    0.52075033222,0.557946784521,0.595143236823,0.632339689124,
    0.669536141426,0.706732593727,0.743929046028,0.78112549833,
    0.818321950631),.UNSPECIFIED.);
#307 = CARTESIAN_POINT('',(2.153709915751,0.));
#308 = CARTESIAN_POINT('',(2.153709856304,-6.825032409073E-03));
#309 = CARTESIAN_POINT('',(2.153498019188,-2.047511384755E-02));
#310 = CARTESIAN_POINT('',(2.152543965702,-4.093047362348E-02));
#311 = CARTESIAN_POINT('',(2.150952748593,-6.134629179073E-02));
#312 = CARTESIAN_POINT('',(2.148722531375,-8.170267356686E-02));
#313 = CARTESIAN_POINT('',(2.145850863446,-0.101979589355));
#314 = CARTESIAN_POINT('',(2.142334616917,-0.122156821631));
#315 = CARTESIAN_POINT('',(2.138170046671,-0.142213922031));
#316 = CARTESIAN_POINT('',(2.133352828895,-0.162130167208));
#317 = CARTESIAN_POINT('',(2.127878117733,-0.18188451695));
#318 = CARTESIAN_POINT('',(2.121740610468,-0.201455574121));
#319 = CARTESIAN_POINT('',(2.114934624926,-0.220821547116));
#320 = CARTESIAN_POINT('',(2.107454189363,-0.239960215294));
#321 = CARTESIAN_POINT('',(2.09929314606,-0.258848898039));
#322 = CARTESIAN_POINT('',(2.090445269683,-0.277464428124));
#323 = CARTESIAN_POINT('',(2.080904401319,-0.295783130203));
#324 = CARTESIAN_POINT('',(2.070664599633,-0.313780805204));
#325 = CARTESIAN_POINT('',(2.059720308182,-0.331432722013));
#326 = CARTESIAN_POINT('',(2.048066546194,-0.348713616002));
#327 = CARTESIAN_POINT('',(2.035699098088,-0.365597701198));
#328 = CARTESIAN_POINT('',(2.022614795096,-0.382058676244));
#329 = CARTESIAN_POINT('',(2.008811539566,-0.398069804007));
#330 = CARTESIAN_POINT('',(1.999130094879,-0.408425783237));
#331 = CARTESIAN_POINT('',(1.99416945895,-0.413519721783));
#332 = ( GEOMETRIC_REPRESENTATION_CONTEXT(2) 
PARAMETRIC_REPRESENTATION_CONTEXT() REPRESENTATION_CONTEXT('2D SPACE',''
  ) );
#333 = ORIENTED_EDGE('',*,*,#212,.T.);
#334 = ORIENTED_EDGE('',*,*,#335,.F.);
#335 = EDGE_CURVE('',#268,#213,#336,.T.);
#336 = SURFACE_CURVE('',#337,(#342,#349),.PCURVE_S1.);
#337 = CIRCLE('',#338,5.);
#338 = AXIS2_PLACEMENT_3D('',#339,#340,#341);
#339 = CARTESIAN_POINT('',(13.80481993177,-290.0999947077,96.428741549)
  );
#340 = DIRECTION('',(-1.,2.628618675401E-11,-3.064104139678E-16));
#341 = DIRECTION('',(-2.628618675401E-11,-1.,3.885780586188E-14));
#342 = PCURVE('',#228,#343);
#343 = DEFINITIONAL_REPRESENTATION('',(#344),#348);
#344 = LINE('',#345,#346);
#345 = CARTESIAN_POINT('',(0.,0.));
#346 = VECTOR('',#347,1.);
#347 = DIRECTION('',(1.,0.));
#348 = ( GEOMETRIC_REPRESENTATION_CONTEXT(2) 
PARAMETRIC_REPRESENTATION_CONTEXT() REPRESENTATION_CONTEXT('2D SPACE',''
  ) );
#349 = PCURVE('',#124,#350);
#350 = DEFINITIONAL_REPRESENTATION('',(#351),#377);
#351 = B_SPLINE_CURVE_WITH_KNOTS('',3,(#352,#353,#354,#355,#356,#357,
    #358,#359,#360,#361,#362,#363,#364,#365,#366,#367,#368,#369,#370,
    #371,#372,#373,#374,#375,#376),.UNSPECIFIED.,.F.,.F.,(4,1,1,1,1,1,1,
    1,1,1,1,1,1,1,1,1,1,1,1,1,1,1,4),(0.,3.719645230149E-02,
    7.439290460298E-02,0.111589356904,0.148785809206,0.185982261507,
    0.223178713809,0.26037516611,0.297571618412,0.334768070713,
    0.371964523015,0.409160975316,0.446357427618,0.483553879919,
    0.520750332221,0.557946784522,0.595143236824,0.632339689125,
    0.669536141427,0.706732593728,0.74392904603,0.781125498331,
    0.818321950633),.UNSPECIFIED.);
#352 = CARTESIAN_POINT('',(0.987882737839,1.009101059593E-12));
#353 = CARTESIAN_POINT('',(0.987882797286,-6.825032408073E-03));
#354 = CARTESIAN_POINT('',(0.988094634402,-2.047511384656E-02));
#355 = CARTESIAN_POINT('',(0.989048687889,-4.093047362252E-02));
#356 = CARTESIAN_POINT('',(0.990639904997,-6.13462917898E-02));
#357 = CARTESIAN_POINT('',(0.992870122215,-8.170267356595E-02));
#358 = CARTESIAN_POINT('',(0.995741790144,-0.101979589354));
#359 = CARTESIAN_POINT('',(0.999258036673,-0.12215682163));
#360 = CARTESIAN_POINT('',(1.003422606919,-0.14221392203));
#361 = CARTESIAN_POINT('',(1.008239824696,-0.162130167207));
#362 = CARTESIAN_POINT('',(1.013714535858,-0.181884516949));
#363 = CARTESIAN_POINT('',(1.019852043123,-0.201455574121));
#364 = CARTESIAN_POINT('',(1.026658028664,-0.220821547115));
#365 = CARTESIAN_POINT('',(1.034138464228,-0.239960215293));
#366 = CARTESIAN_POINT('',(1.042299507531,-0.258848898038));
#367 = CARTESIAN_POINT('',(1.051147383907,-0.277464428124));
#368 = CARTESIAN_POINT('',(1.060688252272,-0.295783130203));
#369 = CARTESIAN_POINT('',(1.070928053958,-0.313780805203));
#370 = CARTESIAN_POINT('',(1.081872345409,-0.331432722012));
#371 = CARTESIAN_POINT('',(1.093526107396,-0.348713616002));
#372 = CARTESIAN_POINT('',(1.105893555503,-0.365597701198));
#373 = CARTESIAN_POINT('',(1.118977858495,-0.382058676243));
#374 = CARTESIAN_POINT('',(1.132781114025,-0.398069804007));
#375 = CARTESIAN_POINT('',(1.142462558712,-0.408425783236));
#376 = CARTESIAN_POINT('',(1.147423194641,-0.413519721782));
#377 = ( GEOMETRIC_REPRESENTATION_CONTEXT(2) 
PARAMETRIC_REPRESENTATION_CONTEXT() REPRESENTATION_CONTEXT('2D SPACE',''
  ) );
#378 = ADVANCED_FACE('',(#379),#124,.T.);
#379 = FACE_BOUND('',#380,.T.);
#380 = EDGE_LOOP('',(#381,#410,#432,#433,#434));
#381 = ORIENTED_EDGE('',*,*,#382,.F.);
#382 = EDGE_CURVE('',#383,#80,#385,.T.);
#383 = VERTEX_POINT('',#384);
#384 = CARTESIAN_POINT('',(12.30481993177,-290.0999947076,
    96.428741549004));
#385 = SURFACE_CURVE('',#386,(#391,#398),.PCURVE_S1.);
#386 = CIRCLE('',#387,9.083333333333);
#387 = AXIS2_PLACEMENT_3D('',#388,#389,#390);
#388 = CARTESIAN_POINT('',(21.3881532651,-290.0999947079,96.428741549004
    ));
#389 = DIRECTION('',(2.934877202774E-15,-1.053235865758E-12,-1.));
#390 = DIRECTION('',(8.451353678415E-13,-1.,1.053235865758E-12));
#391 = PCURVE('',#124,#392);
#392 = DEFINITIONAL_REPRESENTATION('',(#393),#397);
#393 = LINE('',#394,#395);
#394 = CARTESIAN_POINT('',(-2.628630646484E-11,-4.215903337969E-15));
#395 = VECTOR('',#396,1.);
#396 = DIRECTION('',(1.,2.683927423296E-15));
#397 = ( GEOMETRIC_REPRESENTATION_CONTEXT(2) 
PARAMETRIC_REPRESENTATION_CONTEXT() REPRESENTATION_CONTEXT('2D SPACE',''
  ) );
#398 = PCURVE('',#399,#404);
#399 = SPHERICAL_SURFACE('',#400,9.083333333333);
#400 = AXIS2_PLACEMENT_3D('',#401,#402,#403);
#401 = CARTESIAN_POINT('',(21.3881532651,-290.0999947079,96.428741549004
    ));
#402 = DIRECTION('',(2.934877202778E-15,-1.05305029308E-12,-1.));
#403 = DIRECTION('',(-2.544117720832E-11,-1.,1.05305029308E-12));
#404 = DEFINITIONAL_REPRESENTATION('',(#405),#409);
#405 = LINE('',#406,#407);
#406 = CARTESIAN_POINT('',(-2.628630646484E-11,-4.215903337969E-15));
#407 = VECTOR('',#408,1.);
#408 = DIRECTION('',(1.,2.683927423296E-15));
#409 = ( GEOMETRIC_REPRESENTATION_CONTEXT(2) 
PARAMETRIC_REPRESENTATION_CONTEXT() REPRESENTATION_CONTEXT('2D SPACE',''
  ) );
#410 = ORIENTED_EDGE('',*,*,#411,.T.);
#411 = EDGE_CURVE('',#383,#268,#412,.T.);
#412 = SURFACE_CURVE('',#413,(#418,#425),.PCURVE_S1.);
#413 = CIRCLE('',#414,9.083333333333);
#414 = AXIS2_PLACEMENT_3D('',#415,#416,#417);
#415 = CARTESIAN_POINT('',(21.3881532651,-290.0999947079,96.428741549004
    ));
#416 = DIRECTION('',(-2.934877202777E-15,1.053113401078E-12,1.));
#417 = DIRECTION('',(-8.451353678415E-13,1.,-1.053113401078E-12));
#418 = PCURVE('',#124,#419);
#419 = DEFINITIONAL_REPRESENTATION('',(#420),#424);
#420 = LINE('',#421,#422);
#421 = CARTESIAN_POINT('',(3.141592653564,-4.21590333783E-15));
#422 = VECTOR('',#423,1.);
#423 = DIRECTION('',(-1.,2.683927423298E-15));
#424 = ( GEOMETRIC_REPRESENTATION_CONTEXT(2) 
PARAMETRIC_REPRESENTATION_CONTEXT() REPRESENTATION_CONTEXT('2D SPACE',''
  ) );
#425 = PCURVE('',#399,#426);
#426 = DEFINITIONAL_REPRESENTATION('',(#427),#431);
#427 = LINE('',#428,#429);
#428 = CARTESIAN_POINT('',(3.141592653564,-4.21590333783E-15));
#429 = VECTOR('',#430,1.);
#430 = DIRECTION('',(-1.,2.683927423298E-15));
#431 = ( GEOMETRIC_REPRESENTATION_CONTEXT(2) 
PARAMETRIC_REPRESENTATION_CONTEXT() REPRESENTATION_CONTEXT('2D SPACE',''
  ) );
#432 = ORIENTED_EDGE('',*,*,#335,.T.);
#433 = ORIENTED_EDGE('',*,*,#240,.T.);
#434 = ORIENTED_EDGE('',*,*,#107,.T.);
#435 = ADVANCED_FACE('',(#436),#399,.T.);
#436 = FACE_BOUND('',#437,.T.);
#437 = EDGE_LOOP('',(#438,#439,#440));
#438 = ORIENTED_EDGE('',*,*,#411,.F.);
#439 = ORIENTED_EDGE('',*,*,#382,.T.);
#440 = ORIENTED_EDGE('',*,*,#441,.T.);
#441 = EDGE_CURVE('',#80,#268,#442,.T.);
#442 = SURFACE_CURVE('',#443,(#448,#477),.PCURVE_S1.);
#443 = CIRCLE('',#444,5.);
#444 = AXIS2_PLACEMENT_3D('',#445,#446,#447);
#445 = CARTESIAN_POINT('',(13.80481993177,-290.0999947077,96.428741549)
  );
#446 = DIRECTION('',(-1.,2.628618675401E-11,-3.064104139678E-16));
#447 = DIRECTION('',(-2.628618675401E-11,-1.,3.885780586188E-14));
#448 = PCURVE('',#399,#449);
#449 = DEFINITIONAL_REPRESENTATION('',(#450),#476);
#450 = B_SPLINE_CURVE_WITH_KNOTS('',3,(#451,#452,#453,#454,#455,#456,
    #457,#458,#459,#460,#461,#462,#463,#464,#465,#466,#467,#468,#469,
    #470,#471,#472,#473,#474,#475),.UNSPECIFIED.,.F.,.F.,(4,1,1,1,1,1,1,
    1,1,1,1,1,1,1,1,1,1,1,1,1,1,1,4),(3.14159265359,3.284392319662,
    3.427191985734,3.569991651807,3.712791317879,3.855590983951,
    3.998390650023,4.141190316096,4.283989982168,4.42678964824,
    4.569589314312,4.712388980385,4.855188646457,4.997988312529,
    5.140787978601,5.283587644674,5.426387310746,5.569186976818,
    5.711986642891,5.854786308963,5.997585975035,6.140385641107,
    6.28318530718),.UNSPECIFIED.);
#451 = CARTESIAN_POINT('',(2.153709915751,-1.063858481432E-13));
#452 = CARTESIAN_POINT('',(2.153698651415,2.619794074474E-02));
#453 = CARTESIAN_POINT('',(2.15059578377,7.860735392433E-02));
#454 = CARTESIAN_POINT('',(2.136473871186,0.156090097301));
#455 = CARTESIAN_POINT('',(2.112701898872,0.231295857674));
#456 = CARTESIAN_POINT('',(2.078942908668,0.302986751452));
#457 = CARTESIAN_POINT('',(2.034845939012,0.369826538101));
#458 = CARTESIAN_POINT('',(1.980154207886,0.430361846994));
#459 = CARTESIAN_POINT('',(1.91489246303,0.483038234294));
#460 = CARTESIAN_POINT('',(1.839597552123,0.526256342761));
#461 = CARTESIAN_POINT('',(1.755554911102,0.558482923712));
#462 = CARTESIAN_POINT('',(1.664946693193,0.578414228794));
#463 = CARTESIAN_POINT('',(1.570796326796,0.585163269037));
#464 = CARTESIAN_POINT('',(1.476645960399,0.578414228794));
#465 = CARTESIAN_POINT('',(1.386037742489,0.558482923712));
#466 = CARTESIAN_POINT('',(1.301995101469,0.526256342761));
#467 = CARTESIAN_POINT('',(1.226700190562,0.483038234294));
#468 = CARTESIAN_POINT('',(1.161438445706,0.430361846995));
#469 = CARTESIAN_POINT('',(1.106746714579,0.369826538101));
#470 = CARTESIAN_POINT('',(1.062649744923,0.302986751453));
#471 = CARTESIAN_POINT('',(1.02889075472,0.231295857675));
#472 = CARTESIAN_POINT('',(1.005118782405,0.156090097302));
#473 = CARTESIAN_POINT('',(0.990996869821,7.86073539254E-02));
#474 = CARTESIAN_POINT('',(0.987894002176,2.619794074584E-02));
#475 = CARTESIAN_POINT('',(0.987882737839,1.009101059593E-12));
#476 = ( GEOMETRIC_REPRESENTATION_CONTEXT(2) 
PARAMETRIC_REPRESENTATION_CONTEXT() REPRESENTATION_CONTEXT('2D SPACE',''
  ) );
#477 = PCURVE('',#95,#478);
#478 = DEFINITIONAL_REPRESENTATION('',(#479),#483);
#479 = LINE('',#480,#481);
#480 = CARTESIAN_POINT('',(0.,-2.84217094304E-14));
#481 = VECTOR('',#482,1.);
#482 = DIRECTION('',(1.,4.52345554697E-15));
#483 = ( GEOMETRIC_REPRESENTATION_CONTEXT(2) 
PARAMETRIC_REPRESENTATION_CONTEXT() REPRESENTATION_CONTEXT('2D SPACE',''
  ) );
#484 = ADVANCED_FACE('',(#485,#539),#95,.T.);
#485 = FACE_BOUND('',#486,.T.);
#486 = EDGE_LOOP('',(#487,#488,#537,#538));
#487 = ORIENTED_EDGE('',*,*,#79,.F.);
#488 = ORIENTED_EDGE('',*,*,#489,.T.);
#489 = EDGE_CURVE('',#24,#266,#490,.T.);
#490 = SURFACE_CURVE('',#491,(#496,#503),.PCURVE_S1.);
#491 = CIRCLE('',#492,5.);
#492 = AXIS2_PLACEMENT_3D('',#493,#494,#495);
#493 = CARTESIAN_POINT('',(16.60481993177,-290.0999947077,96.428741549)
  );
#494 = DIRECTION('',(-1.,2.628618675401E-11,-3.064104139678E-16));
#495 = DIRECTION('',(-2.628618675401E-11,-1.,3.885780586188E-14));
#496 = PCURVE('',#95,#497);
#497 = DEFINITIONAL_REPRESENTATION('',(#498),#502);
#498 = LINE('',#499,#500);
#499 = CARTESIAN_POINT('',(0.,-2.8));
#500 = VECTOR('',#501,1.);
#501 = DIRECTION('',(1.,4.52345554697E-15));
#502 = ( GEOMETRIC_REPRESENTATION_CONTEXT(2) 
PARAMETRIC_REPRESENTATION_CONTEXT() REPRESENTATION_CONTEXT('2D SPACE',''
  ) );
#503 = PCURVE('',#504,#509);
#504 = SPHERICAL_SURFACE('',#505,9.083333333333);
#505 = AXIS2_PLACEMENT_3D('',#506,#507,#508);
#506 = CARTESIAN_POINT('',(9.021486598443,-290.0999947075,96.428741549)
  );
#507 = DIRECTION('',(3.064104129638E-16,-3.819574626005E-14,-1.));
#508 = DIRECTION('',(2.628631257616E-11,1.,-3.819574626004E-14));
#509 = DEFINITIONAL_REPRESENTATION('',(#510),#536);
#510 = B_SPLINE_CURVE_WITH_KNOTS('',3,(#511,#512,#513,#514,#515,#516,
    #517,#518,#519,#520,#521,#522,#523,#524,#525,#526,#527,#528,#529,
    #530,#531,#532,#533,#534,#535),.UNSPECIFIED.,.F.,.F.,(4,1,1,1,1,1,1,
    1,1,1,1,1,1,1,1,1,1,1,1,1,1,1,4),(3.14159265359,3.284392319662,
    3.427191985734,3.569991651807,3.712791317879,3.855590983951,
    3.998390650023,4.141190316096,4.283989982168,4.42678964824,
    4.569589314312,4.712388980385,4.855188646457,4.997988312529,
    5.140787978601,5.283587644674,5.426387310746,5.569186976818,
    5.711986642891,5.854786308963,5.997585975035,6.140385641107,
    6.28318530718),.UNSPECIFIED.);
#511 = CARTESIAN_POINT('',(0.987882737839,1.564497766812E-15));
#512 = CARTESIAN_POINT('',(0.987894002175,2.619794074485E-02));
#513 = CARTESIAN_POINT('',(0.99099686982,7.860735392445E-02));
#514 = CARTESIAN_POINT('',(1.005118782405,0.156090097301));
#515 = CARTESIAN_POINT('',(1.028890754719,0.231295857674));
#516 = CARTESIAN_POINT('',(1.062649744922,0.302986751452));
#517 = CARTESIAN_POINT('',(1.106746714579,0.369826538101));
#518 = CARTESIAN_POINT('',(1.161438445705,0.430361846994));
#519 = CARTESIAN_POINT('',(1.226700190561,0.483038234294));
#520 = CARTESIAN_POINT('',(1.301995101468,0.526256342761));
#521 = CARTESIAN_POINT('',(1.386037742488,0.558482923712));
#522 = CARTESIAN_POINT('',(1.476645960398,0.578414228794));
#523 = CARTESIAN_POINT('',(1.570796326795,0.585163269037));
#524 = CARTESIAN_POINT('',(1.664946693192,0.578414228794));
#525 = CARTESIAN_POINT('',(1.755554911102,0.558482923712));
#526 = CARTESIAN_POINT('',(1.839597552122,0.526256342761));
#527 = CARTESIAN_POINT('',(1.914892463029,0.483038234294));
#528 = CARTESIAN_POINT('',(1.980154207885,0.430361846994));
#529 = CARTESIAN_POINT('',(2.034845939011,0.369826538101));
#530 = CARTESIAN_POINT('',(2.078942908667,0.302986751452));
#531 = CARTESIAN_POINT('',(2.112701898871,0.231295857674));
#532 = CARTESIAN_POINT('',(2.136473871185,0.156090097301));
#533 = CARTESIAN_POINT('',(2.15059578377,7.860735392444E-02));
#534 = CARTESIAN_POINT('',(2.153698651415,2.619794074485E-02));
#535 = CARTESIAN_POINT('',(2.153709915751,0.));
#536 = ( GEOMETRIC_REPRESENTATION_CONTEXT(2) 
PARAMETRIC_REPRESENTATION_CONTEXT() REPRESENTATION_CONTEXT('2D SPACE',''
  ) );
#537 = ORIENTED_EDGE('',*,*,#265,.T.);
#538 = ORIENTED_EDGE('',*,*,#441,.F.);
#539 = FACE_BOUND('',#540,.T.);
#540 = EDGE_LOOP('',(#541,#711));
#541 = ORIENTED_EDGE('',*,*,#542,.T.);
#542 = EDGE_CURVE('',#543,#545,#547,.T.);
#543 = VERTEX_POINT('',#544);
#544 = CARTESIAN_POINT('',(15.12458586586,-290.5999947077,
    91.453804363467));
#545 = VERTEX_POINT('',#546);
#546 = CARTESIAN_POINT('',(15.12476965767,-289.5999947415,
    91.453804360072));
#547 = SURFACE_CURVE('',#548,(#559,#575),.PCURVE_S1.);
#548 = B_SPLINE_CURVE_WITH_KNOTS('',3,(#549,#550,#551,#552,#553,#554,
    #555,#556,#557,#558),.UNSPECIFIED.,.F.,.F.,(4,2,2,2,4),(0.,0.125,
    0.25,0.375,0.5),.UNSPECIFIED.);
#549 = CARTESIAN_POINT('',(15.12458586586,-290.5999947077,
    91.453804363467));
#550 = CARTESIAN_POINT('',(15.25541932762,-290.5998745631,
    91.453792288483));
#551 = CARTESIAN_POINT('',(15.38588667723,-290.5457399143,
    91.447791857515));
#552 = CARTESIAN_POINT('',(15.57046289327,-290.3612852176,
    91.434717531464));
#553 = CARTESIAN_POINT('',(15.62454378736,-290.2307730683,
    91.428748688574));
#554 = CARTESIAN_POINT('',(15.62462779505,-289.9697628474,
    91.428734424359));
#555 = CARTESIAN_POINT('',(15.5705709931,-289.8389584135,91.434701696533
    ));
#556 = CARTESIAN_POINT('',(15.38601300105,-289.654229834,91.447791070194
    ));
#557 = CARTESIAN_POINT('',(15.25486348072,-289.6002168807,
    91.453782034245));
#558 = CARTESIAN_POINT('',(15.12476965767,-289.5999947415,
    91.453804360072));
#559 = PCURVE('',#95,#560);
#560 = DEFINITIONAL_REPRESENTATION('',(#561),#574);
#561 = B_SPLINE_CURVE_WITH_KNOTS('',6,(#562,#563,#564,#565,#566,#567,
    #568,#569,#570,#571,#572,#573),.UNSPECIFIED.,.F.,.F.,(7,5,7),(0.,
    0.25,0.5),.UNSPECIFIED.);
#562 = CARTESIAN_POINT('',(4.812556401545,-1.319765934103));
#563 = CARTESIAN_POINT('',(4.812532159117,-1.450599395436));
#564 = CARTESIAN_POINT('',(4.80364422102,-1.580328619435));
#565 = CARTESIAN_POINT('',(4.788374596204,-1.699490219866));
#566 = CARTESIAN_POINT('',(4.76448752586,-1.775646160693));
#567 = CARTESIAN_POINT('',(4.738546281687,-1.819727007526));
#568 = CARTESIAN_POINT('',(4.686340979131,-1.819804711344));
#569 = CARTESIAN_POINT('',(4.660363933562,-1.775571729161));
#570 = CARTESIAN_POINT('',(4.636374859341,-1.700109738996));
#571 = CARTESIAN_POINT('',(4.621141512624,-1.580231525762));
#572 = CARTESIAN_POINT('',(4.612266310472,-1.45004354814));
#573 = CARTESIAN_POINT('',(4.612221566012,-1.319949725887));
#574 = ( GEOMETRIC_REPRESENTATION_CONTEXT(2) 
PARAMETRIC_REPRESENTATION_CONTEXT() REPRESENTATION_CONTEXT('2D SPACE',''
  ) );
#575 = PCURVE('',#576,#698);
#576 = B_SPLINE_SURFACE_WITH_KNOTS('',10,10,(
    (#577,#578,#579,#580,#581,#582,#583,#584,#585,#586,#587)
    ,(#588,#589,#590,#591,#592,#593,#594,#595,#596,#597,#598)
    ,(#599,#600,#601,#602,#603,#604,#605,#606,#607,#608,#609)
    ,(#610,#611,#612,#613,#614,#615,#616,#617,#618,#619,#620)
    ,(#621,#622,#623,#624,#625,#626,#627,#628,#629,#630,#631)
    ,(#632,#633,#634,#635,#636,#637,#638,#639,#640,#641,#642)
    ,(#643,#644,#645,#646,#647,#648,#649,#650,#651,#652,#653)
    ,(#654,#655,#656,#657,#658,#659,#660,#661,#662,#663,#664)
    ,(#665,#666,#667,#668,#669,#670,#671,#672,#673,#674,#675)
    ,(#676,#677,#678,#679,#680,#681,#682,#683,#684,#685,#686)
    ,(#687,#688,#689,#690,#691,#692,#693,#694,#695,#696,#697
  )),.UNSPECIFIED.,.F.,.F.,.F.,(11,11),(11,11),(-0.549289525119,
    0.549876837638),(-0.549944362683,0.549244087202),
  .PIECEWISE_BEZIER_KNOTS.);
#577 = CARTESIAN_POINT('',(14.349923949693,-290.16272751,91.415365413894
    ));
#578 = CARTESIAN_POINT('',(14.421162113301,-290.0790180248,
    91.418995908183));
#579 = CARTESIAN_POINT('',(14.492400277093,-289.9953085384,
    91.423212115396));
#580 = CARTESIAN_POINT('',(14.563638440825,-289.9115990526,
    91.42723746831));
#581 = CARTESIAN_POINT('',(14.634876606007,-289.8278895575,
    91.435740010357));
#582 = CARTESIAN_POINT('',(14.706114768283,-289.7441800807,
    91.435346844067));
#583 = CARTESIAN_POINT('',(14.777352934729,-289.6604705779,
    91.447724398784));
#584 = CARTESIAN_POINT('',(14.848591097897,-289.5767610955,
    91.450102886775));
#585 = CARTESIAN_POINT('',(14.919829263245,-289.4930515995,
    91.459147159463));
#586 = CARTESIAN_POINT('',(14.99106742809,-289.4093421068,
    91.466669225034));
#587 = CARTESIAN_POINT('',(15.062305593171,-289.3256326125,
    91.474928407111));
#588 = CARTESIAN_POINT('',(14.433631747491,-290.2339642298,
    91.420982176348));
#589 = CARTESIAN_POINT('',(14.5048699107,-290.1502547469,91.423394487));
#590 = CARTESIAN_POINT('',(14.57610807408,-290.0665452633,
    91.426401532775));
#591 = CARTESIAN_POINT('',(14.647346237269,-289.9828357799,
    91.428673705461));
#592 = CARTESIAN_POINT('',(14.718584402649,-289.8991262851,
    91.437941080995));
#593 = CARTESIAN_POINT('',(14.789822563593,-289.8154168144,
    91.433356087407));
#594 = CARTESIAN_POINT('',(14.861060730595,-289.7317073102,
    91.447496100702));
#595 = CARTESIAN_POINT('',(14.932298892684,-289.6479978327,
    91.446603485792));
#596 = CARTESIAN_POINT('',(15.003537057982,-289.5642883379,
    91.455461398096));
#597 = CARTESIAN_POINT('',(15.074775222365,-289.4805788476,
    91.461607040245));
#598 = CARTESIAN_POINT('',(15.146013387045,-289.3968693558,
    91.468645716171));
#599 = CARTESIAN_POINT('',(14.517339545233,-290.3052009498,
    91.426452106367));
#600 = CARTESIAN_POINT('',(14.588577707976,-290.2214914699,
    91.427498343091));
#601 = CARTESIAN_POINT('',(14.659815870945,-290.1377819881,
    91.429040716871));
#602 = CARTESIAN_POINT('',(14.73105403374,-290.0540725088,
    91.430648731812));
#603 = CARTESIAN_POINT('',(14.802292199816,-289.9703630067,
    91.441259954603));
#604 = CARTESIAN_POINT('',(14.873530358264,-289.886653555,
    91.429776163676));
#605 = CARTESIAN_POINT('',(14.944768526937,-289.8029440366,
    91.448666827664));
#606 = CARTESIAN_POINT('',(15.0160066873,-289.7192345729,91.442509132894
    ));
#607 = CARTESIAN_POINT('',(15.08724485272,-289.6355250754,
    91.451909035444));
#608 = CARTESIAN_POINT('',(15.158483016657,-289.5518155885,
    91.456587358058));
#609 = CARTESIAN_POINT('',(15.229721180923,-289.468106099,
    91.462394519861));
#610 = CARTESIAN_POINT('',(14.601047343652,-290.376437666,
    91.433971680121));
#611 = CARTESIAN_POINT('',(14.67228550636,-290.2927281864,
    91.434782960695));
#612 = CARTESIAN_POINT('',(14.7435236693,-290.2090187042,91.436852715604
    ));
#613 = CARTESIAN_POINT('',(14.814761828889,-290.1253092454,
    91.427251873189));
#614 = CARTESIAN_POINT('',(14.885999991025,-290.0415997647,
    91.428050054107));
#615 = CARTESIAN_POINT('',(14.957238164605,-289.9578902252,
    91.460564903311));
#616 = CARTESIAN_POINT('',(15.028476313292,-289.8741808241,
    91.419814819673));
#617 = CARTESIAN_POINT('',(15.099714486027,-289.7904712875,
    91.451142519613));
#618 = CARTESIAN_POINT('',(15.170952647555,-289.7067618128,
    91.448341466723));
#619 = CARTESIAN_POINT('',(15.242190811215,-289.6230523278,
    91.452458346376));
#620 = CARTESIAN_POINT('',(15.313428974969,-289.5393428413,
    91.456657782116));
#621 = CARTESIAN_POINT('',(14.684755140158,-290.4476743931,
    91.435760028696));
#622 = CARTESIAN_POINT('',(14.755993301791,-290.363964919,
    91.433565426605));
#623 = CARTESIAN_POINT('',(14.827231463294,-290.28025545,91.430084628518
    ));
#624 = CARTESIAN_POINT('',(14.898469633937,-290.1965459135,
    91.456900835546));
#625 = CARTESIAN_POINT('',(14.969707788395,-290.1128364993,
    91.430100703713));
#626 = CARTESIAN_POINT('',(15.040945948763,-290.0291270121,
    91.426611620346));
#627 = CARTESIAN_POINT('',(15.11218411827,-289.9454175121,
    91.446630627755));
#628 = CARTESIAN_POINT('',(15.183422280952,-289.8617080175,
    91.447941176769));
#629 = CARTESIAN_POINT('',(15.254660439953,-289.7779985676,
    91.438004024139));
#630 = CARTESIAN_POINT('',(15.325898604145,-289.6942890757,
    91.443319463949));
#631 = CARTESIAN_POINT('',(15.397136768002,-289.6105795894,
    91.447907146338));
#632 = CARTESIAN_POINT('',(14.768462939791,-290.5189111023,
    91.446953598842));
#633 = CARTESIAN_POINT('',(14.83970110194,-290.4352016271,
    91.445942301392));
#634 = CARTESIAN_POINT('',(14.91093926468,-290.3514921408,
    91.447979560043));
#635 = CARTESIAN_POINT('',(14.982177417579,-290.2677827358,
    91.416683875913));
#636 = CARTESIAN_POINT('',(15.053415589353,-290.1840731727,
    91.449082303837));
#637 = CARTESIAN_POINT('',(15.124653749377,-290.100363747,
    91.437737301943));
#638 = CARTESIAN_POINT('',(15.195891914428,-290.0166542157,
    91.44886098725));
#639 = CARTESIAN_POINT('',(15.267130066775,-289.932944825,
    91.417103298879));
#640 = CARTESIAN_POINT('',(15.33836823917,-289.8492352722,
    91.447698321956));
#641 = CARTESIAN_POINT('',(15.409606400998,-289.7655258031,
    91.446140931606));
#642 = CARTESIAN_POINT('',(15.480844563655,-289.6818163222,
    91.447044611484));
#643 = CARTESIAN_POINT('',(14.852170736042,-290.5901478307,
    91.448035007477));
#644 = CARTESIAN_POINT('',(14.923408896892,-290.5064383607,
    91.443518431304));
#645 = CARTESIAN_POINT('',(14.994647057718,-290.4227288986,
    91.437732981015));
#646 = CARTESIAN_POINT('',(15.065885222935,-290.339019387,
    91.448769941266));
#647 = CARTESIAN_POINT('',(15.137123385735,-290.255309937,
    91.445892053457));
#648 = CARTESIAN_POINT('',(15.208361540429,-290.1716004646,
    91.427209407996));
#649 = CARTESIAN_POINT('',(15.279599704854,-290.0878910145,
    91.429688134284));
#650 = CARTESIAN_POINT('',(15.350837875541,-290.004181457,
    91.456935536337));
#651 = CARTESIAN_POINT('',(15.422076029306,-289.9204720468,
    91.430165726332));
#652 = CARTESIAN_POINT('',(15.493314192684,-289.8367625568,
    91.433371621445));
#653 = CARTESIAN_POINT('',(15.564552355798,-289.7530530755,
    91.435635714298));
#654 = CARTESIAN_POINT('',(14.935878534827,-290.6613845448,
    91.456703725772));
#655 = CARTESIAN_POINT('',(15.007116695895,-290.5776750758,
    91.452478274052));
#656 = CARTESIAN_POINT('',(15.078354856778,-290.4939656021,
    91.448611629921));
#657 = CARTESIAN_POINT('',(15.14959302049,-290.4102561288,
    91.450681328581));
#658 = CARTESIAN_POINT('',(15.220831171744,-290.3265466945,
    91.420148146152));
#659 = CARTESIAN_POINT('',(15.292069348675,-290.2428371603,
    91.460429917619));
#660 = CARTESIAN_POINT('',(15.363307499368,-290.1591277214,
    91.428238789583));
#661 = CARTESIAN_POINT('',(15.434545662019,-290.0754182649,
    91.427096194819));
#662 = CARTESIAN_POINT('',(15.505783827326,-289.9917087567,
    91.43682481095));
#663 = CARTESIAN_POINT('',(15.577021989103,-289.9079992869,
    91.434820265841));
#664 = CARTESIAN_POINT('',(15.648260151168,-289.8242898098,
    91.433977926337));
#665 = CARTESIAN_POINT('',(15.019586332621,-290.7326212642,
    91.46245399958));
#666 = CARTESIAN_POINT('',(15.090824493091,-290.6489117974,
    91.45664077925));
#667 = CARTESIAN_POINT('',(15.162062654052,-290.5652023302,
    91.451903464323));
#668 = CARTESIAN_POINT('',(15.233300813034,-290.481492867,
    91.442489713762));
#669 = CARTESIAN_POINT('',(15.304538978126,-290.3977833833,
    91.449054701684));
#670 = CARTESIAN_POINT('',(15.375777133337,-290.314073934,
    91.429240947249));
#671 = CARTESIAN_POINT('',(15.44701530037,-290.2303644427,
    91.441642210382));
#672 = CARTESIAN_POINT('',(15.518253458729,-290.1466549778,
    91.430546739572));
#673 = CARTESIAN_POINT('',(15.589491620761,-290.0629455079,
    91.429037206361));
#674 = CARTESIAN_POINT('',(15.660729782557,-289.9792360311,
    91.42746500588));
#675 = CARTESIAN_POINT('',(15.73196794458,-289.8955265556,
    91.426420970519));
#676 = CARTESIAN_POINT('',(15.103294130583,-290.8038579829,
    91.468703374563));
#677 = CARTESIAN_POINT('',(15.174532290677,-290.7201485189,
    91.461656698969));
#678 = CARTESIAN_POINT('',(15.24577045101,-290.6364390526,
    91.455492055953));
#679 = CARTESIAN_POINT('',(15.31700861061,-290.5527295931,91.44669037353
    ));
#680 = CARTESIAN_POINT('',(15.38824677305,-290.4690201117,
    91.447395199988));
#681 = CARTESIAN_POINT('',(15.45948493112,-290.3853106639,
    91.433588341384));
#682 = CARTESIAN_POINT('',(15.530723094655,-290.3016011746,
    91.437755615627));
#683 = CARTESIAN_POINT('',(15.60196125422,-290.2178917167,
    91.428787584716));
#684 = CARTESIAN_POINT('',(15.673199415726,-290.1341822421,
    91.426376552126));
#685 = CARTESIAN_POINT('',(15.744437577125,-290.0504727706,
    91.423384291335));
#686 = CARTESIAN_POINT('',(15.815675738681,-289.9667632973,
    91.420967470414));
#687 = CARTESIAN_POINT('',(15.187001928549,-290.8750947014,
    91.474987879099));
#688 = CARTESIAN_POINT('',(15.258240088233,-290.7913852397,
    91.466721840635));
#689 = CARTESIAN_POINT('',(15.329478248151,-290.7076757766,
    91.459187595951));
#690 = CARTESIAN_POINT('',(15.400716407583,-290.6239663165,
    91.450171236206));
#691 = CARTESIAN_POINT('',(15.471954569144,-290.5402568432,
    91.447691140924));
#692 = CARTESIAN_POINT('',(15.543192727526,-290.4565473896,
    91.435482263742));
#693 = CARTESIAN_POINT('',(15.614430889944,-290.372837911,
    91.435661890794));
#694 = CARTESIAN_POINT('',(15.685669049579,-290.2891284497,
    91.427304881193));
#695 = CARTESIAN_POINT('',(15.756907210591,-290.2054189797,
    91.423209652399));
#696 = CARTESIAN_POINT('',(15.828145371567,-290.1217095101,
    91.418996179738));
#697 = CARTESIAN_POINT('',(15.899383532726,-290.0380000394,
    91.415360690837));
#698 = DEFINITIONAL_REPRESENTATION('',(#699),#710);
#699 = B_SPLINE_CURVE_WITH_KNOTS('',3,(#700,#701,#702,#703,#704,#705,
    #706,#707,#708,#709),.UNSPECIFIED.,.F.,.F.,(4,2,2,2,4),(0.,0.125,
    0.25,0.375,0.5),.UNSPECIFIED.);
#700 = CARTESIAN_POINT('',(0.324051716866,-0.380891683451));
#701 = CARTESIAN_POINT('',(0.423611004456,-0.296007306897));
#702 = CARTESIAN_POINT('',(0.487884407979,-0.17022947062));
#703 = CARTESIAN_POINT('',(0.508905787194,8.987540617793E-02));
#704 = CARTESIAN_POINT('',(0.465506737062,0.224313038995));
#705 = CARTESIAN_POINT('',(0.296410019534,0.423142310963));
#706 = CARTESIAN_POINT('',(0.170473530599,0.487722500263));
#707 = CARTESIAN_POINT('',(-8.980896553215E-02,0.508793044168));
#708 = CARTESIAN_POINT('',(-0.224688255748,0.46492886672));
#709 = CARTESIAN_POINT('',(-0.323906100269,0.380784516406));
#710 = ( GEOMETRIC_REPRESENTATION_CONTEXT(2) 
PARAMETRIC_REPRESENTATION_CONTEXT() REPRESENTATION_CONTEXT('2D SPACE',''
  ) );
#711 = ORIENTED_EDGE('',*,*,#712,.T.);
#712 = EDGE_CURVE('',#545,#543,#713,.T.);
#713 = SURFACE_CURVE('',#714,(#725,#741),.PCURVE_S1.);
#714 = B_SPLINE_CURVE_WITH_KNOTS('',3,(#715,#716,#717,#718,#719,#720,
    #721,#722,#723,#724),.UNSPECIFIED.,.F.,.F.,(4,2,2,2,4),(0.5,0.625,
    0.75,0.875,1.),.UNSPECIFIED.);
#715 = CARTESIAN_POINT('',(15.12476965767,-289.5999947415,
    91.453804360072));
#716 = CARTESIAN_POINT('',(14.99467583461,-289.5997726023,
    91.453826685899));
#717 = CARTESIAN_POINT('',(14.86371756695,-289.6539141862,
    91.447822620306));
#718 = CARTESIAN_POINT('',(14.67902857622,-289.838287911,91.434740071384
    ));
#719 = CARTESIAN_POINT('',(14.62475335435,-289.9689673004,
    91.428753993006));
#720 = CARTESIAN_POINT('',(14.62441883002,-290.2300706623,
    91.428729150257));
#721 = CARTESIAN_POINT('',(14.67839596139,-290.3608211355,
    91.434689160851));
#722 = CARTESIAN_POINT('',(14.86311331186,-290.5457189468,
    91.447785859201));
#723 = CARTESIAN_POINT('',(14.99431240857,-290.600114338,91.453816386766
    ));
#724 = CARTESIAN_POINT('',(15.12458586586,-290.5999947077,
    91.453804363467));
#725 = PCURVE('',#95,#726);
#726 = DEFINITIONAL_REPRESENTATION('',(#727),#740);
#727 = B_SPLINE_CURVE_WITH_KNOTS('',6,(#728,#729,#730,#731,#732,#733,
    #734,#735,#736,#737,#738,#739),.UNSPECIFIED.,.F.,.F.,(7,5,7),(0.5,
    0.75,1.),.UNSPECIFIED.);
#728 = CARTESIAN_POINT('',(4.612221566012,-1.319949725887));
#729 = CARTESIAN_POINT('',(4.612177006133,-1.18985590204));
#730 = CARTESIAN_POINT('',(4.621061864625,-1.059822548656));
#731 = CARTESIAN_POINT('',(4.636320255958,-0.94011786701));
#732 = CARTESIAN_POINT('',(4.660201668105,-0.864354211375));
#733 = CARTESIAN_POINT('',(4.686181763471,-0.819931501178));
#734 = CARTESIAN_POINT('',(4.738405906765,-0.819600819652));
#735 = CARTESIAN_POINT('',(4.764391372444,-0.863710215025));
#736 = CARTESIAN_POINT('',(4.788314758858,-0.939262443783));
#737 = CARTESIAN_POINT('',(4.803660298158,-1.059265230322));
#738 = CARTESIAN_POINT('',(4.812580355272,-1.189492476385));
#739 = CARTESIAN_POINT('',(4.812556401545,-1.319765934103));
#740 = ( GEOMETRIC_REPRESENTATION_CONTEXT(2) 
PARAMETRIC_REPRESENTATION_CONTEXT() REPRESENTATION_CONTEXT('2D SPACE',''
  ) );
#741 = PCURVE('',#576,#742);
#742 = DEFINITIONAL_REPRESENTATION('',(#743),#754);
#743 = B_SPLINE_CURVE_WITH_KNOTS('',3,(#744,#745,#746,#747,#748,#749,
    #750,#751,#752,#753),.UNSPECIFIED.,.F.,.F.,(4,2,2,2,4),(0.5,0.625,
    0.75,0.875,1.),.UNSPECIFIED.);
#744 = CARTESIAN_POINT('',(-0.323906100269,0.380784516406));
#745 = CARTESIAN_POINT('',(-0.423123944798,0.296640166087));
#746 = CARTESIAN_POINT('',(-0.487766705373,0.170538997426));
#747 = CARTESIAN_POINT('',(-0.508926510557,-8.957735204071E-02));
#748 = CARTESIAN_POINT('',(-0.465567059374,-0.224268270398));
#749 = CARTESIAN_POINT('',(-0.296600763773,-0.423330830167));
#750 = CARTESIAN_POINT('',(-0.170759823221,-0.487921597957));
#751 = CARTESIAN_POINT('',(8.975364304298E-02,-0.509017759304));
#752 = CARTESIAN_POINT('',(0.224918571378,-0.465412730705));
#753 = CARTESIAN_POINT('',(0.324051716866,-0.380891683451));
#754 = ( GEOMETRIC_REPRESENTATION_CONTEXT(2) 
PARAMETRIC_REPRESENTATION_CONTEXT() REPRESENTATION_CONTEXT('2D SPACE',''
  ) );
#755 = ADVANCED_FACE('',(#756),#576,.F.);
#756 = FACE_BOUND('',#757,.F.);
#757 = EDGE_LOOP('',(#758,#759));
#758 = ORIENTED_EDGE('',*,*,#542,.T.);
#759 = ORIENTED_EDGE('',*,*,#712,.T.);
#760 = ADVANCED_FACE('',(#761),#504,.T.);
#761 = FACE_BOUND('',#762,.T.);
#762 = EDGE_LOOP('',(#763,#787,#809));
#763 = ORIENTED_EDGE('',*,*,#764,.F.);
#764 = EDGE_CURVE('',#765,#24,#767,.T.);
#765 = VERTEX_POINT('',#766);
#766 = CARTESIAN_POINT('',(18.10481993177,-290.0999947078,96.428741549)
  );
#767 = SURFACE_CURVE('',#768,(#773,#780),.PCURVE_S1.);
#768 = CIRCLE('',#769,9.083333333333);
#769 = AXIS2_PLACEMENT_3D('',#770,#771,#772);
#770 = CARTESIAN_POINT('',(9.021486598443,-290.0999947075,96.428741549)
  );
#771 = DIRECTION('',(-3.064104129655E-16,3.813263826201E-14,1.));
#772 = DIRECTION('',(1.933694773724E-32,-1.,3.813263826201E-14));
#773 = PCURVE('',#504,#774);
#774 = DEFINITIONAL_REPRESENTATION('',(#775),#779);
#775 = LINE('',#776,#777);
#776 = CARTESIAN_POINT('',(3.141592653564,0.));
#777 = VECTOR('',#778,1.);
#778 = DIRECTION('',(-1.,0.));
#779 = ( GEOMETRIC_REPRESENTATION_CONTEXT(2) 
PARAMETRIC_REPRESENTATION_CONTEXT() REPRESENTATION_CONTEXT('2D SPACE',''
  ) );
#780 = PCURVE('',#45,#781);
#781 = DEFINITIONAL_REPRESENTATION('',(#782),#786);
#782 = LINE('',#783,#784);
#783 = CARTESIAN_POINT('',(3.141592653564,0.));
#784 = VECTOR('',#785,1.);
#785 = DIRECTION('',(-1.,0.));
#786 = ( GEOMETRIC_REPRESENTATION_CONTEXT(2) 
PARAMETRIC_REPRESENTATION_CONTEXT() REPRESENTATION_CONTEXT('2D SPACE',''
  ) );
#787 = ORIENTED_EDGE('',*,*,#788,.T.);
#788 = EDGE_CURVE('',#765,#266,#789,.T.);
#789 = SURFACE_CURVE('',#790,(#795,#802),.PCURVE_S1.);
#790 = CIRCLE('',#791,9.083333333333);
#791 = AXIS2_PLACEMENT_3D('',#792,#793,#794);
#792 = CARTESIAN_POINT('',(9.021486598443,-290.0999947075,96.428741549)
  );
#793 = DIRECTION('',(3.064104129687E-16,-3.80101735821E-14,-1.));
#794 = DIRECTION('',(-5.68614008842E-32,1.,-3.80101735821E-14));
#795 = PCURVE('',#504,#796);
#796 = DEFINITIONAL_REPRESENTATION('',(#797),#801);
#797 = LINE('',#798,#799);
#798 = CARTESIAN_POINT('',(-2.628608442024E-11,0.));
#799 = VECTOR('',#800,1.);
#800 = DIRECTION('',(1.,0.));
#801 = ( GEOMETRIC_REPRESENTATION_CONTEXT(2) 
PARAMETRIC_REPRESENTATION_CONTEXT() REPRESENTATION_CONTEXT('2D SPACE',''
  ) );
#802 = PCURVE('',#45,#803);
#803 = DEFINITIONAL_REPRESENTATION('',(#804),#808);
#804 = LINE('',#805,#806);
#805 = CARTESIAN_POINT('',(-2.628608442024E-11,0.));
#806 = VECTOR('',#807,1.);
#807 = DIRECTION('',(1.,0.));
#808 = ( GEOMETRIC_REPRESENTATION_CONTEXT(2) 
PARAMETRIC_REPRESENTATION_CONTEXT() REPRESENTATION_CONTEXT('2D SPACE',''
  ) );
#809 = ORIENTED_EDGE('',*,*,#489,.F.);
#810 = ADVANCED_FACE('',(#811),#45,.T.);
#811 = FACE_BOUND('',#812,.T.);
#812 = EDGE_LOOP('',(#813,#814,#815,#816,#817));
#813 = ORIENTED_EDGE('',*,*,#788,.F.);
#814 = ORIENTED_EDGE('',*,*,#764,.T.);
#815 = ORIENTED_EDGE('',*,*,#21,.F.);
#816 = ORIENTED_EDGE('',*,*,#188,.T.);
#817 = ORIENTED_EDGE('',*,*,#290,.F.);
#818 = ( GEOMETRIC_REPRESENTATION_CONTEXT(3) 
GLOBAL_UNCERTAINTY_ASSIGNED_CONTEXT((#822)) GLOBAL_UNIT_ASSIGNED_CONTEXT
((#819,#820,#821)) REPRESENTATION_CONTEXT('Context #1',
  '3D Context with UNIT and UNCERTAINTY') );
#819 = ( LENGTH_UNIT() NAMED_UNIT(*) SI_UNIT(.MILLI.,.METRE.) );
#820 = ( NAMED_UNIT(*) PLANE_ANGLE_UNIT() SI_UNIT($,.RADIAN.) );
#821 = ( NAMED_UNIT(*) SI_UNIT($,.STERADIAN.) SOLID_ANGLE_UNIT() );
#822 = UNCERTAINTY_MEASURE_WITH_UNIT(LENGTH_MEASURE(2.E-05),#819,
  'distance_accuracy_value','confusion accuracy');
#823 = PRODUCT_RELATED_PRODUCT_CATEGORY('part',$,(#7));
ENDSEC;
END-ISO-10303-21;
